<svg width="92" height="92" viewBox="0 0 92 92" fill="none" xmlns="http://www.w3.org/2000/svg">
<g opacity="0.5">
<path fill-rule="evenodd" clip-rule="evenodd" d="M10 18.2998H82V74.9998H10V18.2998Z" fill="#A8823C" stroke="#90723A" stroke-width="1.1774"/>
<path fill-rule="evenodd" clip-rule="evenodd" d="M17.3 17.5C17 21.1 17 25.4 17.3 30.3C17.6 35 19.1 39.4 21.8 43.3C24.5 39.4 26 35 26.3 30.3C26.6 25.4 26.6 21.1 26.3 17.5C25.6 17.2 24.8 17 24.1 17C23.4 17 22.7 17.1 22 17.4L21.8 17.5L21.6 17.4C21 17.1 20.3 17 19.6 17C18.8 17 18 17.2 17.3 17.5ZM21.8 44.3L21.4 44V43.9L21.5 43.7H21.8C21.8 43.8 21.8 44.3 21.8 44.3Z" fill="#A8823C" stroke="#90723A" stroke-width="1.1774"/>
<path fill-rule="evenodd" clip-rule="evenodd" d="M21.8 44.0996C18.9 53.1996 17.4 59.7996 17.4 63.8996V74.9996H26.2V63.7996C26.2 60.1996 24.7 53.5996 21.8 44.0996Z" fill="#A8823C" stroke="#90723A" stroke-width="1.1774"/>
<path d="M21.8 17.7002V56.6002" stroke="#90723A" stroke-width="1.4718" stroke-linecap="round" stroke-linejoin="round"/>
<path fill-rule="evenodd" clip-rule="evenodd" d="M42.1 17.5C41.8 21.1 41.8 25.4 42.1 30.3C42.4 35 43.9 39.4 46.6 43.3C49.3 39.4 50.8 35 51.1 30.3C51.4 25.4 51.4 21.1 51.1 17.5C50.4 17.2 49.6 17 48.9 17C48.2 17 47.5 17.1 46.8 17.4L46.6 17.5L46.4 17.4C45.7 17.1 45 17 44.3 17C43.6 17 42.8 17.2 42.1 17.5ZM46.6 44.3L46.2 44V43.9L46.3 43.7H46.6V44.3Z" fill="#A8823C" stroke="#90723A" stroke-width="1.1774"/>
<path fill-rule="evenodd" clip-rule="evenodd" d="M46.6 44.0996C43.7 53.1996 42.2 59.7996 42.2 63.8996V74.9996H51V63.7996C51 60.1996 49.5 53.5996 46.6 44.0996Z" fill="#A8823C" stroke="#90723A" stroke-width="1.1774"/>
<path d="M46.6 17.7002V56.6002" stroke="#90723A" stroke-width="1.4718" stroke-linecap="round" stroke-linejoin="round"/>
<path fill-rule="evenodd" clip-rule="evenodd" d="M65.7 17.5C65.4 21.1 65.4 25.4 65.7 30.3C66 35 67.5 39.4 70.2 43.3C72.9 39.4 74.4 35 74.7 30.3C75 25.4 75 21.1 74.7 17.5C74 17.2 73.2 17 72.4 17C71.7 17 71 17.1 70.3 17.4L70.1 17.5L70 17.4C69.3 17.1 68.7 17 67.9 17C67.1 17 66.4 17.2 65.7 17.5ZM70.2 44.3L69.8 44V43.9L69.9 43.7H70.2C70.2 43.8 70.2 44.3 70.2 44.3Z" fill="#A8823C" stroke="#90723A" stroke-width="1.1774"/>
<path fill-rule="evenodd" clip-rule="evenodd" d="M70.2 44.0996C67.3 53.1996 65.8 59.7996 65.8 63.8996V74.9996H74.6V63.7996C74.6 60.1996 73.1 53.5996 70.2 44.0996Z" fill="#A8823C" stroke="#90723A" stroke-width="1.1774"/>
<path d="M70.2 17.7002V56.6002" stroke="#90723A" stroke-width="1.4718" stroke-linecap="round" stroke-linejoin="round"/>
<path d="M7.5 1.5H84.5C87.8 1.5 90.5 4.2 90.5 7.5V84.5C90.5 87.8 87.8 90.5 84.5 90.5H7.5C4.2 90.5 1.5 87.8 1.5 84.5V7.5C1.5 4.2 4.2 1.5 7.5 1.5Z" stroke="#A8823C" stroke-width="2"/>
</g>
</svg>
