<svg width="92" height="92" viewBox="0 0 92 92" fill="none" xmlns="http://www.w3.org/2000/svg">
<g opacity="0.5">
<path fill-rule="evenodd" clip-rule="evenodd" d="M10 19.9004H82V75.0004H10V19.9004Z" fill="#A8823C" stroke="#90723A" stroke-width="1.1751"/>
<path fill-rule="evenodd" clip-rule="evenodd" d="M23.1 44.4004C19.9 53.3004 18.3 59.7004 18.3 63.7004V74.5004H27.8V63.7004C27.8 60.2004 26.2 53.7004 23.1 44.4004Z" fill="#A8823C" stroke="#90723A" stroke-width="1.1751"/>
<path d="M21.6 63.2C21.7 59.6 21.9 56.9 22.1 55.1C22.3 53.3 22.6 50.6 23.2 47C23.7 50.6 24 53.3 24.2 55.1C24.4 56.9 24.5 59.6 24.6 63.2" fill="#A8823C"/>
<path d="M21.6 63.2C21.7 59.6 21.9 56.9 22.1 55.1C22.3 53.3 22.6 50.6 23.2 47C23.7 50.6 24 53.3 24.2 55.1C24.4 56.9 24.5 59.6 24.6 63.2" stroke="#90723A" stroke-width="1.1751"/>
<path fill-rule="evenodd" clip-rule="evenodd" d="M17.5 18C17.2 21.2 17.2 25.2 17.5 30C17.8 34.7 19.6 39.2 22.9 43.4L23.1 43.7L23.3 43.5C26.6 39.5 28.4 35.1 28.7 30.4C29 25.5 29.1 21.4 28.9 18C27.8 17.4 26.8 17.3 25.9 17.5L25.3 17.6L25.1 17.5C24.5 17.2 23.8 17 23.1 17C22.5 17 21.9 17.1 21.3 17.4L21 17.5C20.7 17.5 20.5 17.5 20.2 17.5C19.4 17.5 18.5 17.6 17.5 18ZM23.2 43.7L23.3 43.9V44.3L22.9 44L23.1 43.8L23.2 43.7Z" fill="#A8823C" stroke="#90723A" stroke-width="1.1751"/>
<path d="M20.9 18.7002C21.1 23.5002 21.4 27.2002 21.6 29.8002C21.9 32.4002 22.4 36.5002 23.1 42.1002C23.8 36.5002 24.3 32.4002 24.5 29.8002C24.7 27.2002 24.9 23.5002 25.1 18.7002" fill="#A8823C"/>
<path d="M20.9 18.7002C21.1 23.5002 21.4 27.2002 21.6 29.8002C21.9 32.4002 22.4 36.5002 23.1 42.1002C23.8 36.5002 24.3 32.4002 24.5 29.8002C24.7 27.2002 24.9 23.5002 25.1 18.7002" stroke="#90723A" stroke-width="1.1751"/>
<path fill-rule="evenodd" clip-rule="evenodd" d="M46.1 44.4004C42.9 53.3004 41.3 59.7004 41.3 63.7004V74.5004H50.8V63.7004C50.9 60.2004 49.3 53.7004 46.1 44.4004Z" fill="#A8823C" stroke="#90723A" stroke-width="1.1751"/>
<path d="M44.7 63.2C44.8 59.6 45 56.9 45.2 55.1C45.4 53.3 45.7 50.6 46.3 47C46.8 50.6 47.1 53.3 47.3 55.1C47.5 56.9 47.6 59.6 47.7 63.2" fill="#A8823C"/>
<path d="M44.7 63.2C44.8 59.6 45 56.9 45.2 55.1C45.4 53.3 45.7 50.6 46.3 47C46.8 50.6 47.1 53.3 47.3 55.1C47.5 56.9 47.6 59.6 47.7 63.2" stroke="#90723A" stroke-width="1.1751"/>
<path fill-rule="evenodd" clip-rule="evenodd" d="M40.6 18C40.3 21.2 40.3 25.2 40.6 30C40.9 34.7 42.7 39.2 46 43.4L46.2 43.7L46.4 43.5C49.7 39.5 51.5 35.1 51.8 30.4C52.1 25.5 52.2 21.4 52 18C50.9 17.4 49.9 17.3 49 17.5L48.4 17.6L48.2 17.5C47.6 17.2 46.9 17 46.2 17C45.6 17 45 17.1 44.4 17.4L44.1 17.5C43.8 17.5 43.6 17.5 43.3 17.5C42.4 17.5 41.5 17.6 40.6 18ZM46.3 43.7L46.4 43.9V44.3L46 44L46.3 43.7Z" fill="#A8823C" stroke="#90723A" stroke-width="1.1751"/>
<path d="M44 18.7002C44.2 23.5002 44.5 27.2002 44.7 29.8002C44.9 32.4002 45.5 36.5002 46.2 42.1002C46.9 36.5002 47.4 32.4002 47.6 29.8002C47.8 27.2002 48 23.5002 48.2 18.7002" fill="#A8823C"/>
<path d="M44 18.7002C44.2 23.5002 44.5 27.2002 44.7 29.8002C44.9 32.4002 45.5 36.5002 46.2 42.1002C46.9 36.5002 47.4 32.4002 47.6 29.8002C47.8 27.2002 48 23.5002 48.2 18.7002" stroke="#90723A" stroke-width="1.1751"/>
<path fill-rule="evenodd" clip-rule="evenodd" d="M69.5 44.4004C66.3 53.3004 64.7 59.7004 64.7 63.7004V74.5004H74.2V63.7004C74.3 60.2004 72.7 53.7004 69.5 44.4004Z" fill="#A8823C" stroke="#90723A" stroke-width="1.1751"/>
<path d="M68.1 63.2C68.2 59.6 68.4 56.9 68.6 55.1C68.8 53.3 69.1 50.6 69.7 47C70.2 50.6 70.5 53.3 70.7 55.1C70.9 56.9 71 59.6 71.1 63.2" fill="#A8823C"/>
<path d="M68.1 63.2C68.2 59.6 68.4 56.9 68.6 55.1C68.8 53.3 69.1 50.6 69.7 47C70.2 50.6 70.5 53.3 70.7 55.1C70.9 56.9 71 59.6 71.1 63.2" stroke="#90723A" stroke-width="1.1751"/>
<path fill-rule="evenodd" clip-rule="evenodd" d="M64 18C63.7 21.2 63.7 25.2 64 30C64.3 34.7 66.1 39.2 69.4 43.4L69.6 43.7L69.8 43.5C73.1 39.5 74.9 35.1 75.2 30.4C75.5 25.5 75.6 21.4 75.4 18C74.3 17.4 73.3 17.3 72.4 17.5L71.8 17.6L71.6 17.5C71 17.2 70.3 17 69.6 17C69 17 68.4 17.1 67.8 17.4L67.5 17.5C67.2 17.5 67 17.5 66.7 17.5C65.9 17.5 65 17.6 64 18ZM69.7 43.7L69.8 43.9V44.3L69.4 44L69.7 43.7Z" fill="#A8823C" stroke="#90723A" stroke-width="1.1751"/>
<path d="M67.4 18.7002C67.6 23.5002 67.9 27.2002 68.1 29.8002C68.3 32.4002 68.9 36.5002 69.6 42.1002C70.3 36.5002 70.8 32.4002 71 29.8002C71.2 27.2002 71.4 23.5002 71.6 18.7002" fill="#A8823C"/>
<path d="M67.4 18.7002C67.6 23.5002 67.9 27.2002 68.1 29.8002C68.3 32.4002 68.9 36.5002 69.6 42.1002C70.3 36.5002 70.8 32.4002 71 29.8002C71.2 27.2002 71.4 23.5002 71.6 18.7002" stroke="#90723A" stroke-width="1.1751"/>
<path d="M7 1H85C88.3 1 91 3.7 91 7V85C91 88.3 88.3 91 85 91H7C3.7 91 1 88.3 1 85V7C1 3.7 3.7 1 7 1Z" stroke="#A8823C" stroke-width="2" stroke-miterlimit="10"/>
<path d="M7.5 1.5H84.5C87.8 1.5 90.5 4.2 90.5 7.5V84.5C90.5 87.8 87.8 90.5 84.5 90.5H7.5C4.2 90.5 1.5 87.8 1.5 84.5V7.5C1.5 4.2 4.2 1.5 7.5 1.5Z" stroke="#A8823C" stroke-width="2"/>
</g>
</svg>
