<svg width="94" height="94" viewBox="0 0 94 94" fill="none" xmlns="http://www.w3.org/2000/svg">
<path fill-rule="evenodd" clip-rule="evenodd" d="M9 19.1992H85V76.8992H9V19.1992Z" fill="#A8823C" stroke="#90723A"/>
<path fill-rule="evenodd" clip-rule="evenodd" d="M24.1 35.5996C20.2 43.0996 18.2 48.5996 18.2 51.8996V76.7996H30V51.8996C30 48.8996 28 43.4996 24.1 35.5996Z" fill="#A8823C" stroke="#90723A"/>
<path fill-rule="evenodd" clip-rule="evenodd" d="M18.2 17.6996V33.4996L21.9 40.1996H26.3L30 33.4996V17.6996C28 17.2996 26.1 17.0996 24.1 17.0996C22.1 17.1996 20.1 17.3996 18.2 17.6996Z" fill="#A8823C" stroke="#90723A"/>
<path fill-rule="evenodd" clip-rule="evenodd" d="M47.6 35.5996C43.7 43.0996 41.7 48.5996 41.7 51.8996V76.7996H53.6V51.8996C53.6 48.8996 51.6 43.4996 47.6 35.5996Z" fill="#A8823C" stroke="#90723A"/>
<path fill-rule="evenodd" clip-rule="evenodd" d="M41.7 17.6996V33.4996L45.4 40.1996H49.8L53.5 33.4996V17.6996C51.5 17.2996 49.6 17.0996 47.6 17.0996C45.7 17.1996 43.7 17.3996 41.7 17.6996Z" fill="#A8823C" stroke="#90723A"/>
<path fill-rule="evenodd" clip-rule="evenodd" d="M71.2 35.5996C67.3 43.0996 65.3 48.5996 65.3 51.8996V76.7996H77.2V51.8996C77.1 48.8996 75.2 43.4996 71.2 35.5996Z" fill="#A8823C" stroke="#90723A"/>
<path fill-rule="evenodd" clip-rule="evenodd" d="M65.3 17.6996V33.4996L69 40.1996H73.4L77.1 33.4996V17.6996C75.1 17.2996 73.2 17.0996 71.2 17.0996C69.2 17.1996 67.3 17.3996 65.3 17.6996Z" fill="#A8823C" stroke="#90723A"/>
<path d="M21.9 64.3998C22.1 59.1998 22.3 55.1998 22.5 52.5998C22.8 49.9998 23.3 45.9998 24 40.7998C24.7 45.9998 25.1 49.9998 25.3 52.5998C25.5 55.1998 25.7 59.1998 25.8 64.3998M45.5 64.3998C45.7 59.1998 45.9 55.1998 46.1 52.5998C46.3 49.9998 46.8 46.0998 47.5 40.7998C48.2 45.9998 48.6 49.9998 48.8 52.5998C49 55.1998 49.2 59.1998 49.3 64.3998M69.1 64.3998C69.3 59.1998 69.5 55.1998 69.7 52.5998C69.9 49.9998 70.4 46.0998 71.1 40.7998C71.8 45.9998 72.2 49.9998 72.4 52.5998C72.6 55.1998 72.8 59.1998 72.9 64.3998" stroke="#90723A" stroke-linecap="round" stroke-linejoin="bevel"/>
<path d="M21.5 33.3994C21.8 34.8994 22.1 35.8994 22.4 36.6994C22.7 37.3994 23.3 38.4994 24.3 39.9994C25.2 38.4994 25.8 37.4994 26.1 36.6994C26.4 35.9994 26.6 34.8994 26.8 33.3994M45 33.3994C45.3 34.8994 45.6 35.8994 45.9 36.6994C46.2 37.3994 46.8 38.4994 47.8 39.9994C48.7 38.4994 49.3 37.4994 49.6 36.6994C49.9 35.9994 50.1 34.8994 50.3 33.3994M68.6 33.3994C68.9 34.8994 69.2 35.8994 69.5 36.6994C69.8 37.3994 70.4 38.4994 71.4 39.9994C72.3 38.4994 72.9 37.4994 73.2 36.6994C73.5 35.9994 73.7 34.8994 73.9 33.3994" stroke="#90723A" stroke-linecap="round" stroke-linejoin="bevel"/>
<path d="M8.5 2.5H85.5C88.8 2.5 91.5 5.2 91.5 8.5V85.5C91.5 88.8 88.8 91.5 85.5 91.5H8.5C5.2 91.5 2.5 88.8 2.5 85.5V8.5C2.5 5.2 5.2 2.5 8.5 2.5Z" stroke="#A8823C" stroke-width="5"/>
</svg>
