<svg viewBox="0 0 24 24" fill="none" xmlns="http://www.w3.org/2000/svg"><path d="M21.99 21.027c.026.249.002.502-.071.74a1.8 1.8 0 0 1-.354.646 1.703 1.703 0 0 1-.577.436c-.22.102-.458.153-.697.15H3.709a1.606 1.606 0 0 1-.697-.15 1.704 1.704 0 0 1-.577-.436 1.8 1.8 0 0 1-.354-.646 1.856 1.856 0 0 1-.07-.74L3.506 7h16.988l1.495 14.027ZM7 7V4.75c0-.995.527-1.948 1.464-2.652C9.402 1.395 10.674 1 12 1s2.598.395 3.536 1.098C16.473 2.802 17 3.755 17 4.75V7" stroke="#232323" stroke-width="1.71" stroke-linecap="round" stroke-linejoin="round"/></svg>