<svg width="92" height="92" viewBox="0 0 92 92" fill="none" xmlns="http://www.w3.org/2000/svg">
<g opacity="0.5">
<path fill-rule="evenodd" clip-rule="evenodd" d="M10 21.5H82V77H10V21.5Z" fill="#A8823C" stroke="#90723A" stroke-width="1.1797"/>
<path fill-rule="evenodd" clip-rule="evenodd" d="M10 21.4V77H29.9V21.4C27.9 19.8 24.6 19 20 19C15.3 19 12 19.8 10 21.4ZM62.1 21.4V77H82V21.4C80 19.8 76.7 19 72 19C67.4 19 64.1 19.8 62.1 21.4ZM36 21.4V77H56V21.4C53.9 19.8 50.6 19 46 19C41.4 19 38.1 19.8 36 21.4Z" fill="#A8823C" stroke="#90723A" stroke-width="1.1797"/>
<path d="M26.2 39.8C27.2493 39.8 28.1 36.7108 28.1 32.9C28.1 29.0892 27.2493 26 26.2 26C25.1506 26 24.3 29.0892 24.3 32.9C24.3 36.7108 25.1506 39.8 26.2 39.8Z" fill="#A8823C" stroke="#90723A" stroke-width="1.4747"/>
<path d="M52.2 39.8C53.2493 39.8 54.1 36.7108 54.1 32.9C54.1 29.0892 53.2493 26 52.2 26C51.1506 26 50.3 29.0892 50.3 32.9C50.3 36.7108 51.1506 39.8 52.2 39.8Z" fill="#A8823C" stroke="#90723A" stroke-width="1.4747"/>
<path d="M39.8 39.8C40.8494 39.8 41.7 36.7108 41.7 32.9C41.7 29.0892 40.8494 26 39.8 26C38.7507 26 37.9 29.0892 37.9 32.9C37.9 36.7108 38.7507 39.8 39.8 39.8Z" fill="#A8823C" stroke="#90723A" stroke-width="1.4747"/>
<path d="M65.8 39.8C66.8494 39.8 67.7 36.7108 67.7 32.9C67.7 29.0892 66.8494 26 65.8 26C64.7507 26 63.9 29.0892 63.9 32.9C63.9 36.7108 64.7507 39.8 65.8 39.8Z" fill="#A8823C" stroke="#90723A" stroke-width="1.4747"/>
<path d="M7.5 1.5H84.5C87.8 1.5 90.5 4.2 90.5 7.5V84.5C90.5 87.8 87.8 90.5 84.5 90.5H7.5C4.2 90.5 1.5 87.8 1.5 84.5V7.5C1.5 4.2 4.2 1.5 7.5 1.5Z" stroke="#A8823C" stroke-width="2"/>
</g>
</svg>
