<svg width="92" height="92" viewBox="0 0 92 92" fill="none" xmlns="http://www.w3.org/2000/svg">
<g opacity="0.5">
<path fill-rule="evenodd" clip-rule="evenodd" d="M8 18.1992H84V75.8992H8V18.1992Z" fill="#A8823C" stroke="#90723A"/>
<path fill-rule="evenodd" clip-rule="evenodd" d="M23.1 34.5996C19.2 42.0996 17.2 47.5996 17.2 50.8996V75.7996H29V50.8996C29 47.8996 27 42.4996 23.1 34.5996Z" fill="#A8823C" stroke="#90723A"/>
<path fill-rule="evenodd" clip-rule="evenodd" d="M17.2 16.6996V32.4996L20.9 39.1996H25.3L29 32.4996V16.6996C27 16.2996 25.1 16.0996 23.1 16.0996C21.1 16.1996 19.1 16.3996 17.2 16.6996Z" fill="#A8823C" stroke="#90723A"/>
<path fill-rule="evenodd" clip-rule="evenodd" d="M46.6 34.5996C42.7 42.0996 40.7 47.5996 40.7 50.8996V75.7996H52.6V50.8996C52.6 47.8996 50.6 42.4996 46.6 34.5996Z" fill="#A8823C" stroke="#90723A"/>
<path fill-rule="evenodd" clip-rule="evenodd" d="M40.7 16.6996V32.4996L44.4 39.1996H48.8L52.5 32.4996V16.6996C50.5 16.2996 48.6 16.0996 46.6 16.0996C44.7 16.1996 42.7 16.3996 40.7 16.6996Z" fill="#A8823C" stroke="#90723A"/>
<path fill-rule="evenodd" clip-rule="evenodd" d="M70.2 34.5996C66.3 42.0996 64.3 47.5996 64.3 50.8996V75.7996H76.2V50.8996C76.1 47.8996 74.2 42.4996 70.2 34.5996Z" fill="#A8823C" stroke="#90723A"/>
<path fill-rule="evenodd" clip-rule="evenodd" d="M64.3 16.6996V32.4996L68 39.1996H72.4L76.1 32.4996V16.6996C74.1 16.2996 72.2 16.0996 70.2 16.0996C68.2 16.1996 66.3 16.3996 64.3 16.6996Z" fill="#A8823C" stroke="#90723A"/>
<path d="M20.9 63.3998C21.1 58.1998 21.3 54.1998 21.5 51.5998C21.8 48.9998 22.3 44.9998 23 39.7998C23.7 44.9998 24.1 48.9998 24.3 51.5998C24.5 54.1998 24.7 58.1998 24.8 63.3998M44.5 63.3998C44.7 58.1998 44.9 54.1998 45.1 51.5998C45.3 48.9998 45.8 45.0998 46.5 39.7998C47.2 44.9998 47.6 48.9998 47.8 51.5998C48 54.1998 48.2 58.1998 48.3 63.3998M68.1 63.3998C68.3 58.1998 68.5 54.1998 68.7 51.5998C68.9 48.9998 69.4 45.0998 70.1 39.7998C70.8 44.9998 71.2 48.9998 71.4 51.5998C71.6 54.1998 71.8 58.1998 71.9 63.3998" stroke="#90723A" stroke-linecap="round" stroke-linejoin="bevel"/>
<path d="M20.5 32.3994C20.8 33.8994 21.1 34.8994 21.4 35.6994C21.7 36.3994 22.3 37.4994 23.3 38.9994C24.2 37.4994 24.8 36.4994 25.1 35.6994C25.4 34.9994 25.6 33.8994 25.8 32.3994M44 32.3994C44.3 33.8994 44.6 34.8994 44.9 35.6994C45.2 36.3994 45.8 37.4994 46.8 38.9994C47.7 37.4994 48.3 36.4994 48.6 35.6994C48.9 34.9994 49.1 33.8994 49.3 32.3994M67.6 32.3994C67.9 33.8994 68.2 34.8994 68.5 35.6994C68.8 36.3994 69.4 37.4994 70.4 38.9994C71.3 37.4994 71.9 36.4994 72.2 35.6994C72.5 34.9994 72.7 33.8994 72.9 32.3994" stroke="#90723A" stroke-linecap="round" stroke-linejoin="bevel"/>
<path d="M7.5 1.5H84.5C87.8 1.5 90.5 4.2 90.5 7.5V84.5C90.5 87.8 87.8 90.5 84.5 90.5H7.5C4.2 90.5 1.5 87.8 1.5 84.5V7.5C1.5 4.2 4.2 1.5 7.5 1.5Z" stroke="#A8823C" stroke-width="2"/>
</g>
</svg>
