<svg width="94" height="94" viewBox="0 0 94 94" fill="none" xmlns="http://www.w3.org/2000/svg">
<path fill-rule="evenodd" clip-rule="evenodd" d="M11 19.2998H83V75.9998H11V19.2998Z" fill="#A8823C" stroke="#90723A" stroke-width="1.1774"/>
<path fill-rule="evenodd" clip-rule="evenodd" d="M18.3 18.5C18 22.1 18 26.4 18.3 31.3C18.6 36 20.1 40.4 22.8 44.3C25.5 40.4 27 36 27.3 31.3C27.6 26.4 27.6 22.1 27.3 18.5C26.6 18.2 25.8 18 25.1 18C24.4 18 23.7 18.1 23 18.4L22.8 18.5L22.6 18.4C22 18.1 21.3 18 20.6 18C19.8 18 19 18.2 18.3 18.5ZM22.8 45.3L22.4 45V44.9L22.5 44.7H22.8C22.8 44.8 22.8 45.3 22.8 45.3Z" fill="#A8823C" stroke="#90723A" stroke-width="1.1774"/>
<path fill-rule="evenodd" clip-rule="evenodd" d="M22.8 45.0996C19.9 54.1996 18.4 60.7996 18.4 64.8996V75.9996H27.2V64.7996C27.2 61.1996 25.7 54.5996 22.8 45.0996Z" fill="#A8823C" stroke="#90723A" stroke-width="1.1774"/>
<path d="M22.8 18.7002V57.6002" stroke="#90723A" stroke-width="1.4718" stroke-linecap="round" stroke-linejoin="round"/>
<path fill-rule="evenodd" clip-rule="evenodd" d="M43.1 18.5C42.8 22.1 42.8 26.4 43.1 31.3C43.4 36 44.9 40.4 47.6 44.3C50.3 40.4 51.8 36 52.1 31.3C52.4 26.4 52.4 22.1 52.1 18.5C51.4 18.2 50.6 18 49.9 18C49.2 18 48.5 18.1 47.8 18.4L47.6 18.5L47.4 18.4C46.7 18.1 46 18 45.3 18C44.6 18 43.8 18.2 43.1 18.5ZM47.6 45.3L47.2 45V44.9L47.3 44.7H47.6V45.3Z" fill="#A8823C" stroke="#90723A" stroke-width="1.1774"/>
<path fill-rule="evenodd" clip-rule="evenodd" d="M47.6 45.0996C44.7 54.1996 43.2 60.7996 43.2 64.8996V75.9996H52V64.7996C52 61.1996 50.5 54.5996 47.6 45.0996Z" fill="#A8823C" stroke="#90723A" stroke-width="1.1774"/>
<path d="M47.6 18.7002V57.6002" stroke="#90723A" stroke-width="1.4718" stroke-linecap="round" stroke-linejoin="round"/>
<path fill-rule="evenodd" clip-rule="evenodd" d="M66.7 18.5C66.4 22.1 66.4 26.4 66.7 31.3C67 36 68.5 40.4 71.2 44.3C73.9 40.4 75.4 36 75.7 31.3C76 26.4 76 22.1 75.7 18.5C75 18.2 74.2 18 73.4 18C72.7 18 72 18.1 71.3 18.4L71.1 18.5L71 18.4C70.3 18.1 69.7 18 68.9 18C68.1 18 67.4 18.2 66.7 18.5ZM71.2 45.3L70.8 45V44.9L70.9 44.7H71.2C71.2 44.8 71.2 45.3 71.2 45.3Z" fill="#A8823C" stroke="#90723A" stroke-width="1.1774"/>
<path fill-rule="evenodd" clip-rule="evenodd" d="M71.2 45.0996C68.3 54.1996 66.8 60.7996 66.8 64.8996V75.9996H75.6V64.7996C75.6 61.1996 74.1 54.5996 71.2 45.0996Z" fill="#A8823C" stroke="#90723A" stroke-width="1.1774"/>
<path d="M71.2 18.7002V57.6002" stroke="#90723A" stroke-width="1.4718" stroke-linecap="round" stroke-linejoin="round"/>
<path d="M8.5 2.5H85.5C88.8 2.5 91.5 5.2 91.5 8.5V85.5C91.5 88.8 88.8 91.5 85.5 91.5H8.5C5.2 91.5 2.5 88.8 2.5 85.5V8.5C2.5 5.2 5.2 2.5 8.5 2.5Z" stroke="#A8823C" stroke-width="5"/>
</svg>
