<svg width="92" height="92" viewBox="0 0 92 92" fill="none" xmlns="http://www.w3.org/2000/svg">
<g opacity="0.5">
<path d="M7 1H85C88.3 1 91 3.7 91 7V85C91 88.3 88.3 91 85 91H7C3.7 91 1 88.3 1 85V7C1 3.7 3.7 1 7 1Z" stroke="#A8823C" stroke-width="2"/>
<path d="M7.5 1.5H84.5C87.8 1.5 90.5 4.2 90.5 7.5V84.5C90.5 87.8 87.8 90.5 84.5 90.5H7.5C4.2 90.5 1.5 87.8 1.5 84.5V7.5C1.5 4.2 4.2 1.5 7.5 1.5Z" stroke="#A8823C" stroke-width="2"/>
<path fill-rule="evenodd" clip-rule="evenodd" d="M15.4 9.7041H76.6V11.4041H15.4V9.7041Z" fill="#A8823C"/>
<path d="M15.1 11.9041C15.9837 11.9041 16.7 11.1878 16.7 10.3041C16.7 9.42045 15.9837 8.7041 15.1 8.7041C14.2163 8.7041 13.5 9.42045 13.5 10.3041C13.5 11.1878 14.2163 11.9041 15.1 11.9041Z" fill="#A8823C"/>
<path d="M76.5 11.9041C77.3837 11.9041 78.1 11.1878 78.1 10.3041C78.1 9.42045 77.3837 8.7041 76.5 8.7041C75.6164 8.7041 74.9 9.42045 74.9 10.3041C74.9 11.1878 75.6164 11.9041 76.5 11.9041Z" fill="#A8823C"/>
<path fill-rule="evenodd" clip-rule="evenodd" d="M23.1 16.0996H67.1V63.3996H23.1V16.0996Z" stroke="#90723A" stroke-width="1.1751"/>
<path fill-rule="evenodd" clip-rule="evenodd" d="M46 19H64.2V60.3H46V19Z" stroke="#90723A" stroke-width="1.1751"/>
<path d="M46.2 17.5996H65.6V61.7996H46.2V17.5996Z" stroke="#90723A" stroke-width="1.1751"/>
<path d="M46 19H64.2V60.3M46 60.4H64.2" stroke="#90723A" stroke-width="1.1751"/>
<path fill-rule="evenodd" clip-rule="evenodd" d="M26.1 19H44.3V60.3H26.1V19Z" stroke="#90723A" stroke-width="1.1751"/>
<path d="M24.9 17.9004L26.1 19.0004" stroke="#90723A" stroke-width="1.1751"/>
<path d="M44.3 19H26.1V60.3" stroke="#90723A" stroke-width="1.1751"/>
<path d="M26.1 60.4004L24.9 61.6004" stroke="#90723A" stroke-width="1.1751"/>
<path d="M26.1 60.3996H44.3M24.7 17.5996H44.1V61.7996H24.7V17.5996Z" stroke="#90723A" stroke-width="1.1751"/>
<path d="M65.4 17.7998L64.1 18.9998M64.1 60.3998L65.4 61.5998" stroke="#90723A" stroke-width="1.1751"/>
<path fill-rule="evenodd" clip-rule="evenodd" d="M20.1 9H37V83.4H20.1V9Z" fill="#A8823C" stroke="#90723A" stroke-width="1.1751"/>
<path fill-rule="evenodd" clip-rule="evenodd" d="M20.1 8.6V83.5C21 83.8 21.6 83.9 22.1 83.9C22.5 83.9 23.2 83.8 24.1 83.5V8.6C23.7 8.2 23.1 8 22.1 8C21.1 8 20.5 8.2 20.1 8.6ZM33 8.6V83.5C33.9 83.8 34.5 83.9 35 83.9C35.5 83.9 36.1 83.8 37 83.5V8.6C36.6 8.2 36 8 35 8C34 8 33.4 8.2 33 8.6ZM26.5 8.6V83.5C27.4 83.8 28 83.9 28.5 83.9C28.9 83.9 29.6 83.8 30.5 83.5V8.6C30.1 8.2 29.5 8 28.5 8C27.5 8 26.9 8.2 26.5 8.6Z" fill="#A8823C" stroke="#90723A" stroke-width="1.1751"/>
<path fill-rule="evenodd" clip-rule="evenodd" d="M54.2 9H71V83.4H54.2V9Z" fill="#A8823C" stroke="#90723A" stroke-width="1.1751"/>
<path fill-rule="evenodd" clip-rule="evenodd" d="M54.2 8.6V83.5C55.1 83.8 55.7 83.9 56.2 83.9C56.6 83.9 57.3 83.8 58.2 83.5V8.6C57.8 8.2 57.2 8 56.2 8C55.2 8 54.6 8.2 54.2 8.6ZM67.1 8.6V83.5C68 83.8 68.6 83.9 69.1 83.9C69.5 83.9 70.2 83.8 71.1 83.5V8.6C70.7 8.2 70.1 8 69.1 8C68.1 8 67.5 8.2 67.1 8.6ZM60.6 8.6V83.5C61.5 83.8 62.1 83.9 62.6 83.9C63.1 83.9 63.7 83.8 64.6 83.5V8.6C64.2 8.2 63.6 8 62.6 8C61.7 8 61 8.2 60.6 8.6Z" fill="#A8823C" stroke="#90723A" stroke-width="1.1751"/>
</g>
</svg>
