<svg width="92" height="92" viewBox="0 0 92 92" fill="none" xmlns="http://www.w3.org/2000/svg">
<g opacity="0.5">
<path d="M7.5 1.5H84.5C87.8 1.5 90.5 4.2 90.5 7.5V84.5C90.5 87.8 87.8 90.5 84.5 90.5H7.5C4.2 90.5 1.5 87.8 1.5 84.5V7.5C1.5 4.2 4.2 1.5 7.5 1.5Z" stroke="#A8823C" stroke-width="2"/>
<path d="M10 17.5V50.5H14.2V17.5C13.7 17.2 13 17 12.1 17C11.1 17 10.4 17.2 10 17.5ZM41.9 17.5V50.5H46.1V17.5C45.7 17.2 45 17 44 17C43 17 42.4 17.2 41.9 17.5ZM26 17.5V50.5H30.1V17.5C29.7 17.2 29 17 28 17C27.1 17 26.4 17.2 26 17.5ZM57.9 17.5V50.5H62V17.5C61.6 17.2 60.9 17 60 17C59 17 58.3 17.2 57.9 17.5ZM18 17.5V50.5H22.2V17.5C21.7 17.2 21 17 20.1 17C19.1 17 18.4 17.2 18 17.5ZM49.9 17.5V50.5H54.1V17.5C53.6 17.2 52.9 17 52 17C51 17 50.3 17.2 49.9 17.5ZM33.9 17.5V50.5H38.1V17.5C37.7 17.2 37 17 36 17C35.1 17 34.4 17.2 33.9 17.5ZM65.9 17.5V50.5H70V17.5C69.6 17.2 68.9 17 68 17C67.1 17 66.3 17.2 65.9 17.5ZM73.9 17.5V50.5H78V17.5C77.6 17.2 76.9 17 75.9 17C75 17 74.3 17.2 73.9 17.5Z" stroke="#90723A" stroke-width="1.1799"/>
<path fill-rule="evenodd" clip-rule="evenodd" d="M14 17.5V50.5H18.2V17.5C17.7 17.2 17 17 16.1 17C15.1 17 14.4 17.2 14 17.5ZM45.9 17.5V50.5H50.1V17.5C49.6 17.2 49 17 48 17C47 17 46.3 17.2 45.9 17.5ZM30 17.5V50.5H34.2V17.5C33.7 17.2 33 17 32 17C31.1 17 30.4 17.2 30 17.5ZM61.9 17.5V50.5H66V17.5C65.6 17.2 64.9 17 64 17C63.1 17 62.3 17.2 61.9 17.5ZM22 17.5V50.5H26.2V17.5C25.7 17.2 25 17 24 17C23.1 17 22.4 17.2 22 17.5ZM53.9 17.5V50.5H58.1V17.5C57.6 17.2 56.9 17 56 17C55 17 54.3 17.2 53.9 17.5ZM37.9 17.5V50.5H42.1V17.5C41.7 17.2 41 17 40 17C39.1 17 38.4 17.2 37.9 17.5ZM69.9 17.5V50.5H74V17.5C73.6 17.2 72.9 17 71.9 17C71 17 70.3 17.2 69.9 17.5ZM77.8 17.5V50.5H82V17.5C81.6 17.2 80.9 17 79.9 17C79 17 78.3 17.2 77.8 17.5Z" fill="#A8823C" stroke="#90723A" stroke-width="1.1799"/>
<path fill-rule="evenodd" clip-rule="evenodd" d="M10 50.5H82V75H10V50.5Z" fill="#A8823C" stroke="#90723A" stroke-width="1.1799"/>
<path d="M24 50.5V61.4M44 50.5V61.4M58.6 50.5V68.8M71.9 50.5V61.4" stroke="#90723A" stroke-width="1.4749" stroke-linecap="round"/>
<path d="M26.7 50.5V64.7M46.7 50.5V57.6M41.3 50.5V57.6" stroke="#90723A" stroke-width="1.0324" stroke-linecap="round"/>
</g>
</svg>
