<svg width="94" height="94" viewBox="0 0 94 94" fill="none" xmlns="http://www.w3.org/2000/svg">
<path fill-rule="evenodd" clip-rule="evenodd" d="M11 22.5H83V78H11V22.5Z" fill="#A8823C" stroke="#90723A" stroke-width="1.1797"/>
<path fill-rule="evenodd" clip-rule="evenodd" d="M11 22.4V78H30.9V22.4C28.9 20.8 25.6 20 21 20C16.3 20 13 20.8 11 22.4ZM63.1 22.4V78H83V22.4C81 20.8 77.7 20 73 20C68.4 20 65.1 20.8 63.1 22.4ZM37 22.4V78H57V22.4C54.9 20.8 51.6 20 47 20C42.4 20 39.1 20.8 37 22.4Z" fill="#A8823C" stroke="#90723A" stroke-width="1.1797"/>
<path d="M27.2 40.8C28.2493 40.8 29.1 37.7108 29.1 33.9C29.1 30.0892 28.2493 27 27.2 27C26.1506 27 25.3 30.0892 25.3 33.9C25.3 37.7108 26.1506 40.8 27.2 40.8Z" fill="#A8823C" stroke="#90723A" stroke-width="1.4747"/>
<path d="M53.2 40.8C54.2493 40.8 55.1 37.7108 55.1 33.9C55.1 30.0892 54.2493 27 53.2 27C52.1506 27 51.3 30.0892 51.3 33.9C51.3 37.7108 52.1506 40.8 53.2 40.8Z" fill="#A8823C" stroke="#90723A" stroke-width="1.4747"/>
<path d="M40.8 40.8C41.8493 40.8 42.7 37.7108 42.7 33.9C42.7 30.0892 41.8493 27 40.8 27C39.7507 27 38.9 30.0892 38.9 33.9C38.9 37.7108 39.7507 40.8 40.8 40.8Z" fill="#A8823C" stroke="#90723A" stroke-width="1.4747"/>
<path d="M66.8 40.8C67.8493 40.8 68.7 37.7108 68.7 33.9C68.7 30.0892 67.8493 27 66.8 27C65.7507 27 64.9 30.0892 64.9 33.9C64.9 37.7108 65.7507 40.8 66.8 40.8Z" fill="#A8823C" stroke="#90723A" stroke-width="1.4747"/>
<path d="M8.5 2.5H85.5C88.8 2.5 91.5 5.2 91.5 8.5V85.5C91.5 88.8 88.8 91.5 85.5 91.5H8.5C5.2 91.5 2.5 88.8 2.5 85.5V8.5C2.5 5.2 5.2 2.5 8.5 2.5Z" stroke="#A8823C" stroke-width="5"/>
</svg>
