<svg width="96" height="96" viewBox="0 0 96 96" fill="none" xmlns="http://www.w3.org/2000/svg">
<path d="M9 3H87C90.3 3 93 5.7 93 9V87C93 90.3 90.3 93 87 93H9C5.7 93 3 90.3 3 87V9C3 5.7 5.7 3 9 3Z" stroke="#A8823C" stroke-width="5"/>
<path d="M9.5 3.5H86.5C89.8 3.5 92.5 6.2 92.5 9.5V86.5C92.5 89.8 89.8 92.5 86.5 92.5H9.5C6.2 92.5 3.5 89.8 3.5 86.5V9.5C3.5 6.2 6.2 3.5 9.5 3.5Z" stroke="#A8823C" stroke-width="5"/>
<path fill-rule="evenodd" clip-rule="evenodd" d="M17.4 11.7041H78.6V13.4041H17.4V11.7041Z" fill="#A8823C"/>
<path d="M17.1 13.9041C17.9837 13.9041 18.7 13.1878 18.7 12.3041C18.7 11.4204 17.9837 10.7041 17.1 10.7041C16.2163 10.7041 15.5 11.4204 15.5 12.3041C15.5 13.1878 16.2163 13.9041 17.1 13.9041Z" fill="#A8823C"/>
<path d="M78.5 13.9041C79.3836 13.9041 80.1 13.1878 80.1 12.3041C80.1 11.4204 79.3836 10.7041 78.5 10.7041C77.6163 10.7041 76.9 11.4204 76.9 12.3041C76.9 13.1878 77.6163 13.9041 78.5 13.9041Z" fill="#A8823C"/>
<path fill-rule="evenodd" clip-rule="evenodd" d="M25.1 18.0996H69.1V65.3996H25.1V18.0996Z" stroke="#90723A" stroke-width="1.1751"/>
<path fill-rule="evenodd" clip-rule="evenodd" d="M48 21H66.2V62.3H48V21Z" stroke="#90723A" stroke-width="1.1751"/>
<path d="M48.2 19.5996H67.6V63.7996H48.2V19.5996Z" stroke="#90723A" stroke-width="1.1751"/>
<path d="M48 21H66.2V62.3M48 62.4H66.2" stroke="#90723A" stroke-width="1.1751"/>
<path fill-rule="evenodd" clip-rule="evenodd" d="M28.1 21H46.3V62.3H28.1V21Z" stroke="#90723A" stroke-width="1.1751"/>
<path d="M26.9 19.9004L28.1 21.0004" stroke="#90723A" stroke-width="1.1751"/>
<path d="M46.3 21H28.1V62.3" stroke="#90723A" stroke-width="1.1751"/>
<path d="M28.1 62.4004L26.9 63.6004" stroke="#90723A" stroke-width="1.1751"/>
<path d="M28.1 62.3996H46.3M26.7 19.5996H46.1V63.7996H26.7V19.5996Z" stroke="#90723A" stroke-width="1.1751"/>
<path d="M67.4 19.7998L66.1 20.9998M66.1 62.3998L67.4 63.5998" stroke="#90723A" stroke-width="1.1751"/>
<path fill-rule="evenodd" clip-rule="evenodd" d="M22.1 11H39V85.4H22.1V11Z" fill="#A8823C" stroke="#90723A" stroke-width="1.1751"/>
<path fill-rule="evenodd" clip-rule="evenodd" d="M22.1 10.6V85.5C23 85.8 23.6 85.9 24.1 85.9C24.5 85.9 25.2 85.8 26.1 85.5V10.6C25.7 10.2 25.1 10 24.1 10C23.1 10 22.5 10.2 22.1 10.6ZM35 10.6V85.5C35.9 85.8 36.5 85.9 37 85.9C37.5 85.9 38.1 85.8 39 85.5V10.6C38.6 10.2 38 10 37 10C36 10 35.4 10.2 35 10.6ZM28.5 10.6V85.5C29.4 85.8 30 85.9 30.5 85.9C30.9 85.9 31.6 85.8 32.5 85.5V10.6C32.1 10.2 31.5 10 30.5 10C29.5 10 28.9 10.2 28.5 10.6Z" fill="#A8823C" stroke="#90723A" stroke-width="1.1751"/>
<path fill-rule="evenodd" clip-rule="evenodd" d="M56.2 11H73V85.4H56.2V11Z" fill="#A8823C" stroke="#90723A" stroke-width="1.1751"/>
<path fill-rule="evenodd" clip-rule="evenodd" d="M56.2 10.6V85.5C57.1 85.8 57.7 85.9 58.2 85.9C58.6 85.9 59.3 85.8 60.2 85.5V10.6C59.8 10.2 59.2 10 58.2 10C57.2 10 56.6 10.2 56.2 10.6ZM69.1 10.6V85.5C70 85.8 70.6 85.9 71.1 85.9C71.5 85.9 72.2 85.8 73.1 85.5V10.6C72.7 10.2 72.1 10 71.1 10C70.1 10 69.5 10.2 69.1 10.6ZM62.6 10.6V85.5C63.5 85.8 64.1 85.9 64.6 85.9C65.1 85.9 65.7 85.8 66.6 85.5V10.6C66.2 10.2 65.6 10 64.6 10C63.7 10 63 10.2 62.6 10.6Z" fill="#A8823C" stroke="#90723A" stroke-width="1.1751"/>
</svg>
