<svg width="94" height="94" viewBox="0 0 94 94" fill="none" xmlns="http://www.w3.org/2000/svg">
<path d="M8.5 2.5H85.5C88.8 2.5 91.5 5.2 91.5 8.5V85.5C91.5 88.8 88.8 91.5 85.5 91.5H8.5C5.2 91.5 2.5 88.8 2.5 85.5V8.5C2.5 5.2 5.2 2.5 8.5 2.5Z" stroke="#A8823C" stroke-width="5"/>
<path d="M11 18.5V51.5H15.2V18.5C14.7 18.2 14 18 13.1 18C12.1 18 11.4 18.2 11 18.5ZM42.9 18.5V51.5H47.1V18.5C46.7 18.2 46 18 45 18C44 18 43.4 18.2 42.9 18.5ZM27 18.5V51.5H31.1V18.5C30.7 18.2 30 18 29 18C28.1 18 27.4 18.2 27 18.5ZM58.9 18.5V51.5H63V18.5C62.6 18.2 61.9 18 61 18C60 18 59.3 18.2 58.9 18.5ZM19 18.5V51.5H23.2V18.5C22.7 18.2 22 18 21.1 18C20.1 18 19.4 18.2 19 18.5ZM50.9 18.5V51.5H55.1V18.5C54.6 18.2 53.9 18 53 18C52 18 51.3 18.2 50.9 18.5ZM34.9 18.5V51.5H39.1V18.5C38.7 18.2 38 18 37 18C36.1 18 35.4 18.2 34.9 18.5ZM66.9 18.5V51.5H71V18.5C70.6 18.2 69.9 18 69 18C68.1 18 67.3 18.2 66.9 18.5ZM74.9 18.5V51.5H79V18.5C78.6 18.2 77.9 18 76.9 18C76 18 75.3 18.2 74.9 18.5Z" stroke="#90723A" stroke-width="1.1799"/>
<path fill-rule="evenodd" clip-rule="evenodd" d="M15 18.5V51.5H19.2V18.5C18.7 18.2 18 18 17.1 18C16.1 18 15.4 18.2 15 18.5ZM46.9 18.5V51.5H51.1V18.5C50.6 18.2 50 18 49 18C48 18 47.3 18.2 46.9 18.5ZM31 18.5V51.5H35.2V18.5C34.7 18.2 34 18 33 18C32.1 18 31.4 18.2 31 18.5ZM62.9 18.5V51.5H67V18.5C66.6 18.2 65.9 18 65 18C64.1 18 63.3 18.2 62.9 18.5ZM23 18.5V51.5H27.2V18.5C26.7 18.2 26 18 25 18C24.1 18 23.4 18.2 23 18.5ZM54.9 18.5V51.5H59.1V18.5C58.6 18.2 57.9 18 57 18C56 18 55.3 18.2 54.9 18.5ZM38.9 18.5V51.5H43.1V18.5C42.7 18.2 42 18 41 18C40.1 18 39.4 18.2 38.9 18.5ZM70.9 18.5V51.5H75V18.5C74.6 18.2 73.9 18 72.9 18C72 18 71.3 18.2 70.9 18.5ZM78.8 18.5V51.5H83V18.5C82.6 18.2 81.9 18 80.9 18C80 18 79.3 18.2 78.8 18.5Z" fill="#A8823C" stroke="#90723A" stroke-width="1.1799"/>
<path fill-rule="evenodd" clip-rule="evenodd" d="M11 51.5H83V76H11V51.5Z" fill="#A8823C" stroke="#90723A" stroke-width="1.1799"/>
<path d="M25 51.5V62.4M45 51.5V62.4M59.6 51.5V69.8M72.9 51.5V62.4" stroke="#90723A" stroke-width="1.4749" stroke-linecap="round"/>
<path d="M27.7 51.5V65.7M47.7 51.5V58.6M42.3 51.5V58.6" stroke="#90723A" stroke-width="1.0324" stroke-linecap="round"/>
</svg>
