<svg width="96" height="96" viewBox="0 0 96 96" fill="none" xmlns="http://www.w3.org/2000/svg">
<path fill-rule="evenodd" clip-rule="evenodd" d="M12 21.9004H84V77.0004H12V21.9004Z" fill="#A8823C" stroke="#90723A" stroke-width="1.1751"/>
<path fill-rule="evenodd" clip-rule="evenodd" d="M25.1 46.4004C21.9 55.3004 20.3 61.7004 20.3 65.7004V76.5004H29.8V65.7004C29.8 62.2004 28.2 55.7004 25.1 46.4004Z" fill="#A8823C" stroke="#90723A" stroke-width="1.1751"/>
<path d="M23.6 65.2C23.7 61.6 23.9 58.9 24.1 57.1C24.3 55.3 24.6 52.6 25.2 49C25.7 52.6 26 55.3 26.2 57.1C26.4 58.9 26.5 61.6 26.6 65.2" fill="#A8823C"/>
<path d="M23.6 65.2C23.7 61.6 23.9 58.9 24.1 57.1C24.3 55.3 24.6 52.6 25.2 49C25.7 52.6 26 55.3 26.2 57.1C26.4 58.9 26.5 61.6 26.6 65.2" stroke="#90723A" stroke-width="1.1751"/>
<path fill-rule="evenodd" clip-rule="evenodd" d="M19.5 20C19.2 23.2 19.2 27.2 19.5 32C19.8 36.7 21.6 41.2 24.9 45.4L25.1 45.7L25.3 45.5C28.6 41.5 30.4 37.1 30.7 32.4C31 27.5 31.1 23.4 30.9 20C29.8 19.4 28.8 19.3 27.9 19.5L27.3 19.6L27.1 19.5C26.5 19.2 25.8 19 25.1 19C24.5 19 23.9 19.1 23.3 19.4L23 19.5C22.7 19.5 22.5 19.5 22.2 19.5C21.4 19.5 20.5 19.6 19.5 20ZM25.2 45.7L25.3 45.9V46.3L24.9 46L25.1 45.8L25.2 45.7Z" fill="#A8823C" stroke="#90723A" stroke-width="1.1751"/>
<path d="M22.9 20.7002C23.1 25.5002 23.4 29.2002 23.6 31.8002C23.9 34.4002 24.4 38.5002 25.1 44.1002C25.8 38.5002 26.3 34.4002 26.5 31.8002C26.7 29.2002 26.9 25.5002 27.1 20.7002" fill="#A8823C"/>
<path d="M22.9 20.7002C23.1 25.5002 23.4 29.2002 23.6 31.8002C23.9 34.4002 24.4 38.5002 25.1 44.1002C25.8 38.5002 26.3 34.4002 26.5 31.8002C26.7 29.2002 26.9 25.5002 27.1 20.7002" stroke="#90723A" stroke-width="1.1751"/>
<path fill-rule="evenodd" clip-rule="evenodd" d="M48.1 46.4004C44.9 55.3004 43.3 61.7004 43.3 65.7004V76.5004H52.8V65.7004C52.9 62.2004 51.3 55.7004 48.1 46.4004Z" fill="#A8823C" stroke="#90723A" stroke-width="1.1751"/>
<path d="M46.7 65.2C46.8 61.6 47 58.9 47.2 57.1C47.4 55.3 47.7 52.6 48.3 49C48.8 52.6 49.1 55.3 49.3 57.1C49.5 58.9 49.6 61.6 49.7 65.2" fill="#A8823C"/>
<path d="M46.7 65.2C46.8 61.6 47 58.9 47.2 57.1C47.4 55.3 47.7 52.6 48.3 49C48.8 52.6 49.1 55.3 49.3 57.1C49.5 58.9 49.6 61.6 49.7 65.2" stroke="#90723A" stroke-width="1.1751"/>
<path fill-rule="evenodd" clip-rule="evenodd" d="M42.6 20C42.3 23.2 42.3 27.2 42.6 32C42.9 36.7 44.7 41.2 48 45.4L48.2 45.7L48.4 45.5C51.7 41.5 53.5 37.1 53.8 32.4C54.1 27.5 54.2 23.4 54 20C52.9 19.4 51.9 19.3 51 19.5L50.4 19.6L50.2 19.5C49.6 19.2 48.9 19 48.2 19C47.6 19 47 19.1 46.4 19.4L46.1 19.5C45.8 19.5 45.6 19.5 45.3 19.5C44.4 19.5 43.5 19.6 42.6 20ZM48.3 45.7L48.4 45.9V46.3L48 46L48.3 45.7Z" fill="#A8823C" stroke="#90723A" stroke-width="1.1751"/>
<path d="M46 20.7002C46.2 25.5002 46.5 29.2002 46.7 31.8002C46.9 34.4002 47.5 38.5002 48.2 44.1002C48.9 38.5002 49.4 34.4002 49.6 31.8002C49.8 29.2002 50 25.5002 50.2 20.7002" fill="#A8823C"/>
<path d="M46 20.7002C46.2 25.5002 46.5 29.2002 46.7 31.8002C46.9 34.4002 47.5 38.5002 48.2 44.1002C48.9 38.5002 49.4 34.4002 49.6 31.8002C49.8 29.2002 50 25.5002 50.2 20.7002" stroke="#90723A" stroke-width="1.1751"/>
<path fill-rule="evenodd" clip-rule="evenodd" d="M71.5 46.4004C68.3 55.3004 66.7 61.7004 66.7 65.7004V76.5004H76.2V65.7004C76.3 62.2004 74.7 55.7004 71.5 46.4004Z" fill="#A8823C" stroke="#90723A" stroke-width="1.1751"/>
<path d="M70.1 65.2C70.2 61.6 70.4 58.9 70.6 57.1C70.8 55.3 71.1 52.6 71.7 49C72.2 52.6 72.5 55.3 72.7 57.1C72.9 58.9 73 61.6 73.1 65.2" fill="#A8823C"/>
<path d="M70.1 65.2C70.2 61.6 70.4 58.9 70.6 57.1C70.8 55.3 71.1 52.6 71.7 49C72.2 52.6 72.5 55.3 72.7 57.1C72.9 58.9 73 61.6 73.1 65.2" stroke="#90723A" stroke-width="1.1751"/>
<path fill-rule="evenodd" clip-rule="evenodd" d="M66 20C65.7 23.2 65.7 27.2 66 32C66.3 36.7 68.1 41.2 71.4 45.4L71.6 45.7L71.8 45.5C75.1 41.5 76.9 37.1 77.2 32.4C77.5 27.5 77.6 23.4 77.4 20C76.3 19.4 75.3 19.3 74.4 19.5L73.8 19.6L73.6 19.5C73 19.2 72.3 19 71.6 19C71 19 70.4 19.1 69.8 19.4L69.5 19.5C69.2 19.5 69 19.5 68.7 19.5C67.9 19.5 67 19.6 66 20ZM71.7 45.7L71.8 45.9V46.3L71.4 46L71.7 45.7Z" fill="#A8823C" stroke="#90723A" stroke-width="1.1751"/>
<path d="M69.4 20.7002C69.6 25.5002 69.9 29.2002 70.1 31.8002C70.3 34.4002 70.9 38.5002 71.6 44.1002C72.3 38.5002 72.8 34.4002 73 31.8002C73.2 29.2002 73.4 25.5002 73.6 20.7002" fill="#A8823C"/>
<path d="M69.4 20.7002C69.6 25.5002 69.9 29.2002 70.1 31.8002C70.3 34.4002 70.9 38.5002 71.6 44.1002C72.3 38.5002 72.8 34.4002 73 31.8002C73.2 29.2002 73.4 25.5002 73.6 20.7002" stroke="#90723A" stroke-width="1.1751"/>
<path d="M9 3H87C90.3 3 93 5.7 93 9V87C93 90.3 90.3 93 87 93H9C5.7 93 3 90.3 3 87V9C3 5.7 5.7 3 9 3Z" stroke="#A8823C" stroke-width="5" stroke-miterlimit="10"/>
<path d="M9.5 3.5H86.5C89.8 3.5 92.5 6.2 92.5 9.5V86.5C92.5 89.8 89.8 92.5 86.5 92.5H9.5C6.2 92.5 3.5 89.8 3.5 86.5V9.5C3.5 6.2 6.2 3.5 9.5 3.5Z" stroke="#A8823C" stroke-width="5"/>
</svg>
