<svg width="107" height="107" viewBox="0 0 107 107" fill="none" xmlns="http://www.w3.org/2000/svg">
<rect x="1" y="1" width="104.598" height="104.598" rx="5" fill="white" stroke="#b8cb81" stroke-width="2"/>
<rect x="24.4" y="21.7197" width="58.4214" height="44.3689" fill="#D8D8D8" stroke="#818387" stroke-width="0.8" stroke-linejoin="round"/>
<path d="M41.3663 20.5114V66.0885H31.5064V20.5114C31.5665 20.4849 31.6377 20.4541 31.7192 20.4199C32.0026 20.3011 32.4086 20.1421 32.8961 19.9831C33.8757 19.6635 35.1631 19.3508 36.4364 19.3508C37.7096 19.3508 38.997 19.6635 39.9766 19.9831C40.4641 20.1421 40.8702 20.3011 41.1536 20.4199C41.235 20.4541 41.3063 20.4849 41.3663 20.5114Z" fill="#D8D8D8" stroke="#818387" stroke-width="0.8" stroke-linejoin="round"/>
<path d="M31.6987 40.8627H41.0216" stroke="#979797" stroke-opacity="0.454545" stroke-width="0.4" stroke-linecap="square"/>
<path d="M59.1329 20.5114V66.0885H49.273V20.5114C49.3331 20.4849 49.4043 20.4541 49.4858 20.4199C49.7692 20.3011 50.1752 20.1421 50.6627 19.9831C51.6423 19.6635 52.9297 19.3508 54.203 19.3508C55.4762 19.3508 56.7636 19.6635 57.7432 19.9831C58.2307 20.1421 58.6368 20.3011 58.9201 20.4199C59.0016 20.4541 59.0729 20.4849 59.1329 20.5114Z" fill="#D8D8D8" stroke="#818387" stroke-width="0.8" stroke-linejoin="round"/>
<path d="M49.4653 40.8627H58.7882" stroke="#979797" stroke-opacity="0.454545" stroke-width="0.4" stroke-linecap="square"/>
<path d="M76.8995 20.5114V66.0885H67.0396V20.5114C67.0997 20.4849 67.1709 20.4541 67.2524 20.4199C67.5358 20.3011 67.9418 20.1421 68.4293 19.9831C69.4089 19.6635 70.6963 19.3508 71.9696 19.3508C73.2429 19.3508 74.5302 19.6635 75.5099 19.9831C75.9973 20.1421 76.4034 20.3011 76.6868 20.4199C76.7682 20.4541 76.8395 20.4849 76.8995 20.5114Z" fill="#D8D8D8" stroke="#818387" stroke-width="0.8" stroke-linejoin="round"/>
<path d="M67.2319 40.8627H76.5548" stroke="#979797" stroke-opacity="0.454545" stroke-width="0.4" stroke-linecap="square"/>
</svg>
