<svg width="107" height="107" viewBox="0 0 107 107" fill="none" xmlns="http://www.w3.org/2000/svg">
<rect x="1" y="1" width="104.598" height="104.598" rx="5" fill="white" stroke="#2553A8" stroke-width="2"/>
<rect x="23.4" y="21.4469" width="59.2" height="44.153" fill="#D8D8D8" stroke="#818387" stroke-width="0.8" stroke-linejoin="round"/>
<path d="M40.6671 20.5489V65.6H30.6266V20.5489C30.6877 20.5226 30.7603 20.4921 30.8434 20.4582C31.1318 20.3406 31.5451 20.1833 32.0413 20.0259C33.0382 19.7097 34.3493 19.4 35.6468 19.4C36.9443 19.4 38.2554 19.7097 39.2523 20.0259C39.7485 20.1833 40.1618 20.3406 40.4503 20.4582C40.5333 20.4921 40.6059 20.5226 40.6671 20.5489Z" fill="#D8D8D8" stroke="#818387" stroke-width="0.8" stroke-linejoin="round"/>
<path d="M30.8288 40.6641H40.3098" stroke="#979797" stroke-opacity="0.454545" stroke-width="0.4" stroke-linecap="square"/>
<path d="M58.7354 20.5489V65.6H48.6949V20.5489C48.7561 20.5226 48.8287 20.4921 48.9118 20.4582C49.2002 20.3406 49.6135 20.1833 50.1097 20.0259C51.1066 19.7097 52.4177 19.4 53.7152 19.4C55.0127 19.4 56.3238 19.7097 57.3207 20.0259C57.8169 20.1833 58.2302 20.3406 58.5186 20.4582C58.6017 20.4921 58.6743 20.5226 58.7354 20.5489Z" fill="#D8D8D8" stroke="#818387" stroke-width="0.8" stroke-linejoin="round"/>
<path d="M48.8972 40.6641H58.3781" stroke="#979797" stroke-opacity="0.454545" stroke-width="0.4" stroke-linecap="square"/>
<path d="M76.8028 20.5489V65.6H66.7623V20.5489C66.8235 20.5226 66.8961 20.4921 66.9791 20.4582C67.2676 20.3406 67.6809 20.1833 68.1771 20.0259C69.174 19.7097 70.4851 19.4 71.7826 19.4C73.0801 19.4 74.3912 19.7097 75.3881 20.0259C75.8843 20.1833 76.2976 20.3406 76.586 20.4582C76.6691 20.4921 76.7417 20.5226 76.8028 20.5489Z" fill="#D8D8D8" stroke="#818387" stroke-width="0.8" stroke-linejoin="round"/>
<path d="M66.9646 40.889H76.4455" stroke="#979797" stroke-opacity="0.454545" stroke-width="0.4" stroke-linecap="square"/>
</svg>
