<svg width="107" height="107" viewBox="0 0 107 107" fill="none" xmlns="http://www.w3.org/2000/svg">
<rect x="1" y="1" width="104.598" height="104.598" rx="5" fill="white" stroke="#b8cb81" stroke-width="2"/>
<rect x="24.4" y="21.5648" width="58.4214" height="45.5275" fill="#D8D8D8" stroke="#818387" stroke-width="0.8" stroke-linejoin="round"/>
<mask id="path-3-inside-1" fill="white">
<path fill-rule="evenodd" clip-rule="evenodd" d="M32.2081 20.1353C31.0148 20.1353 29.95 20.7266 29.95 20.7266C29.95 20.7266 29.5528 25.179 29.95 31.3107C30.2728 36.2952 32.7718 40.5608 33.6955 41.9824L33.7007 42.4889H34.0368C34.0368 42.4889 37.727 37.4424 38.1241 31.3107C38.5213 25.1791 38.1241 20.7266 38.1241 20.7266C38.1241 20.7266 37.0593 20.1353 35.866 20.1353C35.1812 20.1353 34.4964 20.33 34.037 20.496C33.5777 20.33 32.8928 20.1353 32.2081 20.1353Z"/>
</mask>
<path fill-rule="evenodd" clip-rule="evenodd" d="M32.2081 20.1353C31.0148 20.1353 29.95 20.7266 29.95 20.7266C29.95 20.7266 29.5528 25.179 29.95 31.3107C30.2728 36.2952 32.7718 40.5608 33.6955 41.9824L33.7007 42.4889H34.0368C34.0368 42.4889 37.727 37.4424 38.1241 31.3107C38.5213 25.1791 38.1241 20.7266 38.1241 20.7266C38.1241 20.7266 37.0593 20.1353 35.866 20.1353C35.1812 20.1353 34.4964 20.33 34.037 20.496C33.5777 20.33 32.8928 20.1353 32.2081 20.1353Z" fill="#D8D8D8"/>
<path d="M29.95 20.7266L29.5615 20.0273C29.3297 20.156 29.1767 20.3914 29.1531 20.6556L29.95 20.7266ZM29.95 31.3107L30.7483 31.259L29.95 31.3107ZM33.6955 41.9824L34.4955 41.9743C34.4939 41.8224 34.4491 41.674 34.3663 41.5466L33.6955 41.9824ZM33.7007 42.4889L32.9007 42.497C32.9052 42.9357 33.262 43.2889 33.7007 43.2889V42.4889ZM34.0368 42.4889V43.2889C34.2921 43.2889 34.532 43.1671 34.6826 42.9611L34.0368 42.4889ZM38.1241 31.3107L37.3258 31.259L38.1241 31.3107ZM38.1241 20.7266L38.921 20.6556C38.8974 20.3914 38.7444 20.156 38.5125 20.0273L38.1241 20.7266ZM34.037 20.496L33.7652 21.2484C33.9409 21.3119 34.1332 21.3119 34.3089 21.2484L34.037 20.496ZM29.95 20.7266C30.3384 21.426 30.3382 21.4261 30.3381 21.4262C30.338 21.4262 30.3379 21.4263 30.3378 21.4264C30.3376 21.4265 30.3374 21.4266 30.3373 21.4266C30.3369 21.4268 30.3367 21.4269 30.3365 21.427C30.3362 21.4272 30.336 21.4273 30.3362 21.4272C30.3364 21.4271 30.3376 21.4264 30.3398 21.4253C30.3441 21.423 30.3522 21.4187 30.3639 21.4127C30.3872 21.4007 30.4245 21.382 30.4741 21.3588C30.5735 21.3123 30.7201 21.2486 30.8998 21.1846C31.2663 21.0542 31.7354 20.9353 32.2081 20.9353V19.3353C31.4875 19.3353 30.8276 19.512 30.3633 19.6773C30.1276 19.7612 29.9334 19.8453 29.7959 19.9097C29.727 19.9419 29.6718 19.9694 29.6322 19.9898C29.6124 20 29.5965 20.0084 29.5846 20.0147C29.5787 20.0179 29.5738 20.0205 29.5699 20.0226C29.568 20.0237 29.5663 20.0246 29.5649 20.0254C29.5642 20.0258 29.5636 20.0261 29.563 20.0264C29.5628 20.0266 29.5625 20.0267 29.5622 20.0269C29.5621 20.0269 29.5619 20.027 29.5619 20.0271C29.5617 20.0272 29.5615 20.0273 29.95 20.7266ZM30.7483 31.259C30.5516 28.2221 30.5516 25.6008 30.6007 23.7404C30.6253 22.8105 30.6621 22.0714 30.6926 21.5664C30.7079 21.3139 30.7216 21.12 30.7314 20.9901C30.7363 20.9251 30.7402 20.8762 30.7429 20.8439C30.7442 20.8277 30.7452 20.8158 30.7459 20.808C30.7462 20.8042 30.7465 20.8014 30.7466 20.7997C30.7467 20.7988 30.7467 20.7982 30.7468 20.7979C30.7468 20.7977 30.7468 20.7976 30.7468 20.7976C30.7468 20.7976 30.7468 20.7976 30.7468 20.7976C30.7468 20.7977 30.7468 20.7977 29.95 20.7266C29.1531 20.6556 29.1531 20.6557 29.1531 20.6558C29.1531 20.6558 29.1531 20.656 29.1531 20.6561C29.1531 20.6563 29.153 20.6567 29.153 20.657C29.1529 20.6578 29.1528 20.6588 29.1527 20.6601C29.1525 20.6627 29.1522 20.6664 29.1518 20.6712C29.1509 20.6807 29.1498 20.6944 29.1483 20.7124C29.1453 20.7483 29.1411 20.801 29.1359 20.8698C29.1256 21.0073 29.1113 21.2091 29.0956 21.4699C29.064 21.9913 29.0264 22.7485 29.0013 23.6982C28.9511 25.5969 28.9512 28.2677 29.1516 31.3624L30.7483 31.259ZM34.3663 41.5466C33.4655 40.1601 31.0577 36.0356 30.7483 31.259L29.1516 31.3624C29.488 36.5548 32.0781 40.9615 33.0247 42.4183L34.3663 41.5466ZM32.8955 41.9906L32.9007 42.497L34.5006 42.4808L34.4955 41.9743L32.8955 41.9906ZM33.7007 43.2889H34.0368V41.6889H33.7007V43.2889ZM34.0368 42.4889C34.6826 42.9611 34.6827 42.9609 34.6829 42.9607C34.683 42.9606 34.6831 42.9604 34.6833 42.9602C34.6835 42.9598 34.6839 42.9594 34.6843 42.9588C34.685 42.9578 34.686 42.9564 34.6872 42.9547C34.6897 42.9514 34.693 42.9468 34.6971 42.941C34.7055 42.9294 34.7172 42.913 34.7321 42.8918C34.762 42.8495 34.8046 42.7882 34.8583 42.709C34.9657 42.5506 35.1175 42.3202 35.2998 42.0256C35.6643 41.4368 36.1524 40.5891 36.6529 39.545C37.6506 37.4637 38.7149 34.5661 38.9224 31.3624L37.3258 31.259C37.1361 34.187 36.1568 36.8784 35.2101 38.8534C34.7385 39.8373 34.2792 40.6345 33.9394 41.1835C33.7696 41.4578 33.63 41.6696 33.534 41.8111C33.486 41.8819 33.449 41.9351 33.4246 41.9696C33.4124 41.9869 33.4034 41.9996 33.3977 42.0075C33.3949 42.0114 33.3929 42.0142 33.3918 42.0157C33.3912 42.0165 33.3909 42.0169 33.3908 42.0171C33.3907 42.0172 33.3907 42.0172 33.3907 42.0171C33.3908 42.0171 33.3908 42.017 33.3909 42.017C33.3909 42.0168 33.3911 42.0167 34.0368 42.4889ZM38.9224 31.3624C39.1229 28.2677 39.1229 25.5969 39.0728 23.6982C39.0477 22.7486 39.01 21.9913 38.9785 21.4699C38.9627 21.2091 38.9485 21.0073 38.9381 20.8698C38.933 20.801 38.9287 20.7483 38.9258 20.7124C38.9243 20.6944 38.9231 20.6807 38.9223 20.6712C38.9219 20.6664 38.9216 20.6627 38.9214 20.6601C38.9212 20.6588 38.9212 20.6578 38.9211 20.657C38.9211 20.6567 38.921 20.6563 38.921 20.6561C38.921 20.656 38.921 20.6558 38.921 20.6558C38.921 20.6557 38.921 20.6556 38.1241 20.7266C37.3273 20.7977 37.3273 20.7977 37.3273 20.7976C37.3273 20.7976 37.3273 20.7976 37.3273 20.7976C37.3273 20.7976 37.3273 20.7977 37.3273 20.7979C37.3273 20.7982 37.3274 20.7988 37.3275 20.7997C37.3276 20.8014 37.3278 20.8042 37.3282 20.808C37.3288 20.8158 37.3299 20.8277 37.3312 20.8439C37.3338 20.8762 37.3378 20.9251 37.3427 20.9901C37.3525 21.12 37.3662 21.3139 37.3814 21.5664C37.412 22.0714 37.4488 22.8105 37.4733 23.7404C37.5225 25.6008 37.5225 28.2221 37.3258 31.259L38.9224 31.3624ZM38.1241 20.7266C38.5125 20.0273 38.5124 20.0272 38.5122 20.0271C38.5121 20.027 38.512 20.0269 38.5118 20.0269C38.5116 20.0267 38.5113 20.0266 38.511 20.0264C38.5105 20.0261 38.5098 20.0258 38.5091 20.0254C38.5077 20.0246 38.5061 20.0237 38.5041 20.0226C38.5003 20.0205 38.4954 20.0179 38.4895 20.0147C38.4776 20.0084 38.4617 20 38.4419 19.9898C38.4023 19.9694 38.3471 19.9419 38.2782 19.9097C38.1407 19.8453 37.9465 19.7612 37.7108 19.6773C37.2465 19.512 36.5866 19.3353 35.866 19.3353V20.9353C36.3387 20.9353 36.8078 21.0542 37.1743 21.1846C37.354 21.2486 37.5005 21.3123 37.6 21.3588C37.6496 21.382 37.6869 21.4007 37.7102 21.4127C37.7218 21.4187 37.7299 21.423 37.7343 21.4253C37.7364 21.4264 37.7377 21.4271 37.7379 21.4272C37.738 21.4273 37.7379 21.4273 37.7376 21.4271C37.7374 21.4269 37.7371 21.4268 37.7368 21.4266C37.7367 21.4266 37.7365 21.4265 37.7363 21.4264C37.7362 21.4263 37.7361 21.4262 37.736 21.4262C37.7359 21.4261 37.7357 21.426 38.1241 20.7266ZM35.866 19.3353C35.0468 19.3353 34.2611 19.5644 33.7652 19.7436L34.3089 21.2484C34.7316 21.0956 35.3157 20.9353 35.866 20.9353V19.3353ZM32.2081 20.9353C32.7584 20.9353 33.3425 21.0956 33.7652 21.2484L34.3089 19.7436C33.813 19.5644 33.0273 19.3353 32.2081 19.3353V20.9353Z" fill="#818387" mask="url(#path-3-inside-1)"/>
<path d="M33.7911 42.808C33.8775 42.5301 33.9572 42.2765 34.0287 42.0506C34.1039 42.2971 34.1885 42.5764 34.2807 42.8838C34.6563 44.1372 35.1571 45.8573 35.6576 47.7251C36.1584 49.5936 36.658 51.6061 37.0322 53.4453C37.4078 55.2915 37.6515 56.9374 37.6515 58.0832V58.1111V58.139V58.1668V58.1946V58.2225V58.2503V58.2782V58.306V58.3338V58.3617V58.3895V58.4173V58.4451V58.4729V58.5007V58.5285V58.5563V58.5841V58.6119V58.6396V58.6674V58.6952V58.7229V58.7507V58.7784V58.8061V58.8338V58.8616V58.8893V58.917V58.9447V58.9723V59V59.0277V59.0553V59.083V59.1106V59.1382V59.1659V59.1935V59.2211V59.2487V59.2762V59.3038V59.3313V59.3589V59.3864V59.4139V59.4414V59.4689V59.4964V59.5239V59.5513V59.5788V59.6062V59.6336V59.661V59.6884V59.7158V59.7432V59.7705V59.7978V59.8251V59.8524V59.8797V59.907V59.9343V59.9615V59.9887V60.0159V60.0431V60.0703V60.0974V60.1246V60.1517V60.1788V60.2059V60.233V60.26V60.287V60.3141V60.341V60.368V60.395V60.4219V60.4488V60.4757V60.5026V60.5295V60.5563V60.5831V60.6099V60.6367V60.6634V60.6902V60.7169V60.7436V60.7702V60.7969V60.8235V60.8501V60.8767V60.9032V60.9298V60.9563V60.9828V61.0092V61.0356V61.0621V61.0884V61.1148V61.1411V61.1675V61.1937V61.22V61.2462V61.2724V61.2986V61.3248V61.3509V61.377V61.4031V61.4292V61.4552V61.4812V61.5071V61.5331V61.559V61.5849V61.6107V61.6365V61.6623V61.6881V61.7139V61.7396V61.7652V61.7909V61.8165V61.8421V61.8677V61.8932V61.9187V61.9441V61.9696V61.995V62.0203V62.0457V62.071V62.0963V62.1215V62.1467V62.1719V62.197V62.2221V62.2472V62.2723V62.2973V62.3222V62.3472V62.3721V62.3969V62.4218V62.4466V62.4713V62.4961V62.5208V62.5454V62.57V62.5946V62.6192V62.6437V62.6681V62.6926V62.717V62.7413V62.7657V62.7899V62.8142V62.8384V62.8626V62.8867V62.9108V62.9348V62.9588V62.9828V63.0067V63.0306V63.0545V63.0783V63.1021V63.1258V63.1495V63.1731V63.1967V63.2203V63.2438V63.2673V63.2907V63.3141V63.3375V63.3608V63.384V63.4073V63.4304V63.4536V63.4767V63.4997V63.5227V63.5457V63.5686V63.5914V63.6143V63.637V63.6598V63.6825V63.7051V63.7277V63.7502V63.7727V63.7952V63.8176V63.8399V63.8623V63.8845V63.9067V63.9289V63.951V63.9731V63.9951V64.0171V64.039V64.0609V64.0827V64.1045V64.1262V64.1479V64.1695V64.1911V64.2126V64.2341V64.2555V64.2769V64.2982V64.3194V64.3407V64.3618V64.3829V64.404V64.425V64.4459V64.4668V64.4877V64.5085V64.5292V64.5499V64.5705V64.5911V64.6116V64.6321V64.6525V64.6729V64.6932V64.7134V64.7336V64.7537V64.7738V64.7938V64.8138V64.8337V64.8535V64.8733V64.8931V64.9127V64.9324V64.9519V64.9714V64.9909V65.0102V65.0296V65.0488V65.068V65.0872V65.1063V65.1253V65.1443V65.1632V65.182V65.2008V65.2195V65.2382V65.2568V65.2754V65.2938V65.3123V65.3306V65.3489V65.3671V65.3853V65.4034V65.4215V65.4394V65.4574V65.4752V65.493V65.5107V65.5284V65.546V65.5635V65.581V65.5984V65.6157V65.633V65.6502V65.6673V65.6844V65.7014V65.7183V65.7352V65.752V65.7687V65.7854V65.802V65.8185V65.835V65.8514V65.8677V65.884V65.9002V65.9163V65.9324V65.9483V65.9643V65.9801V65.9959V66.0116V66.0272V66.0428V66.0583V66.0737V66.089V66.1043V66.1195V66.1347V66.1497V66.1647V66.1796V66.1945V66.2092V66.2239V66.2386V66.2531V66.2676V66.282V66.2963V66.3106V66.3248V66.3389V66.3529V66.3668V66.3807V66.3945V66.4083V66.4219V66.4355V66.449V66.4624V66.4758V66.489V66.5022V66.5153V66.5284V66.5413V66.5542V66.567V66.5797V66.5924V66.605V66.6174V66.6299V66.6422V66.6544V66.6666V66.6787V66.6907V66.7026V66.7145V66.7263V66.7379V66.7495V66.7611V66.7725V66.7839V66.7951V66.8063V66.8175V66.8285V66.8394V66.8503V66.8611V66.8718V66.8824V66.8929V66.9034V66.9137V66.924V66.9342V66.9443V66.9543V66.9643V66.9741V66.9839V66.9936V67.0032V67.0127V67.0221V67.0314V67.0407V67.0498V67.0589V67.0679V67.0768V67.0856V67.0924H30.4215V67.0883V67.08V67.0715V67.063V67.0544V67.0457V67.037V67.0281V67.0192V67.0102V67.0011V66.992V66.9827V66.9734V66.964V66.9545V66.945V66.9353V66.9256V66.9158V66.9059V66.896V66.8859V66.8758V66.8656V66.8554V66.845V66.8346V66.8241V66.8135V66.8028V66.7921V66.7813V66.7704V66.7594V66.7484V66.7372V66.726V66.7148V66.7034V66.692V66.6805V66.6689V66.6572V66.6455V66.6337V66.6218V66.6098V66.5978V66.5857V66.5735V66.5612V66.5489V66.5365V66.524V66.5114V66.4988V66.4861V66.4733V66.4604V66.4475V66.4345V66.4214V66.4082V66.395V66.3817V66.3683V66.3549V66.3414V66.3278V66.3141V66.3004V66.2865V66.2727V66.2587V66.2447V66.2306V66.2164V66.2022V66.1878V66.1735V66.159V66.1445V66.1299V66.1152V66.1005V66.0857V66.0708V66.0558V66.0408V66.0257V66.0105V65.9953V65.98V65.9646V65.9492V65.9337V65.9181V65.9025V65.8867V65.871V65.8551V65.8392V65.8232V65.8071V65.791V65.7748V65.7585V65.7422V65.7258V65.7093V65.6928V65.6762V65.6595V65.6428V65.626V65.6091V65.5922V65.5752V65.5581V65.541V65.5238V65.5065V65.4892V65.4718V65.4543V65.4368V65.4192V65.4015V65.3838V65.366V65.3482V65.3302V65.3123V65.2942V65.2761V65.2579V65.2397V65.2214V65.203V65.1846V65.1661V65.1475V65.1289V65.1102V65.0915V65.0726V65.0538V65.0348V65.0158V64.9968V64.9776V64.9584V64.9392V64.9199V64.9005V64.8811V64.8616V64.842V64.8224V64.8027V64.783V64.7632V64.7433V64.7234V64.7034V64.6834V64.6633V64.6431V64.6229V64.6026V64.5822V64.5618V64.5414V64.5208V64.5003V64.4796V64.4589V64.4382V64.4173V64.3965V64.3755V64.3545V64.3335V64.3124V64.2912V64.27V64.2487V64.2274V64.206V64.1845V64.163V64.1414V64.1198V64.0981V64.0764V64.0546V64.0327V64.0108V63.9888V63.9668V63.9447V63.9226V63.9004V63.8782V63.8559V63.8335V63.8111V63.7887V63.7661V63.7436V63.7209V63.6982V63.6755V63.6527V63.6299V63.607V63.584V63.561V63.5379V63.5148V63.4917V63.4684V63.4452V63.4218V63.3984V63.375V63.3515V63.328V63.3044V63.2808V63.2571V63.2333V63.2095V63.1857V63.1618V63.1378V63.1138V63.0897V63.0656V63.0415V63.0173V62.993V62.9687V62.9443V62.9199V62.8955V62.871V62.8464V62.8218V62.7971V62.7724V62.7477V62.7228V62.698V62.6731V62.6481V62.6231V62.5981V62.573V62.5478V62.5226V62.4974V62.4721V62.4467V62.4213V62.3959V62.3704V62.3449V62.3193V62.2937V62.268V62.2423V62.2165V62.1907V62.1648V62.1389V62.113V62.087V62.0609V62.0349V62.0087V61.9825V61.9563V61.93V61.9037V61.8774V61.8509V61.8245V61.798V61.7715V61.7449V61.7182V61.6916V61.6648V61.6381V61.6113V61.5844V61.5575V61.5306V61.5036V61.4766V61.4495V61.4224V61.3953V61.3681V61.3408V61.3136V61.2862V61.2589V61.2315V61.204V61.1765V61.149V61.1214V61.0938V61.0662V61.0385V61.0107V60.9829V60.9551V60.9273V60.8994V60.8714V60.8434V60.8154V60.7874V60.7593V60.7311V60.7029V60.6747V60.6465V60.6182V60.5898V60.5615V60.533V60.5046V60.4761V60.4476V60.419V60.3904V60.3618V60.3331V60.3043V60.2756V60.2468V60.218V60.1891V60.1602V60.1312V60.1023V60.0732V60.0442V60.0151V59.986V59.9568V59.9276V59.8984V59.8691V59.8398V59.8105V59.7811V59.7517V59.7222V59.6927V59.6632V59.6337V59.6041V59.5745V59.5448V59.5151V59.4854V59.4556V59.4258V59.396V59.3661V59.3362V59.3063V59.2764V59.2464V59.2163V59.1863V59.1562V59.1261V59.0959V59.0657V59.0355V59.0052V58.9749V58.9446V58.9143V58.8839V58.8535V58.823V58.7925V58.762V58.7315V58.7009V58.6703V58.6397V58.609V58.5783V58.5476V58.5169V58.4861V58.4553V58.4244V58.3936V58.3627V58.3317V58.3008V58.2698V58.2388V58.2077V58.1766V58.1455V58.1144V58.0832C30.4215 55.485 31.4091 51.1962 32.4149 47.5145C32.9152 45.6829 33.4157 44.0166 33.7911 42.808Z" fill="#D8D8D8" stroke="#818387" stroke-width="0.8" stroke-linejoin="round"/>
<path d="M34.0375 21.1648V52.2865" stroke="#9B9B9B" stroke-opacity="0.468777" stroke-linecap="round" stroke-linejoin="round"/>
<mask id="path-7-inside-2" fill="white">
<path fill-rule="evenodd" clip-rule="evenodd" d="M52.2833 20.1353C51.09 20.1353 50.0252 20.7266 50.0252 20.7266C50.0252 20.7266 49.628 25.179 50.0252 31.3107C50.348 36.2953 52.847 40.561 53.7707 41.9825L53.7759 42.4889H54.1121C54.1121 42.4889 57.8022 37.4424 58.1993 31.3107C58.5965 25.1791 58.1993 20.7266 58.1993 20.7266C58.1993 20.7266 57.1345 20.1353 55.9412 20.1353C55.2565 20.1353 54.5716 20.33 54.1123 20.496C53.6529 20.33 52.968 20.1353 52.2833 20.1353Z"/>
</mask>
<path fill-rule="evenodd" clip-rule="evenodd" d="M52.2833 20.1353C51.09 20.1353 50.0252 20.7266 50.0252 20.7266C50.0252 20.7266 49.628 25.179 50.0252 31.3107C50.348 36.2953 52.847 40.561 53.7707 41.9825L53.7759 42.4889H54.1121C54.1121 42.4889 57.8022 37.4424 58.1993 31.3107C58.5965 25.1791 58.1993 20.7266 58.1993 20.7266C58.1993 20.7266 57.1345 20.1353 55.9412 20.1353C55.2565 20.1353 54.5716 20.33 54.1123 20.496C53.6529 20.33 52.968 20.1353 52.2833 20.1353Z" fill="#D8D8D8"/>
<path d="M50.0252 20.7266L49.6367 20.0273C49.4049 20.156 49.2519 20.3914 49.2283 20.6556L50.0252 20.7266ZM50.0252 31.3107L50.8235 31.259L50.0252 31.3107ZM53.7707 41.9825L54.5707 41.9744C54.5691 41.8224 54.5244 41.6741 54.4416 41.5466L53.7707 41.9825ZM53.7759 42.4889L52.9759 42.497C52.9804 42.9357 53.3372 43.2889 53.7759 43.2889V42.4889ZM54.1121 42.4889V43.2889C54.3673 43.2889 54.6072 43.1671 54.7578 42.9611L54.1121 42.4889ZM58.1993 31.3107L57.401 31.259L58.1993 31.3107ZM58.1993 20.7266L58.9962 20.6556C58.9726 20.3914 58.8196 20.156 58.5878 20.0273L58.1993 20.7266ZM54.1123 20.496L53.8404 21.2484C54.0161 21.3119 54.2084 21.3119 54.3841 21.2484L54.1123 20.496ZM50.0252 20.7266C50.4136 21.426 50.4134 21.4261 50.4133 21.4262C50.4132 21.4262 50.4131 21.4263 50.413 21.4264C50.4128 21.4265 50.4126 21.4266 50.4125 21.4266C50.4121 21.4268 50.4119 21.4269 50.4117 21.427C50.4113 21.4272 50.4112 21.4273 50.4114 21.4272C50.4116 21.4271 50.4128 21.4264 50.415 21.4253C50.4193 21.423 50.4274 21.4187 50.4391 21.4127C50.4624 21.4007 50.4997 21.382 50.5493 21.3588C50.6487 21.3123 50.7953 21.2486 50.975 21.1846C51.3415 21.0542 51.8106 20.9353 52.2833 20.9353V19.3353C51.5627 19.3353 50.9027 19.512 50.4385 19.6773C50.2028 19.7612 50.0086 19.8453 49.8711 19.9097C49.8022 19.9419 49.747 19.9694 49.7074 19.9898C49.6876 20 49.6717 20.0084 49.6598 20.0147C49.6539 20.0179 49.649 20.0205 49.6451 20.0226C49.6432 20.0237 49.6415 20.0246 49.6401 20.0254C49.6394 20.0258 49.6388 20.0261 49.6382 20.0264C49.638 20.0266 49.6377 20.0267 49.6374 20.0269C49.6373 20.0269 49.6371 20.027 49.6371 20.0271C49.6369 20.0272 49.6367 20.0273 50.0252 20.7266ZM50.8235 31.259C50.6268 28.2221 50.6268 25.6008 50.6759 23.7404C50.7005 22.8105 50.7373 22.0714 50.7678 21.5664C50.7831 21.3139 50.7968 21.12 50.8066 20.9901C50.8115 20.9251 50.8154 20.8762 50.8181 20.8439C50.8194 20.8277 50.8204 20.8158 50.8211 20.808C50.8214 20.8042 50.8217 20.8014 50.8218 20.7997C50.8219 20.7988 50.8219 20.7982 50.822 20.7979C50.822 20.7977 50.822 20.7976 50.822 20.7976C50.822 20.7976 50.822 20.7976 50.822 20.7976C50.822 20.7977 50.822 20.7977 50.0252 20.7266C49.2283 20.6556 49.2283 20.6557 49.2283 20.6558C49.2283 20.6558 49.2283 20.656 49.2283 20.6561C49.2282 20.6563 49.2282 20.6567 49.2282 20.657C49.2281 20.6578 49.228 20.6588 49.2279 20.6601C49.2277 20.6627 49.2274 20.6664 49.227 20.6712C49.2261 20.6807 49.225 20.6944 49.2235 20.7124C49.2205 20.7483 49.2163 20.801 49.2111 20.8698C49.2008 21.0073 49.1865 21.2091 49.1708 21.4699C49.1392 21.9913 49.1016 22.7485 49.0765 23.6982C49.0263 25.5969 49.0264 28.2677 49.2268 31.3624L50.8235 31.259ZM54.4416 41.5466C53.5407 40.1603 51.1329 36.0357 50.8235 31.259L49.2268 31.3624C49.5632 36.5549 52.1534 40.9617 53.0999 42.4184L54.4416 41.5466ZM52.9708 41.9907L52.9759 42.497L54.5758 42.4808L54.5707 41.9744L52.9708 41.9907ZM53.7759 43.2889H54.1121V41.6889H53.7759V43.2889ZM54.1121 42.4889C54.7578 42.9611 54.758 42.9609 54.7581 42.9607C54.7582 42.9606 54.7584 42.9604 54.7585 42.9602C54.7588 42.9598 54.7591 42.9594 54.7595 42.9588C54.7603 42.9578 54.7613 42.9564 54.7625 42.9547C54.7649 42.9514 54.7682 42.9468 54.7724 42.941C54.7807 42.9294 54.7924 42.913 54.8074 42.8918C54.8372 42.8495 54.8798 42.7882 54.9336 42.709C55.0409 42.5506 55.1927 42.3202 55.3751 42.0256C55.7396 41.4368 56.2277 40.5891 56.7282 39.545C57.7258 37.4637 58.7902 34.5661 58.9977 31.3624L57.401 31.259C57.2114 34.187 56.2321 36.8784 55.2854 38.8534C54.8137 39.8373 54.3544 40.6345 54.0146 41.1835C53.8448 41.4578 53.7052 41.6696 53.6092 41.8111C53.5613 41.8819 53.5242 41.9351 53.4998 41.9696C53.4876 41.9869 53.4786 41.9996 53.4729 42.0075C53.4701 42.0114 53.4681 42.0142 53.467 42.0157C53.4664 42.0165 53.4661 42.0169 53.466 42.0171C53.4659 42.0172 53.4659 42.0172 53.466 42.0171C53.466 42.0171 53.4661 42.017 53.4661 42.017C53.4662 42.0168 53.4663 42.0167 54.1121 42.4889ZM58.9977 31.3624C59.1981 28.2677 59.1982 25.5969 59.148 23.6982C59.1229 22.7486 59.0853 21.9913 59.0537 21.4699C59.038 21.2091 59.0237 21.0073 59.0134 20.8698C59.0082 20.801 59.004 20.7483 59.001 20.7124C58.9995 20.6944 58.9984 20.6807 58.9975 20.6712C58.9971 20.6664 58.9968 20.6627 58.9966 20.6601C58.9965 20.6588 58.9964 20.6578 58.9963 20.657C58.9963 20.6567 58.9963 20.6563 58.9962 20.6561C58.9962 20.656 58.9962 20.6558 58.9962 20.6558C58.9962 20.6557 58.9962 20.6556 58.1993 20.7266C57.4025 20.7977 57.4025 20.7977 57.4025 20.7976C57.4025 20.7976 57.4025 20.7976 57.4025 20.7976C57.4025 20.7976 57.4025 20.7977 57.4025 20.7979C57.4026 20.7982 57.4026 20.7988 57.4027 20.7997C57.4028 20.8014 57.4031 20.8042 57.4034 20.808C57.4041 20.8158 57.4051 20.8277 57.4064 20.8439C57.4091 20.8762 57.413 20.9251 57.4179 20.9901C57.4277 21.12 57.4414 21.3139 57.4567 21.5664C57.4872 22.0714 57.524 22.8105 57.5486 23.7404C57.5977 25.6008 57.5977 28.2221 57.401 31.259L58.9977 31.3624ZM58.1993 20.7266C58.5878 20.0273 58.5876 20.0272 58.5874 20.0271C58.5874 20.027 58.5872 20.0269 58.5871 20.0269C58.5868 20.0267 58.5865 20.0266 58.5863 20.0264C58.5857 20.0261 58.5851 20.0258 58.5844 20.0254C58.583 20.0246 58.5813 20.0237 58.5794 20.0226C58.5755 20.0205 58.5706 20.0179 58.5647 20.0147C58.5528 20.0084 58.5369 20 58.5171 19.9898C58.4775 19.9694 58.4223 19.9419 58.3534 19.9097C58.2159 19.8453 58.0217 19.7612 57.786 19.6773C57.3218 19.512 56.6618 19.3353 55.9412 19.3353V20.9353C56.4139 20.9353 56.883 21.0542 57.2495 21.1846C57.4292 21.2486 57.5758 21.3123 57.6752 21.3588C57.7248 21.382 57.7621 21.4007 57.7854 21.4127C57.7971 21.4187 57.8052 21.423 57.8095 21.4253C57.8117 21.4264 57.8129 21.4271 57.8131 21.4272C57.8133 21.4273 57.8131 21.4273 57.8128 21.427C57.8126 21.4269 57.8124 21.4268 57.812 21.4266C57.8119 21.4266 57.8117 21.4265 57.8115 21.4264C57.8114 21.4263 57.8113 21.4262 57.8112 21.4262C57.8111 21.4261 57.8109 21.426 58.1993 20.7266ZM55.9412 19.3353C55.122 19.3353 54.3363 19.5644 53.8404 19.7436L54.3841 21.2484C54.8068 21.0956 55.3909 20.9353 55.9412 20.9353V19.3353ZM52.2833 20.9353C52.8336 20.9353 53.4177 21.0956 53.8404 21.2484L54.3841 19.7436C53.8882 19.5644 53.1025 19.3353 52.2833 19.3353V20.9353Z" fill="#818387" mask="url(#path-7-inside-2)"/>
<path d="M53.8663 42.808C53.9527 42.5301 54.0324 42.2765 54.1039 42.0506C54.1791 42.2971 54.2637 42.5764 54.3559 42.8838C54.7315 44.1372 55.2322 45.8573 55.7328 47.7251C56.2336 49.5936 56.7332 51.6061 57.1074 53.4453C57.483 55.2915 57.7267 56.9374 57.7267 58.0832V58.1111V58.139V58.1668V58.1946V58.2225V58.2503V58.2782V58.306V58.3338V58.3617V58.3895V58.4173V58.4451V58.4729V58.5007V58.5285V58.5563V58.5841V58.6119V58.6396V58.6674V58.6952V58.7229V58.7507V58.7784V58.8061V58.8338V58.8616V58.8893V58.917V58.9447V58.9723V59V59.0277V59.0553V59.083V59.1106V59.1382V59.1659V59.1935V59.2211V59.2487V59.2762V59.3038V59.3313V59.3589V59.3864V59.4139V59.4414V59.4689V59.4964V59.5239V59.5513V59.5788V59.6062V59.6336V59.661V59.6884V59.7158V59.7432V59.7705V59.7978V59.8251V59.8524V59.8797V59.907V59.9343V59.9615V59.9887V60.0159V60.0431V60.0703V60.0974V60.1246V60.1517V60.1788V60.2059V60.233V60.26V60.287V60.3141V60.341V60.368V60.395V60.4219V60.4488V60.4757V60.5026V60.5295V60.5563V60.5831V60.6099V60.6367V60.6634V60.6902V60.7169V60.7436V60.7702V60.7969V60.8235V60.8501V60.8767V60.9032V60.9298V60.9563V60.9828V61.0092V61.0356V61.0621V61.0884V61.1148V61.1411V61.1675V61.1937V61.22V61.2462V61.2724V61.2986V61.3248V61.3509V61.377V61.4031V61.4292V61.4552V61.4812V61.5071V61.5331V61.559V61.5849V61.6107V61.6365V61.6623V61.6881V61.7139V61.7396V61.7652V61.7909V61.8165V61.8421V61.8677V61.8932V61.9187V61.9441V61.9696V61.995V62.0203V62.0457V62.071V62.0963V62.1215V62.1467V62.1719V62.197V62.2221V62.2472V62.2723V62.2973V62.3222V62.3472V62.3721V62.3969V62.4218V62.4466V62.4713V62.4961V62.5208V62.5454V62.57V62.5946V62.6192V62.6437V62.6681V62.6926V62.717V62.7413V62.7657V62.7899V62.8142V62.8384V62.8626V62.8867V62.9108V62.9348V62.9588V62.9828V63.0067V63.0306V63.0545V63.0783V63.1021V63.1258V63.1495V63.1731V63.1967V63.2203V63.2438V63.2673V63.2907V63.3141V63.3375V63.3608V63.384V63.4073V63.4304V63.4536V63.4767V63.4997V63.5227V63.5457V63.5686V63.5914V63.6143V63.637V63.6598V63.6825V63.7051V63.7277V63.7502V63.7727V63.7952V63.8176V63.8399V63.8623V63.8845V63.9067V63.9289V63.951V63.9731V63.9951V64.0171V64.039V64.0609V64.0827V64.1045V64.1262V64.1479V64.1695V64.1911V64.2126V64.2341V64.2555V64.2769V64.2982V64.3194V64.3407V64.3618V64.3829V64.404V64.425V64.4459V64.4668V64.4877V64.5085V64.5292V64.5499V64.5705V64.5911V64.6116V64.6321V64.6525V64.6729V64.6932V64.7134V64.7336V64.7537V64.7738V64.7938V64.8138V64.8337V64.8535V64.8733V64.8931V64.9127V64.9324V64.9519V64.9714V64.9909V65.0102V65.0296V65.0488V65.068V65.0872V65.1063V65.1253V65.1443V65.1632V65.182V65.2008V65.2195V65.2382V65.2568V65.2754V65.2938V65.3123V65.3306V65.3489V65.3671V65.3853V65.4034V65.4215V65.4394V65.4574V65.4752V65.493V65.5107V65.5284V65.546V65.5635V65.581V65.5984V65.6157V65.633V65.6502V65.6673V65.6844V65.7014V65.7183V65.7352V65.752V65.7687V65.7854V65.802V65.8185V65.835V65.8514V65.8677V65.884V65.9002V65.9163V65.9324V65.9483V65.9643V65.9801V65.9959V66.0116V66.0272V66.0428V66.0583V66.0737V66.089V66.1043V66.1195V66.1347V66.1497V66.1647V66.1796V66.1945V66.2092V66.2239V66.2386V66.2531V66.2676V66.282V66.2963V66.3106V66.3248V66.3389V66.3529V66.3668V66.3807V66.3945V66.4083V66.4219V66.4355V66.449V66.4624V66.4758V66.489V66.5022V66.5153V66.5284V66.5413V66.5542V66.567V66.5797V66.5924V66.605V66.6174V66.6299V66.6422V66.6544V66.6666V66.6787V66.6907V66.7026V66.7145V66.7263V66.7379V66.7495V66.7611V66.7725V66.7839V66.7951V66.8063V66.8175V66.8285V66.8394V66.8503V66.8611V66.8718V66.8824V66.8929V66.9034V66.9137V66.924V66.9342V66.9443V66.9543V66.9643V66.9741V66.9839V66.9936V67.0032V67.0127V67.0221V67.0314V67.0407V67.0498V67.0589V67.0679V67.0768V67.0856V67.0924H50.4967V67.0883V67.08V67.0715V67.063V67.0544V67.0457V67.037V67.0281V67.0192V67.0102V67.0011V66.992V66.9827V66.9734V66.964V66.9545V66.945V66.9353V66.9256V66.9158V66.9059V66.896V66.8859V66.8758V66.8656V66.8554V66.845V66.8346V66.8241V66.8135V66.8028V66.7921V66.7813V66.7704V66.7594V66.7484V66.7372V66.726V66.7148V66.7034V66.692V66.6805V66.6689V66.6572V66.6455V66.6337V66.6218V66.6098V66.5978V66.5857V66.5735V66.5612V66.5489V66.5365V66.524V66.5114V66.4988V66.4861V66.4733V66.4604V66.4475V66.4345V66.4214V66.4082V66.395V66.3817V66.3683V66.3549V66.3414V66.3278V66.3141V66.3004V66.2865V66.2727V66.2587V66.2447V66.2306V66.2164V66.2022V66.1878V66.1735V66.159V66.1445V66.1299V66.1152V66.1005V66.0857V66.0708V66.0558V66.0408V66.0257V66.0105V65.9953V65.98V65.9646V65.9492V65.9337V65.9181V65.9025V65.8867V65.871V65.8551V65.8392V65.8232V65.8071V65.791V65.7748V65.7585V65.7422V65.7258V65.7093V65.6928V65.6762V65.6595V65.6428V65.626V65.6091V65.5922V65.5752V65.5581V65.541V65.5238V65.5065V65.4892V65.4718V65.4543V65.4368V65.4192V65.4015V65.3838V65.366V65.3482V65.3302V65.3123V65.2942V65.2761V65.2579V65.2397V65.2214V65.203V65.1846V65.1661V65.1475V65.1289V65.1102V65.0915V65.0726V65.0538V65.0348V65.0158V64.9968V64.9776V64.9584V64.9392V64.9199V64.9005V64.8811V64.8616V64.842V64.8224V64.8027V64.783V64.7632V64.7433V64.7234V64.7034V64.6834V64.6633V64.6431V64.6229V64.6026V64.5822V64.5618V64.5414V64.5208V64.5003V64.4796V64.4589V64.4382V64.4173V64.3965V64.3755V64.3545V64.3335V64.3124V64.2912V64.27V64.2487V64.2274V64.206V64.1845V64.163V64.1414V64.1198V64.0981V64.0764V64.0546V64.0327V64.0108V63.9888V63.9668V63.9447V63.9226V63.9004V63.8782V63.8559V63.8335V63.8111V63.7887V63.7661V63.7436V63.7209V63.6982V63.6755V63.6527V63.6299V63.607V63.584V63.561V63.5379V63.5148V63.4917V63.4684V63.4452V63.4218V63.3984V63.375V63.3515V63.328V63.3044V63.2808V63.2571V63.2333V63.2095V63.1857V63.1618V63.1378V63.1138V63.0897V63.0656V63.0415V63.0173V62.993V62.9687V62.9443V62.9199V62.8955V62.871V62.8464V62.8218V62.7971V62.7724V62.7477V62.7228V62.698V62.6731V62.6481V62.6231V62.5981V62.573V62.5478V62.5226V62.4974V62.4721V62.4467V62.4213V62.3959V62.3704V62.3449V62.3193V62.2937V62.268V62.2423V62.2165V62.1907V62.1648V62.1389V62.113V62.087V62.0609V62.0349V62.0087V61.9825V61.9563V61.93V61.9037V61.8774V61.8509V61.8245V61.798V61.7715V61.7449V61.7182V61.6916V61.6648V61.6381V61.6113V61.5844V61.5575V61.5306V61.5036V61.4766V61.4495V61.4224V61.3953V61.3681V61.3408V61.3136V61.2862V61.2589V61.2315V61.204V61.1765V61.149V61.1214V61.0938V61.0662V61.0385V61.0107V60.9829V60.9551V60.9273V60.8994V60.8714V60.8434V60.8154V60.7874V60.7593V60.7311V60.7029V60.6747V60.6465V60.6182V60.5898V60.5615V60.533V60.5046V60.4761V60.4476V60.419V60.3904V60.3618V60.3331V60.3043V60.2756V60.2468V60.218V60.1891V60.1602V60.1312V60.1023V60.0732V60.0442V60.0151V59.986V59.9568V59.9276V59.8984V59.8691V59.8398V59.8105V59.7811V59.7517V59.7222V59.6927V59.6632V59.6337V59.6041V59.5745V59.5448V59.5151V59.4854V59.4556V59.4258V59.396V59.3661V59.3362V59.3063V59.2764V59.2464V59.2163V59.1863V59.1562V59.1261V59.0959V59.0657V59.0355V59.0052V58.9749V58.9446V58.9143V58.8839V58.8535V58.823V58.7925V58.762V58.7315V58.7009V58.6703V58.6397V58.609V58.5783V58.5476V58.5169V58.4861V58.4553V58.4244V58.3936V58.3627V58.3317V58.3008V58.2698V58.2388V58.2077V58.1766V58.1455V58.1144V58.0832C50.4967 55.485 51.4843 51.1962 52.49 47.5145C52.9904 45.6829 53.4909 44.0166 53.8663 42.808Z" fill="#D8D8D8" stroke="#818387" stroke-width="0.8" stroke-linejoin="round"/>
<path d="M54.1127 21.1648V52.2865" stroke="#9B9B9B" stroke-opacity="0.468777" stroke-linecap="round" stroke-linejoin="round"/>
<mask id="path-11-inside-3" fill="white">
<path fill-rule="evenodd" clip-rule="evenodd" d="M71.3546 20.1353C70.1613 20.1353 69.0964 20.7266 69.0964 20.7266C69.0964 20.7266 68.6993 25.179 69.0964 31.3107C69.4193 36.2952 71.9183 40.5608 72.842 41.9824L72.8471 42.4889H73.1833C73.1833 42.4889 76.8734 37.4424 77.2706 31.3107C77.6678 25.1791 77.2706 20.7266 77.2706 20.7266C77.2706 20.7266 76.2057 20.1353 75.0125 20.1353C74.3277 20.1353 73.6429 20.33 73.1835 20.496C72.7242 20.33 72.0393 20.1353 71.3546 20.1353Z"/>
</mask>
<path fill-rule="evenodd" clip-rule="evenodd" d="M71.3546 20.1353C70.1613 20.1353 69.0964 20.7266 69.0964 20.7266C69.0964 20.7266 68.6993 25.179 69.0964 31.3107C69.4193 36.2952 71.9183 40.5608 72.842 41.9824L72.8471 42.4889H73.1833C73.1833 42.4889 76.8734 37.4424 77.2706 31.3107C77.6678 25.1791 77.2706 20.7266 77.2706 20.7266C77.2706 20.7266 76.2057 20.1353 75.0125 20.1353C74.3277 20.1353 73.6429 20.33 73.1835 20.496C72.7242 20.33 72.0393 20.1353 71.3546 20.1353Z" fill="#D8D8D8"/>
<path d="M69.0964 20.7266L68.708 20.0273C68.4761 20.156 68.3232 20.3914 68.2996 20.6556L69.0964 20.7266ZM69.0964 31.3107L69.8948 31.259L69.0964 31.3107ZM72.842 41.9824L73.642 41.9743C73.6404 41.8223 73.5956 41.674 73.5128 41.5466L72.842 41.9824ZM72.8471 42.4889L72.0472 42.497C72.0517 42.9357 72.4085 43.2889 72.8471 43.2889V42.4889ZM73.1833 42.4889V43.2889C73.4385 43.2889 73.6785 43.1671 73.8291 42.9611L73.1833 42.4889ZM77.2706 31.3107L76.4723 31.259L77.2706 31.3107ZM77.2706 20.7266L78.0674 20.6556C78.0439 20.3914 77.8909 20.156 77.659 20.0273L77.2706 20.7266ZM73.1835 20.496L72.9117 21.2484C73.0874 21.3119 73.2797 21.3119 73.4554 21.2484L73.1835 20.496ZM69.0964 20.7266C69.4849 21.426 69.4847 21.4261 69.4845 21.4262C69.4845 21.4262 69.4843 21.4263 69.4842 21.4264C69.4841 21.4265 69.4839 21.4266 69.4837 21.4266C69.4834 21.4268 69.4832 21.4269 69.483 21.427C69.4826 21.4272 69.4825 21.4273 69.4826 21.4272C69.4829 21.4271 69.4841 21.4264 69.4863 21.4253C69.4906 21.423 69.4987 21.4187 69.5104 21.4127C69.5337 21.4007 69.571 21.382 69.6206 21.3588C69.72 21.3123 69.8666 21.2486 70.0463 21.1846C70.4128 21.0542 70.8819 20.9353 71.3546 20.9353V19.3353C70.634 19.3353 69.974 19.512 69.5098 19.6773C69.2741 19.7612 69.0799 19.8453 68.9424 19.9097C68.8735 19.9419 68.8183 19.9694 68.7787 19.9898C68.7589 20 68.7429 20.0084 68.7311 20.0147C68.7252 20.0179 68.7203 20.0205 68.7164 20.0226C68.7145 20.0237 68.7128 20.0246 68.7114 20.0254C68.7107 20.0258 68.7101 20.0261 68.7095 20.0264C68.7092 20.0266 68.709 20.0267 68.7087 20.0269C68.7086 20.0269 68.7084 20.027 68.7084 20.0271C68.7082 20.0272 68.708 20.0273 69.0964 20.7266ZM69.8948 31.259C69.6981 28.2221 69.6981 25.6008 69.7472 23.7404C69.7718 22.8105 69.8086 22.0714 69.8391 21.5664C69.8544 21.3139 69.8681 21.12 69.8779 20.9901C69.8828 20.9251 69.8867 20.8762 69.8894 20.8439C69.8907 20.8277 69.8917 20.8158 69.8924 20.808C69.8927 20.8042 69.893 20.8014 69.8931 20.7997C69.8932 20.7988 69.8932 20.7982 69.8933 20.7979C69.8933 20.7977 69.8933 20.7976 69.8933 20.7976C69.8933 20.7976 69.8933 20.7976 69.8933 20.7976C69.8933 20.7977 69.8933 20.7977 69.0964 20.7266C68.2996 20.6556 68.2996 20.6557 68.2996 20.6558C68.2996 20.6558 68.2996 20.656 68.2996 20.6561C68.2995 20.6563 68.2995 20.6567 68.2995 20.657C68.2994 20.6578 68.2993 20.6588 68.2992 20.6601C68.299 20.6627 68.2987 20.6664 68.2982 20.6712C68.2974 20.6807 68.2963 20.6944 68.2948 20.7124C68.2918 20.7483 68.2876 20.801 68.2824 20.8698C68.272 21.0073 68.2578 21.2091 68.242 21.4699C68.2105 21.9913 68.1729 22.7485 68.1478 23.6982C68.0976 25.5969 68.0977 28.2677 68.2981 31.3624L69.8948 31.259ZM73.5128 41.5466C72.6119 40.1601 70.2042 36.0356 69.8948 31.259L68.2981 31.3624C68.6344 36.5548 71.2246 40.9615 72.1712 42.4183L73.5128 41.5466ZM72.042 41.9906L72.0472 42.497L73.6471 42.4808L73.642 41.9743L72.042 41.9906ZM72.8471 43.2889H73.1833V41.6889H72.8471V43.2889ZM73.1833 42.4889C73.8291 42.9611 73.8292 42.9609 73.8294 42.9607C73.8295 42.9606 73.8296 42.9604 73.8298 42.9602C73.83 42.9598 73.8304 42.9594 73.8307 42.9588C73.8315 42.9578 73.8325 42.9564 73.8337 42.9547C73.8362 42.9514 73.8395 42.9468 73.8436 42.941C73.852 42.9294 73.8637 42.913 73.8786 42.8918C73.9085 42.8495 73.9511 42.7882 74.0048 42.709C74.1122 42.5506 74.264 42.3202 74.4463 42.0256C74.8108 41.4368 75.2989 40.5891 75.7994 39.545C76.7971 37.4637 77.8614 34.5661 78.0689 31.3624L76.4723 31.259C76.2826 34.187 75.3033 36.8784 74.3566 38.8534C73.885 39.8373 73.4257 40.6345 73.0859 41.1835C72.9161 41.4578 72.7765 41.6696 72.6805 41.8111C72.6325 41.8819 72.5955 41.9351 72.5711 41.9696C72.5589 41.9869 72.5499 41.9996 72.5442 42.0075C72.5414 42.0114 72.5394 42.0142 72.5383 42.0157C72.5377 42.0165 72.5374 42.0169 72.5372 42.0171C72.5372 42.0172 72.5372 42.0172 72.5372 42.0171C72.5373 42.0171 72.5373 42.017 72.5373 42.017C72.5374 42.0168 72.5375 42.0167 73.1833 42.4889ZM78.0689 31.3624C78.2694 28.2677 78.2694 25.5969 78.2193 23.6982C78.1942 22.7486 78.1565 21.9913 78.125 21.4699C78.1092 21.2091 78.095 21.0073 78.0846 20.8698C78.0794 20.801 78.0752 20.7483 78.0723 20.7124C78.0708 20.6944 78.0696 20.6807 78.0688 20.6712C78.0684 20.6664 78.0681 20.6627 78.0678 20.6601C78.0677 20.6588 78.0676 20.6578 78.0676 20.657C78.0675 20.6567 78.0675 20.6563 78.0675 20.6561C78.0675 20.656 78.0675 20.6558 78.0675 20.6558C78.0675 20.6557 78.0674 20.6556 77.2706 20.7266C76.4738 20.7977 76.4738 20.7977 76.4738 20.7976C76.4738 20.7976 76.4738 20.7976 76.4738 20.7976C76.4738 20.7976 76.4738 20.7977 76.4738 20.7979C76.4738 20.7982 76.4739 20.7988 76.4739 20.7997C76.4741 20.8014 76.4743 20.8042 76.4747 20.808C76.4753 20.8158 76.4763 20.8277 76.4777 20.8439C76.4803 20.8762 76.4843 20.9251 76.4892 20.9901C76.499 21.12 76.5127 21.3139 76.5279 21.5664C76.5584 22.0714 76.5953 22.8105 76.6198 23.7404C76.669 25.6008 76.669 28.2221 76.4723 31.259L78.0689 31.3624ZM77.2706 20.7266C77.659 20.0273 77.6589 20.0272 77.6587 20.0271C77.6586 20.027 77.6584 20.0269 77.6583 20.0269C77.6581 20.0267 77.6578 20.0266 77.6575 20.0264C77.657 20.0261 77.6563 20.0258 77.6556 20.0254C77.6542 20.0246 77.6526 20.0237 77.6506 20.0226C77.6468 20.0205 77.6419 20.0179 77.6359 20.0147C77.6241 20.0084 77.6082 20 77.5884 19.9898C77.5488 19.9694 77.4936 19.9419 77.4247 19.9097C77.2872 19.8453 77.093 19.7612 76.8573 19.6773C76.393 19.512 75.7331 19.3353 75.0125 19.3353V20.9353C75.4852 20.9353 75.9543 21.0542 76.3208 21.1846C76.5004 21.2486 76.647 21.3123 76.7465 21.3588C76.796 21.382 76.8334 21.4007 76.8567 21.4127C76.8683 21.4187 76.8764 21.423 76.8808 21.4253C76.8829 21.4264 76.8842 21.4271 76.8844 21.4272C76.8845 21.4273 76.8844 21.4273 76.884 21.427C76.8839 21.4269 76.8836 21.4268 76.8833 21.4266C76.8832 21.4266 76.883 21.4265 76.8828 21.4264C76.8827 21.4263 76.8826 21.4262 76.8825 21.4262C76.8824 21.4261 76.8822 21.426 77.2706 20.7266ZM75.0125 19.3353C74.1933 19.3353 73.4076 19.5644 72.9117 19.7436L73.4554 21.2484C73.8781 21.0956 74.4622 20.9353 75.0125 20.9353V19.3353ZM71.3546 20.9353C71.9049 20.9353 72.4889 21.0956 72.9117 21.2484L73.4554 19.7436C72.9594 19.5644 72.1738 19.3353 71.3546 19.3353V20.9353Z" fill="#818387" mask="url(#path-11-inside-3)"/>
<path d="M72.9376 42.808C73.024 42.5301 73.1037 42.2765 73.1752 42.0506C73.2504 42.2971 73.335 42.5764 73.4272 42.8838C73.8028 44.1372 74.3035 45.8573 74.8041 47.7251C75.3049 49.5936 75.8045 51.6061 76.1787 53.4453C76.5543 55.2915 76.798 56.9374 76.798 58.0832V58.1111V58.139V58.1668V58.1946V58.2225V58.2503V58.2782V58.306V58.3338V58.3617V58.3895V58.4173V58.4451V58.4729V58.5007V58.5285V58.5563V58.5841V58.6119V58.6396V58.6674V58.6952V58.7229V58.7507V58.7784V58.8061V58.8338V58.8616V58.8893V58.917V58.9447V58.9723V59V59.0277V59.0553V59.083V59.1106V59.1382V59.1659V59.1935V59.2211V59.2487V59.2762V59.3038V59.3313V59.3589V59.3864V59.4139V59.4414V59.4689V59.4964V59.5239V59.5513V59.5788V59.6062V59.6336V59.661V59.6884V59.7158V59.7432V59.7705V59.7978V59.8251V59.8524V59.8797V59.907V59.9343V59.9615V59.9887V60.0159V60.0431V60.0703V60.0974V60.1246V60.1517V60.1788V60.2059V60.233V60.26V60.287V60.3141V60.341V60.368V60.395V60.4219V60.4488V60.4757V60.5026V60.5295V60.5563V60.5831V60.6099V60.6367V60.6634V60.6902V60.7169V60.7436V60.7702V60.7969V60.8235V60.8501V60.8767V60.9032V60.9298V60.9563V60.9828V61.0092V61.0356V61.0621V61.0884V61.1148V61.1411V61.1675V61.1937V61.22V61.2462V61.2724V61.2986V61.3248V61.3509V61.377V61.4031V61.4292V61.4552V61.4812V61.5071V61.5331V61.559V61.5849V61.6107V61.6365V61.6623V61.6881V61.7139V61.7396V61.7652V61.7909V61.8165V61.8421V61.8677V61.8932V61.9187V61.9441V61.9696V61.995V62.0203V62.0457V62.071V62.0963V62.1215V62.1467V62.1719V62.197V62.2221V62.2472V62.2723V62.2973V62.3222V62.3472V62.3721V62.3969V62.4218V62.4466V62.4713V62.4961V62.5208V62.5454V62.57V62.5946V62.6192V62.6437V62.6681V62.6926V62.717V62.7413V62.7657V62.7899V62.8142V62.8384V62.8626V62.8867V62.9108V62.9348V62.9588V62.9828V63.0067V63.0306V63.0545V63.0783V63.1021V63.1258V63.1495V63.1731V63.1967V63.2203V63.2438V63.2673V63.2907V63.3141V63.3375V63.3608V63.384V63.4073V63.4304V63.4536V63.4767V63.4997V63.5227V63.5457V63.5686V63.5914V63.6143V63.637V63.6598V63.6825V63.7051V63.7277V63.7502V63.7727V63.7952V63.8176V63.8399V63.8623V63.8845V63.9067V63.9289V63.951V63.9731V63.9951V64.0171V64.039V64.0609V64.0827V64.1045V64.1262V64.1479V64.1695V64.1911V64.2126V64.2341V64.2555V64.2769V64.2982V64.3194V64.3407V64.3618V64.3829V64.404V64.425V64.4459V64.4668V64.4877V64.5085V64.5292V64.5499V64.5705V64.5911V64.6116V64.6321V64.6525V64.6729V64.6932V64.7134V64.7336V64.7537V64.7738V64.7938V64.8138V64.8337V64.8535V64.8733V64.8931V64.9127V64.9324V64.9519V64.9714V64.9909V65.0102V65.0296V65.0488V65.068V65.0872V65.1063V65.1253V65.1443V65.1632V65.182V65.2008V65.2195V65.2382V65.2568V65.2754V65.2938V65.3123V65.3306V65.3489V65.3671V65.3853V65.4034V65.4215V65.4394V65.4574V65.4752V65.493V65.5107V65.5284V65.546V65.5635V65.581V65.5984V65.6157V65.633V65.6502V65.6673V65.6844V65.7014V65.7183V65.7352V65.752V65.7687V65.7854V65.802V65.8185V65.835V65.8514V65.8677V65.884V65.9002V65.9163V65.9324V65.9483V65.9643V65.9801V65.9959V66.0116V66.0272V66.0428V66.0583V66.0737V66.089V66.1043V66.1195V66.1347V66.1497V66.1647V66.1796V66.1945V66.2092V66.2239V66.2386V66.2531V66.2676V66.282V66.2963V66.3106V66.3248V66.3389V66.3529V66.3668V66.3807V66.3945V66.4083V66.4219V66.4355V66.449V66.4624V66.4758V66.489V66.5022V66.5153V66.5284V66.5413V66.5542V66.567V66.5797V66.5924V66.605V66.6174V66.6299V66.6422V66.6544V66.6666V66.6787V66.6907V66.7026V66.7145V66.7263V66.7379V66.7495V66.7611V66.7725V66.7839V66.7951V66.8063V66.8175V66.8285V66.8394V66.8503V66.8611V66.8718V66.8824V66.8929V66.9034V66.9137V66.924V66.9342V66.9443V66.9543V66.9643V66.9741V66.9839V66.9936V67.0032V67.0127V67.0221V67.0314V67.0407V67.0498V67.0589V67.0679V67.0768V67.0856V67.0924H69.568V67.0883V67.08V67.0715V67.063V67.0544V67.0457V67.037V67.0281V67.0192V67.0102V67.0011V66.992V66.9827V66.9734V66.964V66.9545V66.945V66.9353V66.9256V66.9158V66.9059V66.896V66.8859V66.8758V66.8656V66.8554V66.845V66.8346V66.8241V66.8135V66.8028V66.7921V66.7813V66.7704V66.7594V66.7484V66.7372V66.726V66.7148V66.7034V66.692V66.6805V66.6689V66.6572V66.6455V66.6337V66.6218V66.6098V66.5978V66.5857V66.5735V66.5612V66.5489V66.5365V66.524V66.5114V66.4988V66.4861V66.4733V66.4604V66.4475V66.4345V66.4214V66.4082V66.395V66.3817V66.3683V66.3549V66.3414V66.3278V66.3141V66.3004V66.2865V66.2727V66.2587V66.2447V66.2306V66.2164V66.2022V66.1878V66.1735V66.159V66.1445V66.1299V66.1152V66.1005V66.0857V66.0708V66.0558V66.0408V66.0257V66.0105V65.9953V65.98V65.9646V65.9492V65.9337V65.9181V65.9025V65.8867V65.871V65.8551V65.8392V65.8232V65.8071V65.791V65.7748V65.7585V65.7422V65.7258V65.7093V65.6928V65.6762V65.6595V65.6428V65.626V65.6091V65.5922V65.5752V65.5581V65.541V65.5238V65.5065V65.4892V65.4718V65.4543V65.4368V65.4192V65.4015V65.3838V65.366V65.3482V65.3302V65.3123V65.2942V65.2761V65.2579V65.2397V65.2214V65.203V65.1846V65.1661V65.1475V65.1289V65.1102V65.0915V65.0726V65.0538V65.0348V65.0158V64.9968V64.9776V64.9584V64.9392V64.9199V64.9005V64.8811V64.8616V64.842V64.8224V64.8027V64.783V64.7632V64.7433V64.7234V64.7034V64.6834V64.6633V64.6431V64.6229V64.6026V64.5822V64.5618V64.5414V64.5208V64.5003V64.4796V64.4589V64.4382V64.4173V64.3965V64.3755V64.3545V64.3335V64.3124V64.2912V64.27V64.2487V64.2274V64.206V64.1845V64.163V64.1414V64.1198V64.0981V64.0764V64.0546V64.0327V64.0108V63.9888V63.9668V63.9447V63.9226V63.9004V63.8782V63.8559V63.8335V63.8111V63.7887V63.7661V63.7436V63.7209V63.6982V63.6755V63.6527V63.6299V63.607V63.584V63.561V63.5379V63.5148V63.4917V63.4684V63.4452V63.4218V63.3984V63.375V63.3515V63.328V63.3044V63.2808V63.2571V63.2333V63.2095V63.1857V63.1618V63.1378V63.1138V63.0897V63.0656V63.0415V63.0173V62.993V62.9687V62.9443V62.9199V62.8955V62.871V62.8464V62.8218V62.7971V62.7724V62.7477V62.7228V62.698V62.6731V62.6481V62.6231V62.5981V62.573V62.5478V62.5226V62.4974V62.4721V62.4467V62.4213V62.3959V62.3704V62.3449V62.3193V62.2937V62.268V62.2423V62.2165V62.1907V62.1648V62.1389V62.113V62.087V62.0609V62.0349V62.0087V61.9825V61.9563V61.93V61.9037V61.8774V61.8509V61.8245V61.798V61.7715V61.7449V61.7182V61.6916V61.6648V61.6381V61.6113V61.5844V61.5575V61.5306V61.5036V61.4766V61.4495V61.4224V61.3953V61.3681V61.3408V61.3136V61.2862V61.2589V61.2315V61.204V61.1765V61.149V61.1214V61.0938V61.0662V61.0385V61.0107V60.9829V60.9551V60.9273V60.8994V60.8714V60.8434V60.8154V60.7874V60.7593V60.7311V60.7029V60.6747V60.6465V60.6182V60.5898V60.5615V60.533V60.5046V60.4761V60.4476V60.419V60.3904V60.3618V60.3331V60.3043V60.2756V60.2468V60.218V60.1891V60.1602V60.1312V60.1023V60.0732V60.0442V60.0151V59.986V59.9568V59.9276V59.8984V59.8691V59.8398V59.8105V59.7811V59.7517V59.7222V59.6927V59.6632V59.6337V59.6041V59.5745V59.5448V59.5151V59.4854V59.4556V59.4258V59.396V59.3661V59.3362V59.3063V59.2764V59.2464V59.2163V59.1863V59.1562V59.1261V59.0959V59.0657V59.0355V59.0052V58.9749V58.9446V58.9143V58.8839V58.8535V58.823V58.7925V58.762V58.7315V58.7009V58.6703V58.6397V58.609V58.5783V58.5476V58.5169V58.4861V58.4553V58.4244V58.3936V58.3627V58.3317V58.3008V58.2698V58.2388V58.2077V58.1766V58.1455V58.1144V58.0832C69.568 55.485 70.5556 51.1962 71.5613 47.5145C72.0617 45.6829 72.5622 44.0166 72.9376 42.808Z" fill="#D8D8D8" stroke="#818387" stroke-width="0.8" stroke-linejoin="round"/>
<path d="M73.184 21.1648V52.2865" stroke="#9B9B9B" stroke-opacity="0.468777" stroke-linecap="round" stroke-linejoin="round"/>
</svg>
