<svg width="107" height="107" viewBox="0 0 107 107" fill="none" xmlns="http://www.w3.org/2000/svg">
<rect x="0.5" y="0.5" width="105.598" height="105.598" rx="5.5" fill="#F2F4F5" stroke="#C6CBCC"/>
<rect x="24.4" y="22.5427" width="58.4214" height="44.3688" fill="#D8D8D8" stroke="#818387" stroke-width="0.8" stroke-linejoin="round"/>
<path d="M40.6639 66.9116H31.4264V66.9109V66.8948V66.8785V66.8619V66.845V66.8278V66.8103V66.7926V66.7745V66.7562V66.7376V66.7187V66.6995V66.68V66.6603V66.6402V66.6199V66.5994V66.5785V66.5574V66.536V66.5143V66.4924V66.4702V66.4477V66.425V66.402V66.3787V66.3552V66.3314V66.3073V66.283V66.2584V66.2336V66.2085V66.1832V66.1576V66.1318V66.1057V66.0793V66.0528V66.0259V65.9988V65.9715V65.9439V65.9161V65.8881V65.8598V65.8313V65.8025V65.7735V65.7443V65.7148V65.6851V65.6551V65.625V65.5946V65.564V65.5331V65.502V65.4707V65.4392V65.4075V65.3755V65.3433V65.3109V65.2783V65.2455V65.2124V65.1791V65.1457V65.112V65.0781V65.044V65.0097V64.9751V64.9404V64.9055V64.8703V64.835V64.7995V64.7637V64.7278V64.6917V64.6554V64.6188V64.5821V64.5452V64.5081V64.4709V64.4334V64.3957V64.3579V64.3198V64.2816V64.2432V64.2047V64.1659V64.127V64.0878V64.0486V64.0091V63.9694V63.9296V63.8897V63.8495V63.8092V63.7687V63.728V63.6872V63.6462V63.605V63.5637V63.5223V63.4806V63.4388V63.3969V63.3548V63.3125V63.2701V63.2275V63.1848V63.1419V63.0989V63.0557V63.0124V62.969V62.9253V62.8816V62.8377V62.7937V62.7495V62.7052V62.6608V62.6162V62.5715V62.5266V62.4816V62.4365V62.3913V62.3459V62.3004V62.2548V62.209V62.1631V62.1172V62.071V62.0248V61.9784V61.932V61.8854V61.8387V61.7918V61.7449V61.6979V61.6507V61.6034V61.556V61.5086V61.461V61.4133V61.3655V61.3176V61.2696V61.2215V61.1733V61.125V61.0766V61.0281V60.9795V60.9308V60.8821V60.8332V60.7842V60.7352V60.6861V60.6369V60.5876V60.5382V60.4887V60.4392V60.3896V60.3399V60.2901V60.2403V60.1903V60.1403V60.0903V60.0401V59.9899V59.9396V59.8893V59.8388V59.7884V59.7378V59.6872V59.6365V59.5858V59.535V59.4841V59.4332V59.3823V59.3313V59.2802V59.2291V59.1779V59.1267V59.0754V59.0241V58.9727V58.9213V58.8698V58.8183V58.7668V58.7152V58.6636V58.6119V58.5602V58.5085V58.4567V58.4049V58.3531V58.3012V58.2493V58.1974V58.1455V58.0935V58.0415V57.9895V57.9374V57.8854V57.8333V57.7812V57.7291V57.6769V57.6248V57.5726V57.5204V57.4682V57.416V57.3638V57.3116V57.2594V57.2072V57.1549V57.1027V57.0504V56.9982V56.9459V56.8937V56.8415V56.7892V56.737V56.6848V56.6326V56.5804V56.5282V56.476V56.4238V56.3716V56.3195V56.2674V56.2153V56.1632V56.1111V56.059V56.007V55.955V55.903V55.851V55.7991V55.7472V55.6953V55.6435V55.5917V55.5399V55.4881V55.4364V55.3847V55.3331V55.2815V55.2299V55.1784V55.1269V55.0755V55.0241V54.9728V54.9215V54.8702V54.819V54.7679V54.7168V54.6657V54.6147V54.5638V54.5129V54.4621V54.4113V54.3606V54.31V54.2594V54.2089V54.1584V54.108V54.0577V54.0075V53.9573V53.9072V53.8571V53.8072V53.7573V53.7074V53.6577V53.608V53.5585V53.509V53.4595V53.4102V53.361V53.3118V53.2627V53.2137V53.1648V53.116V53.0673V53.0186V52.9701V52.9216V52.8733V52.825V52.7769V52.7288V52.6809V52.633V52.5853V52.5376V52.4901V52.4427V52.3953V52.3481V52.301V52.254V52.2071V52.1604V52.1137V52.0672V52.0208V51.9745V51.9283V51.8822V51.8363V51.7905V51.7448V51.6992V51.6538V51.6085V51.5633V51.5182V51.4733V51.4285V51.3839V51.3394V51.295V51.2507V51.2066V51.1627V51.1188V51.0752V51.0316V50.9882V50.945V50.9019V50.8589V50.8162V50.7735V50.731V50.6887V50.6465V50.6044V50.5626V50.5208V50.4793V50.4379V50.3966V50.3556V50.3147V50.2739V50.2333V50.1929V50.1527V50.1126V50.0727V50.033V49.9934V49.954V49.9148V49.8758V49.8369V49.7983V49.7598V49.7215V49.6833V49.6454V49.6076V49.5701V49.5327V49.4955V49.4585V49.4217V49.3851V49.3486V49.3124V49.2764V49.2405V49.2049V49.1695V49.1342V49.0992V49.0644V49.0297V48.9953V48.9611V48.9271V48.8933V48.8597V48.8263V48.7932V48.7602V48.7275V48.695V48.6627V48.6306V48.5987V48.5671V48.5357V48.5045V48.4735V48.4428V48.4123V48.382V48.3519V48.3221V48.2925V48.2631V48.234V48.2051V48.1765V48.1481V48.1199V48.0919V48.0643V48.0368V48.0096V47.9826V47.9559V47.9295V47.9032V47.8773V47.8515V47.8261V47.8009V47.7759V47.7512V47.7268C31.4264 46.754 31.7237 45.4379 32.1914 43.9829C32.6562 42.5369 33.2778 40.9878 33.9022 39.5614C34.5262 38.1361 35.1505 36.839 35.619 35.8979C35.7789 35.5768 35.9205 35.2973 36.0377 35.0685C36.1573 35.3113 36.3033 35.6104 36.4687 35.955C36.9376 36.9312 37.5625 38.2706 38.187 39.7246C38.8119 41.1796 39.4341 42.7439 39.8994 44.171C40.3686 45.6099 40.6639 46.8678 40.6639 47.7268V47.7486V47.7708V47.7932V47.8159V47.8388V47.8621V47.8856V47.9094V47.9334V47.9577V47.9823V48.0072V48.0323V48.0577V48.0833V48.1092V48.1353V48.1617V48.1884V48.2153V48.2425V48.2699V48.2976V48.3255V48.3537V48.3821V48.4108V48.4397V48.4689V48.4983V48.5279V48.5578V48.5879V48.6182V48.6488V48.6797V48.7107V48.742V48.7735V48.8053V48.8373V48.8695V48.9019V48.9345V48.9674V49.0005V49.0338V49.0674V49.1011V49.1351V49.1693V49.2037V49.2383V49.2732V49.3082V49.3435V49.3789V49.4146V49.4505V49.4866V49.5228V49.5593V49.596V49.6329V49.67V49.7073V49.7447V49.7824V49.8203V49.8583V49.8966V49.935V49.9736V50.0125V50.0514V50.0906V50.13V50.1695V50.2093V50.2492V50.2893V50.3295V50.37V50.4106V50.4514V50.4923V50.5334V50.5747V50.6162V50.6578V50.6996V50.7416V50.7837V50.826V50.8685V50.9111V50.9538V50.9968V51.0398V51.0831V51.1265V51.17V51.2137V51.2575V51.3015V51.3457V51.3899V51.4344V51.4789V51.5236V51.5685V51.6135V51.6586V51.7039V51.7493V51.7948V51.8405V51.8863V51.9322V51.9782V52.0244V52.0707V52.1172V52.1637V52.2104V52.2572V52.3042V52.3512V52.3984V52.4457V52.4931V52.5406V52.5882V52.6359V52.6838V52.7317V52.7798V52.828V52.8762V52.9246V52.9731V53.0217V53.0704V53.1192V53.1681V53.217V53.2661V53.3153V53.3645V53.4139V53.4633V53.5129V53.5625V53.6122V53.662V53.7119V53.7618V53.8119V53.862V53.9122V53.9625V54.0129V54.0633V54.1138V54.1644V54.215V54.2657V54.3165V54.3674V54.4183V54.4693V54.5204V54.5715V54.6227V54.6739V54.7252V54.7766V54.828V54.8794V54.931V54.9825V55.0342V55.0859V55.1376V55.1894V55.2412V55.293V55.345V55.3969V55.4489V55.5009V55.553V55.6051V55.6573V55.7095V55.7617V55.8139V55.8662V55.9185V55.9709V56.0232V56.0756V56.1281V56.1805V56.233V56.2855V56.338V56.3905V56.443V56.4956V56.5482V56.6008V56.6534V56.706V56.7586V56.8113V56.8639V56.9166V56.9692V57.0219V57.0745V57.1272V57.1799V57.2325V57.2852V57.3378V57.3905V57.4431V57.4958V57.5484V57.601V57.6536V57.7062V57.7588V57.8114V57.8639V57.9165V57.969V58.0215V58.074V58.1264V58.1788V58.2312V58.2836V58.336V58.3883V58.4406V58.4929V58.5451V58.5973V58.6494V58.7016V58.7536V58.8057V58.8577V58.9097V58.9616V59.0135V59.0653V59.1171V59.1688V59.2205V59.2722V59.3238V59.3753V59.4268V59.4782V59.5296V59.5809V59.6322V59.6834V59.7345V59.7856V59.8366V59.8875V59.9384V59.9892V60.04V60.0907V60.1413V60.1918V60.2422V60.2926V60.3429V60.3932V60.4433V60.4934V60.5434V60.5933V60.6431V60.6928V60.7425V60.792V60.8415V60.8909V60.9402V60.9894V61.0385V61.0875V61.1364V61.1852V61.2339V61.2826V61.3311V61.3795V61.4278V61.476V61.5241V61.5721V61.62V61.6677V61.7154V61.7629V61.8104V61.8577V61.9049V61.952V61.9989V62.0458V62.0925V62.1391V62.1856V62.2319V62.2782V62.3243V62.3702V62.4161V62.4618V62.5073V62.5528V62.5981V62.6433V62.6883V62.7332V62.7779V62.8225V62.867V62.9113V62.9555V62.9995V63.0434V63.0872V63.1307V63.1742V63.2175V63.2606V63.3036V63.3464V63.389V63.4315V63.4739V63.516V63.5581V63.5999V63.6416V63.6831V63.7245V63.7656V63.8066V63.8475V63.8881V63.9286V63.969V64.0091V64.0491V64.0888V64.1284V64.1679V64.2071V64.2462V64.285V64.3237V64.3622V64.4005V64.4386V64.4765V64.5143V64.5518V64.5891V64.6263V64.6632V64.7V64.7365V64.7729V64.809V64.845V64.8807V64.9162V64.9515V64.9866V65.0215V65.0562V65.0907V65.125V65.159V65.1928V65.2264V65.2598V65.293V65.3259V65.3587V65.3912V65.4234V65.4555V65.4873V65.5189V65.5503V65.5814V65.6123V65.6429V65.6734V65.7036V65.7335V65.7632V65.7927V65.8219V65.8509V65.8797V65.9081V65.9364V65.9644V65.9922V66.0197V66.0469V66.0739V66.1006V66.1271V66.1534V66.1793V66.2051V66.2305V66.2557V66.2806V66.3053V66.3297V66.3538V66.3777V66.4013V66.4246V66.4476V66.4704V66.4929V66.5152V66.5371V66.5588V66.5802V66.6013V66.6221V66.6427V66.6629V66.6829V66.7026V66.722V66.7411V66.7599V66.7785V66.7967V66.8146V66.8323V66.8496V66.8667V66.8834V66.8999V66.9116Z" fill="#D8D8D8" stroke="#818387" stroke-width="0.8" stroke-linejoin="round"/>
<path d="M40.563 21.4521C40.5987 21.4584 40.6324 21.4644 40.6639 21.4701V33.5925L37.8022 38.8065H34.3209L31.4264 33.6486V21.4701C31.4579 21.4644 31.4915 21.4584 31.5272 21.4521C31.7975 21.4044 32.1845 21.3406 32.6492 21.2767C33.5803 21.1488 34.8154 21.0219 36.0451 21.0219C37.2749 21.0219 38.51 21.1488 39.4411 21.2767C39.9058 21.3406 40.2928 21.4044 40.563 21.4521Z" fill="#D8D8D8" stroke="#818387" stroke-width="0.8" stroke-linejoin="round"/>
<path d="M58.7313 66.9116H49.4938V66.9109V66.8948V66.8785V66.8619V66.845V66.8278V66.8103V66.7926V66.7745V66.7562V66.7376V66.7187V66.6995V66.68V66.6603V66.6402V66.6199V66.5994V66.5785V66.5574V66.536V66.5143V66.4924V66.4702V66.4477V66.425V66.402V66.3787V66.3552V66.3314V66.3073V66.283V66.2584V66.2336V66.2085V66.1832V66.1576V66.1318V66.1057V66.0793V66.0528V66.0259V65.9988V65.9715V65.9439V65.9161V65.8881V65.8598V65.8313V65.8025V65.7735V65.7443V65.7148V65.6851V65.6551V65.625V65.5946V65.564V65.5331V65.502V65.4707V65.4392V65.4075V65.3755V65.3433V65.3109V65.2783V65.2455V65.2124V65.1791V65.1457V65.112V65.0781V65.044V65.0097V64.9751V64.9404V64.9055V64.8703V64.835V64.7995V64.7637V64.7278V64.6917V64.6554V64.6188V64.5821V64.5452V64.5081V64.4709V64.4334V64.3957V64.3579V64.3198V64.2816V64.2432V64.2047V64.1659V64.127V64.0878V64.0486V64.0091V63.9694V63.9296V63.8897V63.8495V63.8092V63.7687V63.728V63.6872V63.6462V63.605V63.5637V63.5223V63.4806V63.4388V63.3969V63.3548V63.3125V63.2701V63.2275V63.1848V63.1419V63.0989V63.0557V63.0124V62.969V62.9253V62.8816V62.8377V62.7937V62.7495V62.7052V62.6608V62.6162V62.5715V62.5266V62.4816V62.4365V62.3913V62.3459V62.3004V62.2548V62.209V62.1631V62.1172V62.071V62.0248V61.9784V61.932V61.8854V61.8387V61.7918V61.7449V61.6979V61.6507V61.6034V61.556V61.5086V61.461V61.4133V61.3655V61.3176V61.2696V61.2215V61.1733V61.125V61.0766V61.0281V60.9795V60.9308V60.8821V60.8332V60.7842V60.7352V60.6861V60.6369V60.5876V60.5382V60.4887V60.4392V60.3896V60.3399V60.2901V60.2403V60.1903V60.1403V60.0903V60.0401V59.9899V59.9396V59.8893V59.8388V59.7884V59.7378V59.6872V59.6365V59.5858V59.535V59.4841V59.4332V59.3823V59.3313V59.2802V59.2291V59.1779V59.1267V59.0754V59.0241V58.9727V58.9213V58.8698V58.8183V58.7668V58.7152V58.6636V58.6119V58.5602V58.5085V58.4567V58.4049V58.3531V58.3012V58.2493V58.1974V58.1455V58.0935V58.0415V57.9895V57.9374V57.8854V57.8333V57.7812V57.7291V57.6769V57.6248V57.5726V57.5204V57.4682V57.416V57.3638V57.3116V57.2594V57.2072V57.1549V57.1027V57.0504V56.9982V56.9459V56.8937V56.8415V56.7892V56.737V56.6848V56.6326V56.5804V56.5282V56.476V56.4238V56.3716V56.3195V56.2674V56.2153V56.1632V56.1111V56.059V56.007V55.955V55.903V55.851V55.7991V55.7472V55.6953V55.6435V55.5917V55.5399V55.4881V55.4364V55.3847V55.3331V55.2815V55.2299V55.1784V55.1269V55.0755V55.0241V54.9728V54.9215V54.8702V54.819V54.7679V54.7168V54.6657V54.6147V54.5638V54.5129V54.4621V54.4113V54.3606V54.31V54.2594V54.2089V54.1584V54.108V54.0577V54.0075V53.9573V53.9072V53.8571V53.8072V53.7573V53.7074V53.6577V53.608V53.5585V53.509V53.4595V53.4102V53.361V53.3118V53.2627V53.2137V53.1648V53.116V53.0673V53.0186V52.9701V52.9216V52.8733V52.825V52.7769V52.7288V52.6809V52.633V52.5853V52.5376V52.4901V52.4427V52.3953V52.3481V52.301V52.254V52.2071V52.1604V52.1137V52.0672V52.0208V51.9745V51.9283V51.8822V51.8363V51.7905V51.7448V51.6992V51.6538V51.6085V51.5633V51.5182V51.4733V51.4285V51.3839V51.3394V51.295V51.2507V51.2066V51.1627V51.1188V51.0752V51.0316V50.9882V50.945V50.9019V50.8589V50.8162V50.7735V50.731V50.6887V50.6465V50.6044V50.5626V50.5208V50.4793V50.4379V50.3966V50.3556V50.3147V50.2739V50.2333V50.1929V50.1527V50.1126V50.0727V50.033V49.9934V49.954V49.9148V49.8758V49.8369V49.7983V49.7598V49.7215V49.6833V49.6454V49.6076V49.5701V49.5327V49.4955V49.4585V49.4217V49.3851V49.3486V49.3124V49.2764V49.2405V49.2049V49.1695V49.1342V49.0992V49.0644V49.0297V48.9953V48.9611V48.9271V48.8933V48.8597V48.8263V48.7932V48.7602V48.7275V48.695V48.6627V48.6306V48.5987V48.5671V48.5357V48.5045V48.4735V48.4428V48.4123V48.382V48.3519V48.3221V48.2925V48.2631V48.234V48.2051V48.1765V48.1481V48.1199V48.0919V48.0643V48.0368V48.0096V47.9826V47.9559V47.9295V47.9032V47.8773V47.8515V47.8261V47.8009V47.7759V47.7512V47.7268C49.4938 46.754 49.7911 45.4379 50.2587 43.9829C50.7236 42.5369 51.3451 40.9878 51.9696 39.5614C52.5935 38.1361 53.2179 36.839 53.6864 35.8979C53.8463 35.5768 53.9879 35.2973 54.1051 35.0685C54.2247 35.3113 54.3706 35.6104 54.5361 35.955C55.005 36.9312 55.6299 38.2706 56.2544 39.7246C56.8793 41.1796 57.5015 42.7439 57.9668 44.171C58.436 45.6099 58.7313 46.8678 58.7313 47.7268V47.7486V47.7708V47.7932V47.8159V47.8388V47.8621V47.8856V47.9094V47.9334V47.9577V47.9823V48.0072V48.0323V48.0577V48.0833V48.1092V48.1353V48.1617V48.1884V48.2153V48.2425V48.2699V48.2976V48.3255V48.3537V48.3821V48.4108V48.4397V48.4689V48.4983V48.5279V48.5578V48.5879V48.6182V48.6488V48.6797V48.7107V48.742V48.7735V48.8053V48.8373V48.8695V48.9019V48.9345V48.9674V49.0005V49.0338V49.0674V49.1011V49.1351V49.1693V49.2037V49.2383V49.2732V49.3082V49.3435V49.3789V49.4146V49.4505V49.4866V49.5228V49.5593V49.596V49.6329V49.67V49.7073V49.7447V49.7824V49.8203V49.8583V49.8966V49.935V49.9736V50.0125V50.0514V50.0906V50.13V50.1695V50.2093V50.2492V50.2893V50.3295V50.37V50.4106V50.4514V50.4923V50.5334V50.5747V50.6162V50.6578V50.6996V50.7416V50.7837V50.826V50.8685V50.9111V50.9538V50.9968V51.0398V51.0831V51.1265V51.17V51.2137V51.2575V51.3015V51.3457V51.3899V51.4344V51.4789V51.5236V51.5685V51.6135V51.6586V51.7039V51.7493V51.7948V51.8405V51.8863V51.9322V51.9782V52.0244V52.0707V52.1172V52.1637V52.2104V52.2572V52.3042V52.3512V52.3984V52.4457V52.4931V52.5406V52.5882V52.6359V52.6838V52.7317V52.7798V52.828V52.8762V52.9246V52.9731V53.0217V53.0704V53.1192V53.1681V53.217V53.2661V53.3153V53.3645V53.4139V53.4633V53.5129V53.5625V53.6122V53.662V53.7119V53.7618V53.8119V53.862V53.9122V53.9625V54.0129V54.0633V54.1138V54.1644V54.215V54.2657V54.3165V54.3674V54.4183V54.4693V54.5204V54.5715V54.6227V54.6739V54.7252V54.7766V54.828V54.8794V54.931V54.9825V55.0342V55.0859V55.1376V55.1894V55.2412V55.293V55.345V55.3969V55.4489V55.5009V55.553V55.6051V55.6573V55.7095V55.7617V55.8139V55.8662V55.9185V55.9709V56.0232V56.0756V56.1281V56.1805V56.233V56.2855V56.338V56.3905V56.443V56.4956V56.5482V56.6008V56.6534V56.706V56.7586V56.8113V56.8639V56.9166V56.9692V57.0219V57.0745V57.1272V57.1799V57.2325V57.2852V57.3378V57.3905V57.4431V57.4958V57.5484V57.601V57.6536V57.7062V57.7588V57.8114V57.8639V57.9165V57.969V58.0215V58.074V58.1264V58.1788V58.2312V58.2836V58.336V58.3883V58.4406V58.4929V58.5451V58.5973V58.6494V58.7016V58.7536V58.8057V58.8577V58.9097V58.9616V59.0135V59.0653V59.1171V59.1688V59.2205V59.2722V59.3238V59.3753V59.4268V59.4782V59.5296V59.5809V59.6322V59.6834V59.7345V59.7856V59.8366V59.8875V59.9384V59.9892V60.04V60.0907V60.1413V60.1918V60.2422V60.2926V60.3429V60.3932V60.4433V60.4934V60.5434V60.5933V60.6431V60.6928V60.7425V60.792V60.8415V60.8909V60.9402V60.9894V61.0385V61.0875V61.1364V61.1852V61.2339V61.2826V61.3311V61.3795V61.4278V61.476V61.5241V61.5721V61.62V61.6677V61.7154V61.7629V61.8104V61.8577V61.9049V61.952V61.9989V62.0458V62.0925V62.1391V62.1856V62.2319V62.2782V62.3243V62.3702V62.4161V62.4618V62.5073V62.5528V62.5981V62.6433V62.6883V62.7332V62.7779V62.8225V62.867V62.9113V62.9555V62.9995V63.0434V63.0872V63.1307V63.1742V63.2175V63.2606V63.3036V63.3464V63.389V63.4315V63.4739V63.516V63.5581V63.5999V63.6416V63.6831V63.7245V63.7656V63.8066V63.8475V63.8881V63.9286V63.969V64.0091V64.0491V64.0888V64.1284V64.1679V64.2071V64.2462V64.285V64.3237V64.3622V64.4005V64.4386V64.4765V64.5143V64.5518V64.5891V64.6263V64.6632V64.7V64.7365V64.7729V64.809V64.845V64.8807V64.9162V64.9515V64.9866V65.0215V65.0562V65.0907V65.125V65.159V65.1928V65.2264V65.2598V65.293V65.3259V65.3587V65.3912V65.4234V65.4555V65.4873V65.5189V65.5503V65.5814V65.6123V65.6429V65.6734V65.7036V65.7335V65.7632V65.7927V65.8219V65.8509V65.8797V65.9081V65.9364V65.9644V65.9922V66.0197V66.0469V66.0739V66.1006V66.1271V66.1534V66.1793V66.2051V66.2305V66.2557V66.2806V66.3053V66.3297V66.3538V66.3777V66.4013V66.4246V66.4476V66.4704V66.4929V66.5152V66.5371V66.5588V66.5802V66.6013V66.6221V66.6427V66.6629V66.6829V66.7026V66.722V66.7411V66.7599V66.7785V66.7967V66.8146V66.8323V66.8496V66.8667V66.8834V66.8999V66.9116Z" fill="#D8D8D8" stroke="#818387" stroke-width="0.8" stroke-linejoin="round"/>
<path d="M58.6309 21.4521C58.6664 21.4584 58.6999 21.4643 58.7313 21.47V33.5925L55.8695 38.8065H52.3883L49.4938 33.6486V21.47C49.5251 21.4643 49.5586 21.4584 49.5941 21.4521C49.864 21.4043 50.2505 21.3406 50.7149 21.2767C51.6455 21.1488 52.8805 21.0219 54.1125 21.0219C55.3445 21.0219 56.5796 21.1488 57.5101 21.2767C57.9745 21.3406 58.361 21.4043 58.6309 21.4521Z" fill="#D8D8D8" stroke="#818387" stroke-width="0.8" stroke-linejoin="round"/>
<path d="M76.7986 66.9116H67.5611V66.9109V66.8948V66.8785V66.8619V66.845V66.8278V66.8103V66.7926V66.7745V66.7562V66.7376V66.7187V66.6995V66.68V66.6603V66.6402V66.6199V66.5994V66.5785V66.5574V66.536V66.5143V66.4924V66.4702V66.4477V66.425V66.402V66.3787V66.3552V66.3314V66.3073V66.283V66.2584V66.2336V66.2085V66.1832V66.1576V66.1318V66.1057V66.0793V66.0528V66.0259V65.9988V65.9715V65.9439V65.9161V65.8881V65.8598V65.8313V65.8025V65.7735V65.7443V65.7148V65.6851V65.6551V65.625V65.5946V65.564V65.5331V65.502V65.4707V65.4392V65.4075V65.3755V65.3433V65.3109V65.2783V65.2455V65.2124V65.1791V65.1457V65.112V65.0781V65.044V65.0097V64.9751V64.9404V64.9055V64.8703V64.835V64.7995V64.7637V64.7278V64.6917V64.6554V64.6188V64.5821V64.5452V64.5081V64.4709V64.4334V64.3957V64.3579V64.3198V64.2816V64.2432V64.2047V64.1659V64.127V64.0878V64.0486V64.0091V63.9694V63.9296V63.8897V63.8495V63.8092V63.7687V63.728V63.6872V63.6462V63.605V63.5637V63.5223V63.4806V63.4388V63.3969V63.3548V63.3125V63.2701V63.2275V63.1848V63.1419V63.0989V63.0557V63.0124V62.969V62.9253V62.8816V62.8377V62.7937V62.7495V62.7052V62.6608V62.6162V62.5715V62.5266V62.4816V62.4365V62.3913V62.3459V62.3004V62.2548V62.209V62.1631V62.1172V62.071V62.0248V61.9784V61.932V61.8854V61.8387V61.7918V61.7449V61.6979V61.6507V61.6034V61.556V61.5086V61.461V61.4133V61.3655V61.3176V61.2696V61.2215V61.1733V61.125V61.0766V61.0281V60.9795V60.9308V60.8821V60.8332V60.7842V60.7352V60.6861V60.6369V60.5876V60.5382V60.4887V60.4392V60.3896V60.3399V60.2901V60.2403V60.1903V60.1403V60.0903V60.0401V59.9899V59.9396V59.8893V59.8388V59.7884V59.7378V59.6872V59.6365V59.5858V59.535V59.4841V59.4332V59.3823V59.3313V59.2802V59.2291V59.1779V59.1267V59.0754V59.0241V58.9727V58.9213V58.8698V58.8183V58.7668V58.7152V58.6636V58.6119V58.5602V58.5085V58.4567V58.4049V58.3531V58.3012V58.2493V58.1974V58.1455V58.0935V58.0415V57.9895V57.9374V57.8854V57.8333V57.7812V57.7291V57.6769V57.6248V57.5726V57.5204V57.4682V57.416V57.3638V57.3116V57.2594V57.2072V57.1549V57.1027V57.0504V56.9982V56.9459V56.8937V56.8415V56.7892V56.737V56.6848V56.6326V56.5804V56.5282V56.476V56.4238V56.3716V56.3195V56.2674V56.2153V56.1632V56.1111V56.059V56.007V55.955V55.903V55.851V55.7991V55.7472V55.6953V55.6435V55.5917V55.5399V55.4881V55.4364V55.3847V55.3331V55.2815V55.2299V55.1784V55.1269V55.0755V55.0241V54.9728V54.9215V54.8702V54.819V54.7679V54.7168V54.6657V54.6147V54.5638V54.5129V54.4621V54.4113V54.3606V54.31V54.2594V54.2089V54.1584V54.108V54.0577V54.0075V53.9573V53.9072V53.8571V53.8072V53.7573V53.7074V53.6577V53.608V53.5585V53.509V53.4595V53.4102V53.361V53.3118V53.2627V53.2137V53.1648V53.116V53.0673V53.0186V52.9701V52.9216V52.8733V52.825V52.7769V52.7288V52.6809V52.633V52.5853V52.5376V52.4901V52.4427V52.3953V52.3481V52.301V52.254V52.2071V52.1604V52.1137V52.0672V52.0208V51.9745V51.9283V51.8822V51.8363V51.7905V51.7448V51.6992V51.6538V51.6085V51.5633V51.5182V51.4733V51.4285V51.3839V51.3394V51.295V51.2507V51.2066V51.1627V51.1188V51.0752V51.0316V50.9882V50.945V50.9019V50.8589V50.8162V50.7735V50.731V50.6887V50.6465V50.6044V50.5626V50.5208V50.4793V50.4379V50.3966V50.3556V50.3147V50.2739V50.2333V50.1929V50.1527V50.1126V50.0727V50.033V49.9934V49.954V49.9148V49.8758V49.8369V49.7983V49.7598V49.7215V49.6833V49.6454V49.6076V49.5701V49.5327V49.4955V49.4585V49.4217V49.3851V49.3486V49.3124V49.2764V49.2405V49.2049V49.1695V49.1342V49.0992V49.0644V49.0297V48.9953V48.9611V48.9271V48.8933V48.8597V48.8263V48.7932V48.7602V48.7275V48.695V48.6627V48.6306V48.5987V48.5671V48.5357V48.5045V48.4735V48.4428V48.4123V48.382V48.3519V48.3221V48.2925V48.2631V48.234V48.2051V48.1765V48.1481V48.1199V48.0919V48.0643V48.0368V48.0096V47.9826V47.9559V47.9295V47.9032V47.8773V47.8515V47.8261V47.8009V47.7759V47.7512V47.7268C67.5611 46.754 67.8585 45.4379 68.3261 43.9829C68.7909 42.5369 69.4125 40.9878 70.0369 39.5614C70.6609 38.1361 71.2853 36.839 71.7538 35.8979C71.9137 35.5768 72.0553 35.2973 72.1725 35.0685C72.292 35.3113 72.438 35.6104 72.6035 35.955C73.0724 36.9312 73.6972 38.2706 74.3217 39.7246C74.9467 41.1796 75.5689 42.7439 76.0342 44.171C76.5033 45.6099 76.7986 46.8678 76.7986 47.7268V47.7486V47.7708V47.7932V47.8159V47.8388V47.8621V47.8856V47.9094V47.9334V47.9577V47.9823V48.0072V48.0323V48.0577V48.0833V48.1092V48.1353V48.1617V48.1884V48.2153V48.2425V48.2699V48.2976V48.3255V48.3537V48.3821V48.4108V48.4397V48.4689V48.4983V48.5279V48.5578V48.5879V48.6182V48.6488V48.6797V48.7107V48.742V48.7735V48.8053V48.8373V48.8695V48.9019V48.9345V48.9674V49.0005V49.0338V49.0674V49.1011V49.1351V49.1693V49.2037V49.2383V49.2732V49.3082V49.3435V49.3789V49.4146V49.4505V49.4866V49.5228V49.5593V49.596V49.6329V49.67V49.7073V49.7447V49.7824V49.8203V49.8583V49.8966V49.935V49.9736V50.0125V50.0514V50.0906V50.13V50.1695V50.2093V50.2492V50.2893V50.3295V50.37V50.4106V50.4514V50.4923V50.5334V50.5747V50.6162V50.6578V50.6996V50.7416V50.7837V50.826V50.8685V50.9111V50.9538V50.9968V51.0398V51.0831V51.1265V51.17V51.2137V51.2575V51.3015V51.3457V51.3899V51.4344V51.4789V51.5236V51.5685V51.6135V51.6586V51.7039V51.7493V51.7948V51.8405V51.8863V51.9322V51.9782V52.0244V52.0707V52.1172V52.1637V52.2104V52.2572V52.3042V52.3512V52.3984V52.4457V52.4931V52.5406V52.5882V52.6359V52.6838V52.7317V52.7798V52.828V52.8762V52.9246V52.9731V53.0217V53.0704V53.1192V53.1681V53.217V53.2661V53.3153V53.3645V53.4139V53.4633V53.5129V53.5625V53.6122V53.662V53.7119V53.7618V53.8119V53.862V53.9122V53.9625V54.0129V54.0633V54.1138V54.1644V54.215V54.2657V54.3165V54.3674V54.4183V54.4693V54.5204V54.5715V54.6227V54.6739V54.7252V54.7766V54.828V54.8794V54.931V54.9825V55.0342V55.0859V55.1376V55.1894V55.2412V55.293V55.345V55.3969V55.4489V55.5009V55.553V55.6051V55.6573V55.7095V55.7617V55.8139V55.8662V55.9185V55.9709V56.0232V56.0756V56.1281V56.1805V56.233V56.2855V56.338V56.3905V56.443V56.4956V56.5482V56.6008V56.6534V56.706V56.7586V56.8113V56.8639V56.9166V56.9692V57.0219V57.0745V57.1272V57.1799V57.2325V57.2852V57.3378V57.3905V57.4431V57.4958V57.5484V57.601V57.6536V57.7062V57.7588V57.8114V57.8639V57.9165V57.969V58.0215V58.074V58.1264V58.1788V58.2312V58.2836V58.336V58.3883V58.4406V58.4929V58.5451V58.5973V58.6494V58.7016V58.7536V58.8057V58.8577V58.9097V58.9616V59.0135V59.0653V59.1171V59.1688V59.2205V59.2722V59.3238V59.3753V59.4268V59.4782V59.5296V59.5809V59.6322V59.6834V59.7345V59.7856V59.8366V59.8875V59.9384V59.9892V60.04V60.0907V60.1413V60.1918V60.2422V60.2926V60.3429V60.3932V60.4433V60.4934V60.5434V60.5933V60.6431V60.6928V60.7425V60.792V60.8415V60.8909V60.9402V60.9894V61.0385V61.0875V61.1364V61.1852V61.2339V61.2826V61.3311V61.3795V61.4278V61.476V61.5241V61.5721V61.62V61.6677V61.7154V61.7629V61.8104V61.8577V61.9049V61.952V61.9989V62.0458V62.0925V62.1391V62.1856V62.2319V62.2782V62.3243V62.3702V62.4161V62.4618V62.5073V62.5528V62.5981V62.6433V62.6883V62.7332V62.7779V62.8225V62.867V62.9113V62.9555V62.9995V63.0434V63.0872V63.1307V63.1742V63.2175V63.2606V63.3036V63.3464V63.389V63.4315V63.4739V63.516V63.5581V63.5999V63.6416V63.6831V63.7245V63.7656V63.8066V63.8475V63.8881V63.9286V63.969V64.0091V64.0491V64.0888V64.1284V64.1679V64.2071V64.2462V64.285V64.3237V64.3622V64.4005V64.4386V64.4765V64.5143V64.5518V64.5891V64.6263V64.6632V64.7V64.7365V64.7729V64.809V64.845V64.8807V64.9162V64.9515V64.9866V65.0215V65.0562V65.0907V65.125V65.159V65.1928V65.2264V65.2598V65.293V65.3259V65.3587V65.3912V65.4234V65.4555V65.4873V65.5189V65.5503V65.5814V65.6123V65.6429V65.6734V65.7036V65.7335V65.7632V65.7927V65.8219V65.8509V65.8797V65.9081V65.9364V65.9644V65.9922V66.0197V66.0469V66.0739V66.1006V66.1271V66.1534V66.1793V66.2051V66.2305V66.2557V66.2806V66.3053V66.3297V66.3538V66.3777V66.4013V66.4246V66.4476V66.4704V66.4929V66.5152V66.5371V66.5588V66.5802V66.6013V66.6221V66.6427V66.6629V66.6829V66.7026V66.722V66.7411V66.7599V66.7785V66.7967V66.8146V66.8323V66.8496V66.8667V66.8834V66.8999V66.9116Z" fill="#D8D8D8" stroke="#818387" stroke-width="0.8" stroke-linejoin="round"/>
<path d="M76.6978 21.4521C76.7335 21.4584 76.7671 21.4644 76.7986 21.4701V33.5925L73.9369 38.8065H70.4557L67.5611 33.6486V21.4701C67.5927 21.4644 67.6263 21.4584 67.662 21.4521C67.9323 21.4044 68.3193 21.3406 68.7839 21.2767C69.7151 21.1488 70.9501 21.0219 72.1799 21.0219C73.4097 21.0219 74.6447 21.1488 75.5759 21.2767C76.0405 21.3406 76.4275 21.4044 76.6978 21.4521Z" fill="#D8D8D8" stroke="#818387" stroke-width="0.8" stroke-linejoin="round"/>
<path d="M34.3955 57.274C34.3955 57.274 34.6257 51.2538 34.889 48.2403C35.1524 45.2267 35.9747 39.2065 35.9747 39.2065C35.9747 39.2065 36.7516 45.2146 36.9914 48.2403C37.2312 51.266 37.4068 57.274 37.4068 57.274" stroke="#BBBBBB" stroke-width="0.8" stroke-linecap="round" stroke-linejoin="bevel"/>
<path d="M52.4639 57.274C52.4639 57.274 52.694 51.2538 52.9574 48.2403C53.2208 45.2267 54.043 39.2065 54.043 39.2065C54.043 39.2065 54.8199 45.2146 55.0598 48.2403C55.2996 51.266 55.4751 57.274 55.4751 57.274" stroke="#BBBBBB" stroke-width="0.8" stroke-linecap="round" stroke-linejoin="bevel"/>
<path d="M70.5312 57.274C70.5312 57.274 70.7614 51.2538 71.0248 48.2403C71.2882 45.2267 72.1104 39.2065 72.1104 39.2065C72.1104 39.2065 72.8873 45.2146 73.1271 48.2403C73.367 51.266 73.5425 57.274 73.5425 57.274" stroke="#BBBBBB" stroke-width="0.8" stroke-linecap="round" stroke-linejoin="bevel"/>
<path d="M34.0371 33.5613C34.0371 33.5613 34.344 35.2336 34.6952 36.0707C35.0463 36.9077 36.1426 38.58 36.1426 38.58C36.1426 38.58 37.1785 36.9111 37.4983 36.0707C37.8181 35.2302 38.0521 33.5613 38.0521 33.5613" stroke="#BBBBBB" stroke-linecap="round" stroke-linejoin="bevel"/>
<path d="M52.1045 33.5613C52.1045 33.5613 52.4114 35.2336 52.7625 36.0707C53.1137 36.9077 54.21 38.58 54.21 38.58C54.21 38.58 55.2459 36.9111 55.5657 36.0707C55.8855 35.2302 56.1195 33.5613 56.1195 33.5613" stroke="#BBBBBB" stroke-linecap="round" stroke-linejoin="bevel"/>
<path d="M70.1729 33.5613C70.1729 33.5613 70.4797 35.2336 70.8309 36.0707C71.1821 36.9077 72.2784 38.58 72.2784 38.58C72.2784 38.58 73.3142 36.9111 73.634 36.0707C73.9538 35.2302 74.1878 33.5613 74.1878 33.5613" stroke="#BBBBBB" stroke-linecap="round" stroke-linejoin="bevel"/>
</svg>
