<svg width="107" height="107" viewBox="0 0 107 107" fill="none" xmlns="http://www.w3.org/2000/svg">
<rect x="1" y="1" width="104.598" height="104.598" rx="5" fill="white" stroke="#b8cb81" stroke-width="2"/>
<path d="M23.4 46.1378V19.8236C23.4672 19.7761 23.5643 19.7152 23.6934 19.6531C23.9963 19.5073 24.4827 19.3508 25.1818 19.3508C25.881 19.3508 26.3673 19.5073 26.6703 19.6531C26.7993 19.7152 26.8965 19.7761 26.9636 19.8236V46.1378H23.4Z" fill="#D8D8D8" stroke="#818387" stroke-width="0.8"/>
<path d="M49.5816 46.1378V19.8236C49.6488 19.7761 49.746 19.7152 49.875 19.6531C50.178 19.5073 50.6643 19.3508 51.3635 19.3508C52.0626 19.3508 52.5489 19.5073 52.8519 19.6531C52.9809 19.7152 53.0781 19.7761 53.1453 19.8236V46.1378H49.5816Z" fill="#D8D8D8" stroke="#818387" stroke-width="0.8"/>
<path d="M36.4908 46.1378V19.8236C36.558 19.7761 36.6552 19.7152 36.7842 19.6531C37.0871 19.5073 37.5735 19.3508 38.2726 19.3508C38.9718 19.3508 39.4581 19.5073 39.7611 19.6531C39.8901 19.7152 39.9873 19.7761 40.0544 19.8236V46.1378H36.4908Z" fill="#D8D8D8" stroke="#818387" stroke-width="0.8"/>
<path d="M62.6725 46.1378V19.8236C62.7396 19.7761 62.8368 19.7152 62.9658 19.6531C63.2688 19.5073 63.7551 19.3508 64.4543 19.3508C65.1534 19.3508 65.6398 19.5073 65.9427 19.6531C66.0718 19.7152 66.1689 19.7761 66.2361 19.8236V46.1378H62.6725Z" fill="#D8D8D8" stroke="#818387" stroke-width="0.8"/>
<path d="M29.9459 46.1378V19.8236C30.0131 19.7761 30.1102 19.7152 30.2393 19.6531C30.5422 19.5073 31.0286 19.3508 31.7277 19.3508C32.4269 19.3508 32.9132 19.5073 33.2162 19.6531C33.3452 19.7152 33.4424 19.7761 33.5095 19.8236V46.1378H29.9459Z" fill="#D8D8D8" stroke="#818387" stroke-width="0.8"/>
<path d="M56.1275 46.1378V19.8236C56.1947 19.7761 56.2919 19.7152 56.4209 19.6531C56.7239 19.5073 57.2102 19.3508 57.9094 19.3508C58.6085 19.3508 59.0949 19.5073 59.3978 19.6531C59.5268 19.7152 59.624 19.7761 59.6912 19.8236V46.1378H56.1275Z" fill="#D8D8D8" stroke="#818387" stroke-width="0.8"/>
<path d="M43.0367 46.1378V19.8236C43.1039 19.7761 43.201 19.7152 43.3301 19.6531C43.633 19.5073 44.1194 19.3508 44.8185 19.3508C45.5177 19.3508 46.004 19.5073 46.307 19.6531C46.436 19.7152 46.5332 19.7761 46.6004 19.8236V46.1378H43.0367Z" fill="#D8D8D8" stroke="#818387" stroke-width="0.8"/>
<path d="M69.2184 46.1378V19.8236C69.2855 19.7761 69.3827 19.7152 69.5117 19.6531C69.8147 19.5073 70.301 19.3508 71.0002 19.3508C71.6993 19.3508 72.1857 19.5073 72.4886 19.6531C72.6176 19.7152 72.7148 19.7761 72.782 19.8236V46.1378H69.2184Z" fill="#D8D8D8" stroke="#818387" stroke-width="0.8"/>
<path d="M75.7643 46.1378V19.8236C75.8314 19.7761 75.9286 19.7152 76.0576 19.6531C76.3606 19.5073 76.8469 19.3508 77.5461 19.3508C78.2452 19.3508 78.7316 19.5073 79.0345 19.6531C79.1636 19.7152 79.2607 19.7761 79.3279 19.8236V46.1378H75.7643Z" fill="#D8D8D8" stroke="#818387" stroke-width="0.8"/>
<path d="M26.6725 46.1378V19.8236C26.7396 19.7761 26.8368 19.7152 26.9658 19.6531C27.2688 19.5073 27.7551 19.3508 28.4543 19.3508C29.1534 19.3508 29.6398 19.5073 29.9427 19.6531C30.0718 19.7152 30.1689 19.7761 30.2361 19.8236V46.1378H26.6725Z" fill="#D8D8D8" stroke="#818387" stroke-width="0.8"/>
<path d="M52.8541 46.1378V19.8236C52.9213 19.7761 53.0184 19.7152 53.1475 19.6531C53.4504 19.5073 53.9368 19.3508 54.6359 19.3508C55.3351 19.3508 55.8214 19.5073 56.1243 19.6531C56.2534 19.7152 56.3506 19.7761 56.4177 19.8236V46.1378H52.8541Z" fill="#D8D8D8" stroke="#818387" stroke-width="0.8"/>
<path d="M39.7633 46.1378V19.8236C39.8304 19.7761 39.9276 19.7152 40.0567 19.6531C40.3596 19.5073 40.8459 19.3508 41.5451 19.3508C42.2443 19.3508 42.7306 19.5073 43.0335 19.6531C43.1626 19.7152 43.2598 19.7761 43.3269 19.8236V46.1378H39.7633Z" fill="#D8D8D8" stroke="#818387" stroke-width="0.8"/>
<path d="M65.9449 46.1378V19.8236C66.0121 19.7761 66.1093 19.7152 66.2383 19.6531C66.5412 19.5073 67.0276 19.3508 67.7267 19.3508C68.4259 19.3508 68.9122 19.5073 69.2152 19.6531C69.3442 19.7152 69.4414 19.7761 69.5085 19.8236V46.1378H65.9449Z" fill="#D8D8D8" stroke="#818387" stroke-width="0.8"/>
<path d="M33.2174 46.1378V19.8236C33.2845 19.7761 33.3817 19.7152 33.5108 19.6531C33.8137 19.5073 34.3 19.3508 34.9992 19.3508C35.6984 19.3508 36.1847 19.5073 36.4876 19.6531C36.6167 19.7152 36.7138 19.7761 36.781 19.8236V46.1378H33.2174Z" fill="#D8D8D8" stroke="#818387" stroke-width="0.8"/>
<path d="M59.4 46.1378V19.8236C59.4672 19.7761 59.5643 19.7152 59.6934 19.6531C59.9963 19.5073 60.4827 19.3508 61.1818 19.3508C61.881 19.3508 62.3673 19.5073 62.6703 19.6531C62.7993 19.7152 62.8965 19.7761 62.9636 19.8236V46.1378H59.4Z" fill="#D8D8D8" stroke="#818387" stroke-width="0.8"/>
<path d="M46.3092 46.1378V19.8236C46.3763 19.7761 46.4735 19.7152 46.6026 19.6531C46.9055 19.5073 47.3918 19.3508 48.091 19.3508C48.7902 19.3508 49.2765 19.5073 49.5794 19.6531C49.7085 19.7152 49.8056 19.7761 49.8728 19.8236V46.1378H46.3092Z" fill="#D8D8D8" stroke="#818387" stroke-width="0.8"/>
<path d="M72.4908 46.1378V19.8236C72.558 19.7761 72.6552 19.7152 72.7842 19.6531C73.0871 19.5073 73.5735 19.3508 74.2726 19.3508C74.9718 19.3508 75.4581 19.5073 75.7611 19.6531C75.8901 19.7152 75.9873 19.7761 76.0545 19.8236V46.1378H72.4908Z" fill="#D8D8D8" stroke="#818387" stroke-width="0.8"/>
<path d="M79.0357 46.1378V19.8236C79.1029 19.7761 79.2001 19.7152 79.3291 19.6531C79.6321 19.5073 80.1184 19.3508 80.8176 19.3508C81.5167 19.3508 82.0031 19.5073 82.306 19.6531C82.4351 19.7152 82.5322 19.7761 82.5994 19.8236V46.1378H79.0357Z" fill="#D8D8D8" stroke="#818387" stroke-width="0.8"/>
<rect x="23.4" y="45.916" width="59.2" height="19.6348" fill="#D8D8D8" stroke="#818387" stroke-width="0.8"/>
<path d="M35.0001 46.0269V54.7116" stroke="#979797" stroke-opacity="0.472957" stroke-linecap="round"/>
<path d="M51.3634 46.0269V54.7116" stroke="#979797" stroke-opacity="0.472957" stroke-linecap="round"/>
<path d="M63.3634 46.0269V60.5866" stroke="#979797" stroke-opacity="0.472957" stroke-linecap="round"/>
<path d="M74.2726 46.0269V54.7116" stroke="#979797" stroke-opacity="0.472957" stroke-linecap="round"/>
<path d="M37.1817 46.0269V57.266" stroke="#979797" stroke-opacity="0.472957" stroke-width="0.7" stroke-linecap="round"/>
<path d="M53.545 46.0269V51.6464" stroke="#979797" stroke-opacity="0.472957" stroke-width="0.7" stroke-linecap="round"/>
<path d="M49.1817 46.0269V51.6464" stroke="#979797" stroke-opacity="0.472957" stroke-width="0.7" stroke-linecap="round"/>
</svg>
