<svg width="107" height="107" viewBox="0 0 107 107" fill="none" xmlns="http://www.w3.org/2000/svg">
<rect x="0.5" y="0.5" width="105.598" height="105.598" rx="5.5" fill="#F2F4F5" stroke="#C6CBCC"/>
<g filter="url(#filter0_d)">
<rect x="23.4" y="21.4492" width="59.2" height="44.2" fill="#D8D8D8" stroke="#818387" stroke-width="0.8" stroke-linejoin="round"/>
<path d="M33.9237 41.9004C34.0362 41.579 34.1384 41.2909 34.2276 41.0419C34.3201 41.3101 34.4272 41.6232 34.5457 41.9739C34.9583 43.1956 35.5082 44.8723 36.058 46.6928C36.6081 48.514 37.1567 50.4752 37.5674 52.2668C37.98 54.0666 38.2465 55.6664 38.2465 56.7772V56.8043V56.8315V56.8586V56.8858V56.9129V56.9401V56.9672V56.9944V57.0215V57.0486V57.0757V57.1029V57.13V57.1571V57.1842V57.2113V57.2384V57.2655V57.2926V57.3196V57.3467V57.3738V57.4008V57.4279V57.4549V57.482V57.509V57.536V57.563V57.59V57.617V57.644V57.671V57.698V57.7249V57.7519V57.7788V57.8058V57.8327V57.8596V57.8865V57.9134V57.9403V57.9672V57.9941V58.0209V58.0477V58.0746V58.1014V58.1282V58.155V58.1818V58.2085V58.2353V58.262V58.2888V58.3155V58.3422V58.3689V58.3956V58.4222V58.4489V58.4755V58.5021V58.5287V58.5553V58.5819V58.6084V58.635V58.6615V58.688V58.7145V58.741V58.7674V58.7939V58.8203V58.8467V58.8731V58.8995V58.9258V58.9522V58.9785V59.0048V59.0311V59.0573V59.0836V59.1098V59.136V59.1622V59.1884V59.2145V59.2406V59.2668V59.2928V59.3189V59.3449V59.371V59.397V59.4229V59.4489V59.4748V59.5007V59.5266V59.5525V59.5783V59.6042V59.63V59.6557V59.6815V59.7072V59.7329V59.7586V59.7842V59.8099V59.8355V59.8611V59.8866V59.9121V59.9376V59.9631V59.9886V60.014V60.0394V60.0648V60.0901V60.1154V60.1407V60.166V60.1912V60.2164V60.2416V60.2668V60.2919V60.317V60.342V60.3671V60.3921V60.4171V60.442V60.4669V60.4918V60.5167V60.5415V60.5663V60.5911V60.6158V60.6405V60.6652V60.6898V60.7144V60.739V60.7636V60.7881V60.8125V60.837V60.8614V60.8858V60.9101V60.9345V60.9587V60.983V61.0072V61.0314V61.0555V61.0796V61.1037V61.1277V61.1517V61.1757V61.1996V61.2235V61.2474V61.2712V61.295V61.3188V61.3425V61.3661V61.3898V61.4134V61.437V61.4605V61.484V61.5074V61.5308V61.5542V61.5775V61.6008V61.6241V61.6473V61.6705V61.6936V61.7167V61.7397V61.7628V61.7857V61.8087V61.8316V61.8544V61.8772V61.9V61.9227V61.9454V61.968V61.9906V62.0132V62.0357V62.0582V62.0806V62.103V62.1253V62.1476V62.1699V62.1921V62.2142V62.2363V62.2584V62.2804V62.3024V62.3244V62.3463V62.3681V62.3899V62.4116V62.4334V62.455V62.4766V62.4982V62.5197V62.5412V62.5626V62.584V62.6053V62.6266V62.6478V62.669V62.6901V62.7112V62.7322V62.7532V62.7742V62.795V62.8159V62.8367V62.8574V62.8781V62.8987V62.9193V62.9398V62.9603V62.9807V63.0011V63.0214V63.0417V63.0619V63.0821V63.1022V63.1223V63.1423V63.1622V63.1821V63.202V63.2218V63.2415V63.2612V63.2808V63.3004V63.3199V63.3394V63.3588V63.3781V63.3974V63.4167V63.4359V63.455V63.474V63.4931V63.512V63.5309V63.5498V63.5686V63.5873V63.6059V63.6246V63.6431V63.6616V63.68V63.6984V63.7167V63.735V63.7532V63.7713V63.7894V63.8074V63.8254V63.8433V63.8611V63.8789V63.8966V63.9143V63.9319V63.9494V63.9669V63.9843V64.0016V64.0189V64.0361V64.0533V64.0703V64.0874V64.1043V64.1212V64.1381V64.1548V64.1716V64.1882V64.2048V64.2213V64.2377V64.2541V64.2704V64.2867V64.3029V64.319V64.3351V64.351V64.367V64.3828V64.3986V64.4143V64.43V64.4456V64.4611V64.4765V64.4919V64.5072V64.5225V64.5376V64.5527V64.5678V64.5827V64.5976V64.6125V64.6272V64.6419V64.6565V64.6711V64.6855V64.6999V64.7143V64.7285V64.7427V64.7568V64.7709V64.7848V64.7987V64.8126V64.8263V64.84V64.8536V64.8671V64.8806V64.894V64.9073V64.9205V64.9337V64.9468V64.9598V64.9727V64.9856V64.9984V65.0111V65.0237V65.0363V65.0488V65.0612V65.0735V65.0858V65.0979V65.11V65.122V65.134V65.1459V65.1576V65.1694V65.181V65.1925V65.204V65.2154V65.2267V65.238V65.2491V65.2602V65.2712V65.2821V65.2929V65.3037V65.3144V65.325V65.3355V65.3459V65.3562V65.3665V65.3767V65.3868V65.3968V65.4068V65.4166V65.4264V65.4361V65.4457V65.4552V65.4646V65.474V65.4833V65.4924V65.5015V65.5106V65.5195V65.5283V65.5371V65.5458V65.551H30.2242V65.5489V65.5407V65.5323V65.524V65.5155V65.507V65.4983V65.4896V65.4809V65.472V65.4631V65.4541V65.445V65.4358V65.4266V65.4172V65.4078V65.3984V65.3888V65.3792V65.3695V65.3597V65.3498V65.3399V65.3299V65.3198V65.3096V65.2994V65.2891V65.2787V65.2682V65.2577V65.247V65.2363V65.2256V65.2147V65.2038V65.1928V65.1817V65.1706V65.1594V65.1481V65.1367V65.1253V65.1137V65.1021V65.0905V65.0787V65.0669V65.0551V65.0431V65.0311V65.019V65.0068V64.9945V64.9822V64.9698V64.9574V64.9448V64.9322V64.9195V64.9068V64.8939V64.881V64.8681V64.855V64.8419V64.8287V64.8155V64.8022V64.7888V64.7753V64.7618V64.7482V64.7345V64.7207V64.7069V64.693V64.6791V64.665V64.651V64.6368V64.6226V64.6083V64.5939V64.5794V64.5649V64.5504V64.5357V64.521V64.5062V64.4914V64.4764V64.4615V64.4464V64.4313V64.4161V64.4008V64.3855V64.3701V64.3547V64.3391V64.3235V64.3079V64.2922V64.2764V64.2605V64.2446V64.2286V64.2125V64.1964V64.1802V64.164V64.1477V64.1313V64.1148V64.0983V64.0817V64.0651V64.0484V64.0316V64.0148V63.9979V63.9809V63.9639V63.9468V63.9296V63.9124V63.8951V63.8778V63.8604V63.8429V63.8254V63.8078V63.7901V63.7724V63.7546V63.7368V63.7189V63.7009V63.6829V63.6648V63.6466V63.6284V63.6101V63.5918V63.5734V63.5549V63.5364V63.5178V63.4991V63.4804V63.4617V63.4428V63.4239V63.405V63.386V63.3669V63.3478V63.3286V63.3093V63.29V63.2707V63.2512V63.2318V63.2122V63.1926V63.173V63.1532V63.1335V63.1136V63.0937V63.0738V63.0538V63.0337V63.0136V62.9934V62.9731V62.9528V62.9325V62.9121V62.8916V62.8711V62.8505V62.8299V62.8092V62.7884V62.7676V62.7468V62.7258V62.7049V62.6838V62.6627V62.6416V62.6204V62.5992V62.5778V62.5565V62.5351V62.5136V62.4921V62.4705V62.4489V62.4272V62.4054V62.3836V62.3618V62.3399V62.3179V62.2959V62.2738V62.2517V62.2296V62.2073V62.1851V62.1627V62.1404V62.1179V62.0954V62.0729V62.0503V62.0277V62.005V61.9822V61.9594V61.9366V61.9137V61.8907V61.8677V61.8447V61.8216V61.7984V61.7752V61.752V61.7287V61.7053V61.6819V61.6585V61.6349V61.6114V61.5878V61.5641V61.5404V61.5167V61.4929V61.469V61.4451V61.4212V61.3972V61.3731V61.3491V61.3249V61.3007V61.2765V61.2522V61.2279V61.2035V61.1791V61.1546V61.1301V61.1055V61.0809V61.0562V61.0315V61.0068V60.982V60.9571V60.9322V60.9073V60.8823V60.8573V60.8322V60.8071V60.7819V60.7567V60.7314V60.7061V60.6808V60.6554V60.6299V60.6045V60.5789V60.5534V60.5277V60.5021V60.4764V60.4506V60.4248V60.399V60.3731V60.3472V60.3212V60.2952V60.2692V60.2431V60.217V60.1908V60.1646V60.1383V60.112V60.0856V60.0593V60.0328V60.0064V59.9798V59.9533V59.9267V59.9V59.8734V59.8466V59.8199V59.7931V59.7662V59.7394V59.7124V59.6855V59.6585V59.6314V59.6043V59.5772V59.5501V59.5229V59.4956V59.4683V59.441V59.4137V59.3863V59.3588V59.3313V59.3038V59.2763V59.2487V59.2211V59.1934V59.1657V59.138V59.1102V59.0824V59.0545V59.0266V58.9987V58.9707V58.9427V58.9147V58.8866V58.8585V58.8304V58.8022V58.7739V58.7457V58.7174V58.6891V58.6607V58.6323V58.6039V58.5754V58.5469V58.5184V58.4898V58.4612V58.4325V58.4039V58.3752V58.3464V58.3176V58.2888V58.26V58.2311V58.2022V58.1732V58.1442V58.1152V58.0862V58.0571V58.028V57.9988V57.9697V57.9404V57.9112V57.8819V57.8526V57.8233V57.7939V57.7645V57.7351V57.7056V57.6761V57.6466V57.617V57.5874V57.5578V57.5281V57.4984V57.4687V57.439V57.4092V57.3794V57.3496V57.3197V57.2898V57.2599V57.2299V57.2V57.1699V57.1399V57.1098V57.0797V57.0496V57.0194V56.9893V56.959V56.9288V56.8985V56.8682V56.8379V56.8076V56.7772C30.2242 54.2531 31.3067 50.0788 32.4121 46.4877C32.9616 44.7026 33.5113 43.0784 33.9237 41.9004Z" fill="#D8D8D8" stroke="#818387" stroke-width="0.8" stroke-linejoin="round"/>
<path d="M33.0332 56.3751C33.0332 56.3751 33.2171 52.0339 33.4276 49.8608C33.638 47.6877 34.295 43.3464 34.295 43.3464C34.295 43.3464 34.9158 47.6789 35.1074 49.8608C35.299 52.0427 35.4393 56.3751 35.4393 56.3751" stroke="#BBBBBB" stroke-width="0.8" stroke-linecap="round" stroke-linejoin="round"/>
<mask id="path-5-inside-1" fill="white">
<path fill-rule="evenodd" clip-rule="evenodd" d="M34.123 41.1764C33.8049 40.7836 29.6524 35.5537 29.2383 29.7281C28.8076 23.6701 29.2383 19.7018 29.2383 19.7018C29.2383 19.7018 30.6152 19.1371 31.9089 19.1371C32.3155 19.1371 32.7272 19.1929 33.1007 19.2694C33.4636 19.1478 33.8891 19.0492 34.3146 19.0492C34.8286 19.0492 35.3425 19.193 35.7461 19.3475C35.9707 19.2946 36.2096 19.2348 36.4591 19.1677C37.9341 18.7709 39.527 19.7025 39.527 19.7025C39.527 19.7025 39.8223 23.9304 39.3917 29.9877C38.9611 36.0449 34.4878 41.2008 34.4878 41.2008H34.1233L34.123 41.1764Z"/>
</mask>
<path fill-rule="evenodd" clip-rule="evenodd" d="M34.123 41.1764C33.8049 40.7836 29.6524 35.5537 29.2383 29.7281C28.8076 23.6701 29.2383 19.7018 29.2383 19.7018C29.2383 19.7018 30.6152 19.1371 31.9089 19.1371C32.3155 19.1371 32.7272 19.1929 33.1007 19.2694C33.4636 19.1478 33.8891 19.0492 34.3146 19.0492C34.8286 19.0492 35.3425 19.193 35.7461 19.3475C35.9707 19.2946 36.2096 19.2348 36.4591 19.1677C37.9341 18.7709 39.527 19.7025 39.527 19.7025C39.527 19.7025 39.8223 23.9304 39.3917 29.9877C38.9611 36.0449 34.4878 41.2008 34.4878 41.2008H34.1233L34.123 41.1764Z" fill="#D8D8D8"/>
<path d="M34.123 41.1764L34.923 41.1675C34.9209 40.9873 34.8581 40.813 34.7447 40.673L34.123 41.1764ZM29.2383 29.7281L30.0362 29.6714L29.2383 29.7281ZM29.2383 19.7018L28.9347 18.9616C28.6633 19.0729 28.4746 19.3238 28.4429 19.6155L29.2383 19.7018ZM33.1007 19.2694L32.9401 20.0531C33.0782 20.0814 33.2212 20.0727 33.3548 20.028L33.1007 19.2694ZM35.7461 19.3475L35.4603 20.0947C35.61 20.1519 35.7735 20.1629 35.9295 20.1262L35.7461 19.3475ZM36.4591 19.1677L36.2513 18.3952L36.4591 19.1677ZM39.527 19.7025L40.3251 19.6468C40.3067 19.383 40.1591 19.1454 39.9309 19.0119L39.527 19.7025ZM39.3917 29.9877L40.1897 30.0444L39.3917 29.9877ZM34.4878 41.2008V42.0008C34.7196 42.0008 34.9401 41.9002 35.092 41.7251L34.4878 41.2008ZM34.1233 41.2008L33.3233 41.2098C33.3282 41.6481 33.6849 42.0008 34.1233 42.0008V41.2008ZM34.7447 40.673C34.6043 40.4996 33.5185 39.1357 32.42 37.1084C31.3172 35.0732 30.2319 32.4245 30.0362 29.6714L28.4403 29.7848C28.6587 32.8572 29.8567 35.7363 31.0133 37.8707C32.1741 40.013 33.3236 41.4605 33.5013 41.6799L34.7447 40.673ZM30.0362 29.6714C29.8231 26.6731 29.8233 24.194 29.8764 22.4678C29.903 21.6048 29.9427 20.9305 29.9756 20.474C29.9921 20.2458 30.0068 20.0721 30.0173 19.9565C30.0226 19.8987 30.0268 19.8555 30.0296 19.8273C30.031 19.8132 30.032 19.8028 30.0327 19.7963C30.0331 19.793 30.0333 19.7907 30.0335 19.7893C30.0335 19.7886 30.0336 19.7882 30.0336 19.788C30.0336 19.7879 30.0336 19.7878 30.0336 19.7879C30.0336 19.7879 30.0336 19.7879 30.0336 19.7879C30.0336 19.788 30.0336 19.7881 29.2383 19.7018C28.4429 19.6155 28.4429 19.6156 28.4429 19.6157C28.4429 19.6158 28.4429 19.616 28.4429 19.6161C28.4428 19.6164 28.4428 19.6167 28.4428 19.6171C28.4427 19.6178 28.4426 19.6188 28.4424 19.6201C28.4422 19.6226 28.4418 19.626 28.4413 19.6305C28.4404 19.6393 28.4391 19.6519 28.4375 19.6684C28.4342 19.7012 28.4296 19.7492 28.4239 19.8117C28.4125 19.9369 28.397 20.1205 28.3798 20.359C28.3454 20.8359 28.3044 21.5322 28.2772 22.4186C28.2226 24.191 28.2228 26.725 28.4403 29.7848L30.0362 29.6714ZM29.2383 19.7018C29.5418 20.442 29.5417 20.442 29.5416 20.4421C29.5415 20.4421 29.5414 20.4421 29.5414 20.4421C29.5413 20.4422 29.5412 20.4422 29.5411 20.4423C29.5409 20.4423 29.5409 20.4424 29.5409 20.4424C29.5409 20.4423 29.5412 20.4422 29.5419 20.4419C29.5432 20.4414 29.5458 20.4404 29.5496 20.4388C29.5573 20.4358 29.5698 20.4309 29.5869 20.4243C29.6211 20.4111 29.6734 20.3915 29.741 20.3676C29.8764 20.3196 30.0712 20.2548 30.3034 20.19C30.7771 20.0579 31.3656 19.9371 31.9089 19.9371V18.3371C31.1585 18.3371 30.4116 18.4987 29.8734 18.6489C29.5997 18.7253 29.3695 18.8017 29.2063 18.8596C29.1245 18.8885 29.0591 18.913 29.013 18.9308C28.9899 18.9396 28.9716 18.9468 28.9584 18.9521C28.9519 18.9547 28.9466 18.9568 28.9426 18.9584C28.9406 18.9592 28.939 18.9599 28.9377 18.9604C28.937 18.9607 28.9364 18.9609 28.9359 18.9611C28.9357 18.9612 28.9355 18.9613 28.9353 18.9614C28.9352 18.9614 28.935 18.9615 28.935 18.9615C28.9348 18.9616 28.9347 18.9616 29.2383 19.7018ZM31.9089 19.9371C32.2461 19.9371 32.6017 19.9838 32.9401 20.0531L33.2612 18.4857C32.8527 18.402 32.385 18.3371 31.9089 18.3371V19.9371ZM33.3548 20.028C33.6699 19.9224 34.0053 19.8492 34.3146 19.8492V18.2492C33.7729 18.2492 33.2573 18.3732 32.8465 18.5108L33.3548 20.028ZM34.3146 19.8492C34.6915 19.8492 35.1021 19.9576 35.4603 20.0947L36.032 18.6003C35.5829 18.4285 34.9656 18.2492 34.3146 18.2492V19.8492ZM36.2513 18.3952C36.0104 18.46 35.7798 18.5177 35.5627 18.5688L35.9295 20.1262C36.1617 20.0715 36.4087 20.0097 36.6669 19.9403L36.2513 18.3952ZM39.527 19.7025C39.9309 19.0119 39.9307 19.0118 39.9305 19.0117C39.9304 19.0116 39.9302 19.0115 39.93 19.0114C39.9297 19.0112 39.9294 19.011 39.929 19.0108C39.9283 19.0104 39.9274 19.0099 39.9265 19.0094C39.9247 19.0083 39.9224 19.007 39.9198 19.0055C39.9145 19.0025 39.9076 18.9986 39.8993 18.9939C39.8826 18.9846 39.8598 18.972 39.8314 18.9569C39.7746 18.9267 39.6949 18.886 39.5958 18.8393C39.3984 18.7464 39.1191 18.6279 38.7863 18.5232C38.1376 18.3191 37.1996 18.1401 36.2513 18.3952L36.6669 19.9403C37.1935 19.7986 37.7895 19.8869 38.3061 20.0494C38.5558 20.128 38.767 20.2176 38.9144 20.287C38.9877 20.3215 39.044 20.3504 39.0801 20.3696C39.0981 20.3791 39.111 20.3863 39.1183 20.3904C39.122 20.3924 39.1243 20.3937 39.1251 20.3942C39.1255 20.3944 39.1256 20.3945 39.1252 20.3943C39.1251 20.3942 39.1248 20.394 39.1245 20.3938C39.1243 20.3937 39.1241 20.3936 39.1239 20.3935C39.1238 20.3934 39.1236 20.3933 39.1236 20.3933C39.1234 20.3932 39.1232 20.3931 39.527 19.7025ZM40.1897 30.0444C40.4068 26.9902 40.441 24.3967 40.4208 22.5648C40.4107 21.6486 40.387 20.9224 40.3657 20.4236C40.3551 20.1743 40.345 19.9817 40.3376 19.8507C40.3339 19.7852 40.3308 19.735 40.3286 19.7008C40.3276 19.6837 40.3267 19.6706 40.3261 19.6616C40.3258 19.6571 40.3256 19.6536 40.3254 19.6511C40.3253 19.6499 40.3252 19.6489 40.3252 19.6482C40.3252 19.6478 40.3251 19.6475 40.3251 19.6473C40.3251 19.6472 40.3251 19.647 40.3251 19.647C40.3251 19.6469 40.3251 19.6468 39.527 19.7025C38.729 19.7582 38.729 19.7582 38.729 19.7581C38.729 19.7581 38.729 19.7581 38.729 19.7581C38.729 19.7581 38.729 19.7582 38.729 19.7584C38.729 19.7587 38.7291 19.7592 38.7291 19.7601C38.7292 19.7617 38.7294 19.7643 38.7296 19.768C38.7301 19.7753 38.7309 19.7867 38.7319 19.8021C38.7338 19.8328 38.7367 19.8794 38.7402 19.9413C38.7472 20.0652 38.7569 20.2502 38.7672 20.4919C38.7878 20.9751 38.811 21.6844 38.8209 22.5824C38.8407 24.3787 38.8072 26.9278 38.5937 29.9309L40.1897 30.0444ZM34.4878 41.2008C35.092 41.7251 35.0922 41.7249 35.0924 41.7247C35.0924 41.7246 35.0926 41.7244 35.0928 41.7242C35.0931 41.7239 35.0935 41.7234 35.0939 41.7229C35.0949 41.7218 35.096 41.7205 35.0975 41.7188C35.1004 41.7154 35.1043 41.7108 35.1093 41.705C35.1193 41.6933 35.1334 41.6766 35.1514 41.6551C35.1874 41.6122 35.2388 41.55 35.3037 41.4695C35.4334 41.3085 35.6169 41.0743 35.8374 40.7753C36.2779 40.1777 36.8682 39.3181 37.4724 38.2634C38.6746 36.1649 39.9624 33.2412 40.1897 30.0444L38.5937 29.9309C38.3903 32.7914 37.2262 35.4743 36.0841 37.4681C35.5161 38.4595 34.9612 39.2675 34.5495 39.8259C34.3439 40.1048 34.1745 40.3208 34.0579 40.4655C33.9996 40.5378 33.9546 40.5922 33.9248 40.6278C33.9099 40.6455 33.8989 40.6586 33.8919 40.6668C33.8884 40.6708 33.8859 40.6737 33.8845 40.6754C33.8838 40.6762 33.8834 40.6767 33.8832 40.6769C33.8831 40.677 33.8831 40.677 33.8832 40.677C33.8832 40.6769 33.8833 40.6768 33.8833 40.6768C33.8834 40.6767 33.8835 40.6766 34.4878 41.2008ZM34.1233 42.0008H34.4878V40.4008H34.1233V42.0008ZM33.3231 41.1853L33.3233 41.2098L34.9232 41.1919L34.923 41.1675L33.3231 41.1853Z" fill="#818387" mask="url(#path-5-inside-1)"/>
<path d="M32.4824 20.6331C32.4824 20.6331 32.7523 26.4099 33.0612 29.5707C33.3701 32.7316 34.3343 39.4665 34.3343 39.4665C34.3343 39.4665 35.2453 32.7444 35.5266 29.5707C35.8078 26.3971 36.0443 20.6331 36.0443 20.6331" stroke="#BBBBBB" stroke-width="0.8" stroke-linecap="round" stroke-linejoin="round"/>
<path d="M52.91 41.9004C53.0225 41.579 53.1248 41.2909 53.214 41.0419C53.3065 41.3101 53.4135 41.6232 53.532 41.9739C53.9446 43.1956 54.4946 44.8723 55.0444 46.6928C55.5944 48.514 56.143 50.4752 56.5537 52.2668C56.9663 54.0666 57.2329 55.6664 57.2329 56.7772V56.8043V56.8315V56.8586V56.8858V56.9129V56.9401V56.9672V56.9944V57.0215V57.0486V57.0757V57.1029V57.13V57.1571V57.1842V57.2113V57.2384V57.2655V57.2926V57.3196V57.3467V57.3738V57.4008V57.4279V57.4549V57.482V57.509V57.536V57.563V57.59V57.617V57.644V57.671V57.698V57.7249V57.7519V57.7788V57.8058V57.8327V57.8596V57.8865V57.9134V57.9403V57.9672V57.9941V58.0209V58.0477V58.0746V58.1014V58.1282V58.155V58.1818V58.2085V58.2353V58.262V58.2888V58.3155V58.3422V58.3689V58.3956V58.4222V58.4489V58.4755V58.5021V58.5287V58.5553V58.5819V58.6084V58.635V58.6615V58.688V58.7145V58.741V58.7674V58.7939V58.8203V58.8467V58.8731V58.8995V58.9258V58.9522V58.9785V59.0048V59.0311V59.0573V59.0836V59.1098V59.136V59.1622V59.1884V59.2145V59.2406V59.2668V59.2928V59.3189V59.3449V59.371V59.397V59.4229V59.4489V59.4748V59.5007V59.5266V59.5525V59.5783V59.6042V59.63V59.6557V59.6815V59.7072V59.7329V59.7586V59.7842V59.8099V59.8355V59.8611V59.8866V59.9121V59.9376V59.9631V59.9886V60.014V60.0394V60.0648V60.0901V60.1154V60.1407V60.166V60.1912V60.2164V60.2416V60.2668V60.2919V60.317V60.342V60.3671V60.3921V60.4171V60.442V60.4669V60.4918V60.5167V60.5415V60.5663V60.5911V60.6158V60.6405V60.6652V60.6898V60.7144V60.739V60.7636V60.7881V60.8125V60.837V60.8614V60.8858V60.9101V60.9345V60.9587V60.983V61.0072V61.0314V61.0555V61.0796V61.1037V61.1277V61.1517V61.1757V61.1996V61.2235V61.2474V61.2712V61.295V61.3188V61.3425V61.3661V61.3898V61.4134V61.437V61.4605V61.484V61.5074V61.5308V61.5542V61.5775V61.6008V61.6241V61.6473V61.6705V61.6936V61.7167V61.7397V61.7628V61.7857V61.8087V61.8316V61.8544V61.8772V61.9V61.9227V61.9454V61.968V61.9906V62.0132V62.0357V62.0582V62.0806V62.103V62.1253V62.1476V62.1699V62.1921V62.2142V62.2363V62.2584V62.2804V62.3024V62.3244V62.3463V62.3681V62.3899V62.4116V62.4334V62.455V62.4766V62.4982V62.5197V62.5412V62.5626V62.584V62.6053V62.6266V62.6478V62.669V62.6901V62.7112V62.7322V62.7532V62.7742V62.795V62.8159V62.8367V62.8574V62.8781V62.8987V62.9193V62.9398V62.9603V62.9807V63.0011V63.0214V63.0417V63.0619V63.0821V63.1022V63.1223V63.1423V63.1622V63.1821V63.202V63.2218V63.2415V63.2612V63.2808V63.3004V63.3199V63.3394V63.3588V63.3781V63.3974V63.4167V63.4359V63.455V63.474V63.4931V63.512V63.5309V63.5498V63.5686V63.5873V63.6059V63.6246V63.6431V63.6616V63.68V63.6984V63.7167V63.735V63.7532V63.7713V63.7894V63.8074V63.8254V63.8433V63.8611V63.8789V63.8966V63.9143V63.9319V63.9494V63.9669V63.9843V64.0016V64.0189V64.0361V64.0533V64.0703V64.0874V64.1043V64.1212V64.1381V64.1548V64.1716V64.1882V64.2048V64.2213V64.2377V64.2541V64.2704V64.2867V64.3029V64.319V64.3351V64.351V64.367V64.3828V64.3986V64.4143V64.43V64.4456V64.4611V64.4765V64.4919V64.5072V64.5225V64.5376V64.5527V64.5678V64.5827V64.5976V64.6125V64.6272V64.6419V64.6565V64.6711V64.6855V64.6999V64.7143V64.7285V64.7427V64.7568V64.7709V64.7848V64.7987V64.8126V64.8263V64.84V64.8536V64.8671V64.8806V64.894V64.9073V64.9205V64.9337V64.9468V64.9598V64.9727V64.9856V64.9984V65.0111V65.0237V65.0363V65.0488V65.0612V65.0735V65.0858V65.0979V65.11V65.122V65.134V65.1459V65.1576V65.1694V65.181V65.1925V65.204V65.2154V65.2267V65.238V65.2491V65.2602V65.2712V65.2821V65.2929V65.3037V65.3144V65.325V65.3355V65.3459V65.3562V65.3665V65.3767V65.3868V65.3968V65.4068V65.4166V65.4264V65.4361V65.4457V65.4552V65.4646V65.474V65.4833V65.4924V65.5015V65.5106V65.5195V65.5283V65.5371V65.5458V65.551H49.2105V65.5489V65.5407V65.5323V65.524V65.5155V65.507V65.4983V65.4896V65.4809V65.472V65.4631V65.4541V65.445V65.4358V65.4266V65.4172V65.4078V65.3984V65.3888V65.3792V65.3695V65.3597V65.3498V65.3399V65.3299V65.3198V65.3096V65.2994V65.2891V65.2787V65.2682V65.2577V65.247V65.2363V65.2256V65.2147V65.2038V65.1928V65.1817V65.1706V65.1594V65.1481V65.1367V65.1253V65.1137V65.1021V65.0905V65.0787V65.0669V65.0551V65.0431V65.0311V65.019V65.0068V64.9945V64.9822V64.9698V64.9574V64.9448V64.9322V64.9195V64.9068V64.8939V64.881V64.8681V64.855V64.8419V64.8287V64.8155V64.8022V64.7888V64.7753V64.7618V64.7482V64.7345V64.7207V64.7069V64.693V64.6791V64.665V64.651V64.6368V64.6226V64.6083V64.5939V64.5794V64.5649V64.5504V64.5357V64.521V64.5062V64.4914V64.4764V64.4615V64.4464V64.4313V64.4161V64.4008V64.3855V64.3701V64.3547V64.3391V64.3235V64.3079V64.2922V64.2764V64.2605V64.2446V64.2286V64.2125V64.1964V64.1802V64.164V64.1477V64.1313V64.1148V64.0983V64.0817V64.0651V64.0484V64.0316V64.0148V63.9979V63.9809V63.9639V63.9468V63.9296V63.9124V63.8951V63.8778V63.8604V63.8429V63.8254V63.8078V63.7901V63.7724V63.7546V63.7368V63.7189V63.7009V63.6829V63.6648V63.6466V63.6284V63.6101V63.5918V63.5734V63.5549V63.5364V63.5178V63.4991V63.4804V63.4617V63.4428V63.4239V63.405V63.386V63.3669V63.3478V63.3286V63.3093V63.29V63.2707V63.2512V63.2318V63.2122V63.1926V63.173V63.1532V63.1335V63.1136V63.0937V63.0738V63.0538V63.0337V63.0136V62.9934V62.9731V62.9528V62.9325V62.9121V62.8916V62.8711V62.8505V62.8299V62.8092V62.7884V62.7676V62.7468V62.7258V62.7049V62.6838V62.6627V62.6416V62.6204V62.5992V62.5778V62.5565V62.5351V62.5136V62.4921V62.4705V62.4489V62.4272V62.4054V62.3836V62.3618V62.3399V62.3179V62.2959V62.2738V62.2517V62.2296V62.2073V62.1851V62.1627V62.1404V62.1179V62.0954V62.0729V62.0503V62.0277V62.005V61.9822V61.9594V61.9366V61.9137V61.8907V61.8677V61.8447V61.8216V61.7984V61.7752V61.752V61.7287V61.7053V61.6819V61.6585V61.6349V61.6114V61.5878V61.5641V61.5404V61.5167V61.4929V61.469V61.4451V61.4212V61.3972V61.3731V61.3491V61.3249V61.3007V61.2765V61.2522V61.2279V61.2035V61.1791V61.1546V61.1301V61.1055V61.0809V61.0562V61.0315V61.0068V60.982V60.9571V60.9322V60.9073V60.8823V60.8573V60.8322V60.8071V60.7819V60.7567V60.7314V60.7061V60.6808V60.6554V60.6299V60.6045V60.5789V60.5534V60.5277V60.5021V60.4764V60.4506V60.4248V60.399V60.3731V60.3472V60.3212V60.2952V60.2692V60.2431V60.217V60.1908V60.1646V60.1383V60.112V60.0856V60.0593V60.0328V60.0064V59.9798V59.9533V59.9267V59.9V59.8734V59.8466V59.8199V59.7931V59.7662V59.7394V59.7124V59.6855V59.6585V59.6314V59.6043V59.5772V59.5501V59.5229V59.4956V59.4683V59.441V59.4137V59.3863V59.3588V59.3313V59.3038V59.2763V59.2487V59.2211V59.1934V59.1657V59.138V59.1102V59.0824V59.0545V59.0266V58.9987V58.9707V58.9427V58.9147V58.8866V58.8585V58.8304V58.8022V58.7739V58.7457V58.7174V58.6891V58.6607V58.6323V58.6039V58.5754V58.5469V58.5184V58.4898V58.4612V58.4325V58.4039V58.3752V58.3464V58.3176V58.2888V58.26V58.2311V58.2022V58.1732V58.1442V58.1152V58.0862V58.0571V58.028V57.9988V57.9697V57.9404V57.9112V57.8819V57.8526V57.8233V57.7939V57.7645V57.7351V57.7056V57.6761V57.6466V57.617V57.5874V57.5578V57.5281V57.4984V57.4687V57.439V57.4092V57.3794V57.3496V57.3197V57.2898V57.2599V57.2299V57.2V57.1699V57.1399V57.1098V57.0797V57.0496V57.0194V56.9893V56.959V56.9288V56.8985V56.8682V56.8379V56.8076V56.7772C49.2105 54.2531 50.293 50.0788 51.3984 46.4877C51.9479 44.7026 52.4976 43.0784 52.91 41.9004Z" fill="#D8D8D8" stroke="#818387" stroke-width="0.8" stroke-linejoin="round"/>
<path d="M52.0195 56.3751C52.0195 56.3751 52.2034 52.0339 52.4139 49.8608C52.6243 47.6877 53.2813 43.3464 53.2813 43.3464C53.2813 43.3464 53.9021 47.6789 54.0937 49.8608C54.2854 52.0427 54.4256 56.3751 54.4256 56.3751" stroke="#BBBBBB" stroke-width="0.8" stroke-linecap="round" stroke-linejoin="round"/>
<mask id="path-10-inside-2" fill="white">
<path fill-rule="evenodd" clip-rule="evenodd" d="M53.1094 41.1765C52.7918 40.7842 48.6387 35.554 48.2246 29.7281C47.794 23.6701 48.2246 19.7018 48.2246 19.7018C48.2246 19.7018 49.6015 19.1371 50.8953 19.1371C51.3019 19.1371 51.7136 19.1929 52.087 19.2694C52.4499 19.1478 52.8755 19.0492 53.301 19.0492C53.8149 19.0492 54.3289 19.193 54.7325 19.3475C54.9571 19.2946 55.1959 19.2348 55.4455 19.1677C56.9204 18.7709 58.5134 19.7025 58.5134 19.7025C58.5134 19.7025 58.8087 23.9304 58.378 29.9877C57.9474 36.0449 53.4741 41.2008 53.4741 41.2008H53.1097L53.1094 41.1765Z"/>
</mask>
<path fill-rule="evenodd" clip-rule="evenodd" d="M53.1094 41.1765C52.7918 40.7842 48.6387 35.554 48.2246 29.7281C47.794 23.6701 48.2246 19.7018 48.2246 19.7018C48.2246 19.7018 49.6015 19.1371 50.8953 19.1371C51.3019 19.1371 51.7136 19.1929 52.087 19.2694C52.4499 19.1478 52.8755 19.0492 53.301 19.0492C53.8149 19.0492 54.3289 19.193 54.7325 19.3475C54.9571 19.2946 55.1959 19.2348 55.4455 19.1677C56.9204 18.7709 58.5134 19.7025 58.5134 19.7025C58.5134 19.7025 58.8087 23.9304 58.378 29.9877C57.9474 36.0449 53.4741 41.2008 53.4741 41.2008H53.1097L53.1094 41.1765Z" fill="#D8D8D8"/>
<path d="M53.1094 41.1765L53.9093 41.1676C53.9073 40.9873 53.8445 40.8131 53.7311 40.673L53.1094 41.1765ZM48.2246 29.7281L47.4266 29.7848L48.2246 29.7281ZM48.2246 19.7018L47.9211 18.9616C47.6496 19.0729 47.4609 19.3238 47.4293 19.6155L48.2246 19.7018ZM52.087 19.2694L51.9265 20.0531C52.0645 20.0814 52.2075 20.0727 52.3411 20.028L52.087 19.2694ZM54.7325 19.3475L54.4467 20.0947C54.5964 20.1519 54.7599 20.1629 54.9159 20.1262L54.7325 19.3475ZM55.4455 19.1677L55.6533 19.9403L55.4455 19.1677ZM58.5134 19.7025L59.3115 19.6468C59.293 19.383 59.1455 19.1454 58.9173 19.0119L58.5134 19.7025ZM58.378 29.9877L57.5801 29.9309L58.378 29.9877ZM53.4741 41.2008V42.0008C53.706 42.0008 53.9265 41.9002 54.0784 41.7251L53.4741 41.2008ZM53.1097 41.2008L52.3097 41.2098C52.3146 41.6481 52.6713 42.0008 53.1097 42.0008V41.2008ZM53.7311 40.673C53.5909 40.4999 52.5051 39.1361 51.4065 37.1088C50.3037 35.0736 49.2183 32.4247 49.0226 29.6714L47.4266 29.7848C47.645 32.8574 48.8432 35.7366 49.9998 37.8711C51.1607 40.0134 52.3102 41.4608 52.4877 41.6799L53.7311 40.673ZM49.0226 29.6714C48.8095 26.6731 48.8096 24.194 48.8627 22.4678C48.8893 21.6048 48.9291 20.9305 48.962 20.474C48.9784 20.2458 48.9931 20.0721 49.0036 19.9565C49.0089 19.8987 49.0131 19.8555 49.0159 19.8273C49.0173 19.8132 49.0184 19.8028 49.0191 19.7963C49.0194 19.793 49.0196 19.7907 49.0198 19.7893C49.0199 19.7886 49.0199 19.7882 49.0199 19.788C49.0199 19.7879 49.0199 19.7878 49.0199 19.7879C49.0199 19.7879 49.0199 19.7879 49.0199 19.7879C49.0199 19.788 49.0199 19.7881 48.2246 19.7018C47.4293 19.6155 47.4292 19.6156 47.4292 19.6157C47.4292 19.6158 47.4292 19.616 47.4292 19.6161C47.4292 19.6164 47.4291 19.6167 47.4291 19.6171C47.429 19.6178 47.4289 19.6188 47.4288 19.6201C47.4285 19.6226 47.4281 19.626 47.4277 19.6305C47.4268 19.6393 47.4255 19.6519 47.4238 19.6684C47.4205 19.7012 47.4159 19.7492 47.4102 19.8117C47.3988 19.9369 47.3833 20.1205 47.3661 20.359C47.3317 20.8359 47.2908 21.5322 47.2635 22.4186C47.2089 24.191 47.2091 26.725 47.4266 29.7848L49.0226 29.6714ZM48.2246 19.7018C48.5281 20.442 48.528 20.442 48.5279 20.4421C48.5279 20.4421 48.5278 20.4421 48.5277 20.4421C48.5276 20.4422 48.5275 20.4422 48.5274 20.4423C48.5273 20.4423 48.5272 20.4424 48.5272 20.4424C48.5272 20.4423 48.5276 20.4422 48.5282 20.4419C48.5295 20.4414 48.5321 20.4404 48.536 20.4388C48.5436 20.4358 48.5562 20.4309 48.5733 20.4243C48.6075 20.4111 48.6597 20.3915 48.7273 20.3676C48.8627 20.3196 49.0576 20.2548 49.2898 20.19C49.7635 20.0579 50.3519 19.9371 50.8953 19.9371V18.3371C50.1448 18.3371 49.398 18.4987 48.8598 18.6489C48.586 18.7253 48.3558 18.8017 48.1926 18.8596C48.1108 18.8885 48.0454 18.913 47.9993 18.9308C47.9762 18.9396 47.9579 18.9468 47.9448 18.9521C47.9382 18.9547 47.9329 18.9568 47.9289 18.9584C47.9269 18.9592 47.9253 18.9599 47.924 18.9604C47.9233 18.9607 47.9227 18.9609 47.9223 18.9611C47.922 18.9612 47.9218 18.9613 47.9216 18.9614C47.9215 18.9614 47.9214 18.9615 47.9213 18.9615C47.9212 18.9616 47.9211 18.9616 48.2246 19.7018ZM50.8953 19.9371C51.2324 19.9371 51.5881 19.9838 51.9265 20.0531L52.2475 18.4857C51.8391 18.402 51.3713 18.3371 50.8953 18.3371V19.9371ZM52.3411 20.028C52.6562 19.9224 52.9917 19.8492 53.301 19.8492V18.2492C52.7593 18.2492 52.2436 18.3732 51.8329 18.5108L52.3411 20.028ZM53.301 19.8492C53.6779 19.8492 54.0884 19.9576 54.4467 20.0947L55.0184 18.6003C54.5693 18.4285 53.952 18.2492 53.301 18.2492V19.8492ZM55.2376 18.3952C54.9968 18.46 54.7661 18.5177 54.5491 18.5688L54.9159 20.1262C55.1481 20.0715 55.3951 20.0097 55.6533 19.9403L55.2376 18.3952ZM58.5134 19.7025C58.9173 19.0119 58.9171 19.0118 58.9168 19.0117C58.9168 19.0116 58.9165 19.0115 58.9164 19.0114C58.9161 19.0112 58.9157 19.011 58.9154 19.0108C58.9146 19.0104 58.9138 19.0099 58.9129 19.0094C58.911 19.0083 58.9088 19.007 58.9061 19.0055C58.9008 19.0025 58.894 18.9986 58.8856 18.9939C58.8689 18.9846 58.8461 18.972 58.8177 18.9569C58.7609 18.9267 58.6813 18.886 58.5821 18.8393C58.3847 18.7464 58.1055 18.6279 57.7726 18.5232C57.124 18.3191 56.186 18.1401 55.2376 18.3952L55.6533 19.9403C56.1799 19.7986 56.7759 19.8869 57.2925 20.0494C57.5422 20.128 57.7534 20.2176 57.9008 20.287C57.974 20.3215 58.0303 20.3504 58.0664 20.3696C58.0844 20.3791 58.0973 20.3863 58.1047 20.3904C58.1083 20.3924 58.1106 20.3937 58.1115 20.3942C58.1119 20.3944 58.1119 20.3945 58.1116 20.3943C58.1115 20.3942 58.1112 20.394 58.1109 20.3938C58.1107 20.3937 58.1105 20.3936 58.1103 20.3935C58.1102 20.3934 58.11 20.3933 58.1099 20.3933C58.1097 20.3932 58.1095 20.3931 58.5134 19.7025ZM59.176 30.0444C59.3931 26.9902 59.4273 24.3967 59.4072 22.5648C59.3971 21.6486 59.3734 20.9224 59.3521 20.4236C59.3414 20.1743 59.3314 19.9817 59.324 19.8507C59.3202 19.7852 59.3172 19.735 59.315 19.7008C59.3139 19.6837 59.3131 19.6706 59.3125 19.6616C59.3122 19.6571 59.3119 19.6536 59.3118 19.6511C59.3117 19.6499 59.3116 19.6489 59.3116 19.6482C59.3115 19.6478 59.3115 19.6475 59.3115 19.6473C59.3115 19.6472 59.3115 19.647 59.3115 19.647C59.3115 19.6469 59.3115 19.6468 58.5134 19.7025C57.7153 19.7582 57.7153 19.7582 57.7153 19.7581C57.7153 19.7581 57.7153 19.7581 57.7153 19.7581C57.7153 19.7581 57.7153 19.7582 57.7154 19.7584C57.7154 19.7587 57.7154 19.7592 57.7155 19.7601C57.7156 19.7617 57.7158 19.7643 57.716 19.768C57.7165 19.7753 57.7172 19.7867 57.7182 19.8021C57.7202 19.8328 57.723 19.8794 57.7265 19.9413C57.7336 20.0652 57.7432 20.2502 57.7535 20.4919C57.7742 20.9751 57.7974 21.6844 57.8073 22.5824C57.827 24.3787 57.7935 26.9278 57.5801 29.9309L59.176 30.0444ZM53.4741 41.2008C54.0784 41.7251 54.0786 41.7249 54.0787 41.7247C54.0788 41.7246 54.079 41.7244 54.0792 41.7242C54.0795 41.7239 54.0799 41.7234 54.0803 41.7229C54.0812 41.7218 54.0824 41.7205 54.0839 41.7188C54.0868 41.7154 54.0907 41.7108 54.0957 41.705C54.1057 41.6933 54.1198 41.6766 54.1378 41.6551C54.1737 41.6122 54.2252 41.55 54.2901 41.4695C54.4198 41.3085 54.6033 41.0743 54.8238 40.7753C55.2643 40.1777 55.8546 39.3181 56.4588 38.2634C57.6609 36.1649 58.9488 33.2412 59.176 30.0444L57.5801 29.9309C57.3767 32.7914 56.2126 35.4743 55.0704 37.4681C54.5025 38.4595 53.9475 39.2675 53.5359 39.8259C53.3302 40.1048 53.1609 40.3208 53.0443 40.4655C52.986 40.5378 52.941 40.5922 52.9112 40.6278C52.8963 40.6455 52.8853 40.6586 52.8783 40.6668C52.8748 40.6708 52.8723 40.6737 52.8709 40.6754C52.8702 40.6762 52.8698 40.6767 52.8696 40.6769C52.8695 40.677 52.8695 40.677 52.8695 40.677C52.8696 40.6769 52.8696 40.6768 52.8697 40.6768C52.8698 40.6767 52.8699 40.6766 53.4741 41.2008ZM53.1097 42.0008H53.4741V40.4008H53.1097V42.0008ZM52.3094 41.1854L52.3097 41.2098L53.9096 41.1919L53.9093 41.1676L52.3094 41.1854Z" fill="#818387" mask="url(#path-10-inside-2)"/>
<path d="M51.4688 20.6331C51.4688 20.6331 51.7386 26.4099 52.0475 29.5707C52.3564 32.7316 53.3206 39.4665 53.3206 39.4665C53.3206 39.4665 54.2317 32.7444 54.5129 29.5707C54.7942 26.3971 55.0306 20.6331 55.0306 20.6331" stroke="#BBBBBB" stroke-width="0.8" stroke-linecap="round" stroke-linejoin="round"/>
<path d="M72.1815 41.9004C72.294 41.579 72.3963 41.2909 72.4855 41.0419C72.5779 41.3101 72.685 41.6232 72.8035 41.9739C73.2161 43.1956 73.7661 44.8723 74.3159 46.6928C74.8659 48.514 75.4145 50.4752 75.8252 52.2668C76.2378 54.0666 76.5044 55.6664 76.5044 56.7772V56.8043V56.8315V56.8586V56.8858V56.9129V56.9401V56.9672V56.9944V57.0215V57.0486V57.0757V57.1029V57.13V57.1571V57.1842V57.2113V57.2384V57.2655V57.2926V57.3196V57.3467V57.3738V57.4008V57.4279V57.4549V57.482V57.509V57.536V57.563V57.59V57.617V57.644V57.671V57.698V57.7249V57.7519V57.7788V57.8058V57.8327V57.8596V57.8865V57.9134V57.9403V57.9672V57.9941V58.0209V58.0477V58.0746V58.1014V58.1282V58.155V58.1818V58.2085V58.2353V58.262V58.2888V58.3155V58.3422V58.3689V58.3956V58.4222V58.4489V58.4755V58.5021V58.5287V58.5553V58.5819V58.6084V58.635V58.6615V58.688V58.7145V58.741V58.7674V58.7939V58.8203V58.8467V58.8731V58.8995V58.9258V58.9522V58.9785V59.0048V59.0311V59.0573V59.0836V59.1098V59.136V59.1622V59.1884V59.2145V59.2406V59.2668V59.2928V59.3189V59.3449V59.371V59.397V59.4229V59.4489V59.4748V59.5007V59.5266V59.5525V59.5783V59.6042V59.63V59.6557V59.6815V59.7072V59.7329V59.7586V59.7842V59.8099V59.8355V59.8611V59.8866V59.9121V59.9376V59.9631V59.9886V60.014V60.0394V60.0648V60.0901V60.1154V60.1407V60.166V60.1912V60.2164V60.2416V60.2668V60.2919V60.317V60.342V60.3671V60.3921V60.4171V60.442V60.4669V60.4918V60.5167V60.5415V60.5663V60.5911V60.6158V60.6405V60.6652V60.6898V60.7144V60.739V60.7636V60.7881V60.8125V60.837V60.8614V60.8858V60.9101V60.9345V60.9587V60.983V61.0072V61.0314V61.0555V61.0796V61.1037V61.1277V61.1517V61.1757V61.1996V61.2235V61.2474V61.2712V61.295V61.3188V61.3425V61.3661V61.3898V61.4134V61.437V61.4605V61.484V61.5074V61.5308V61.5542V61.5775V61.6008V61.6241V61.6473V61.6705V61.6936V61.7167V61.7397V61.7628V61.7857V61.8087V61.8316V61.8544V61.8772V61.9V61.9227V61.9454V61.968V61.9906V62.0132V62.0357V62.0582V62.0806V62.103V62.1253V62.1476V62.1699V62.1921V62.2142V62.2363V62.2584V62.2804V62.3024V62.3244V62.3463V62.3681V62.3899V62.4116V62.4334V62.455V62.4766V62.4982V62.5197V62.5412V62.5626V62.584V62.6053V62.6266V62.6478V62.669V62.6901V62.7112V62.7322V62.7532V62.7742V62.795V62.8159V62.8367V62.8574V62.8781V62.8987V62.9193V62.9398V62.9603V62.9807V63.0011V63.0214V63.0417V63.0619V63.0821V63.1022V63.1223V63.1423V63.1622V63.1821V63.202V63.2218V63.2415V63.2612V63.2808V63.3004V63.3199V63.3394V63.3588V63.3781V63.3974V63.4167V63.4359V63.455V63.474V63.4931V63.512V63.5309V63.5498V63.5686V63.5873V63.6059V63.6246V63.6431V63.6616V63.68V63.6984V63.7167V63.735V63.7532V63.7713V63.7894V63.8074V63.8254V63.8433V63.8611V63.8789V63.8966V63.9143V63.9319V63.9494V63.9669V63.9843V64.0016V64.0189V64.0361V64.0533V64.0703V64.0874V64.1043V64.1212V64.1381V64.1548V64.1716V64.1882V64.2048V64.2213V64.2377V64.2541V64.2704V64.2867V64.3029V64.319V64.3351V64.351V64.367V64.3828V64.3986V64.4143V64.43V64.4456V64.4611V64.4765V64.4919V64.5072V64.5225V64.5376V64.5527V64.5678V64.5827V64.5976V64.6125V64.6272V64.6419V64.6565V64.6711V64.6855V64.6999V64.7143V64.7285V64.7427V64.7568V64.7709V64.7848V64.7987V64.8126V64.8263V64.84V64.8536V64.8671V64.8806V64.894V64.9073V64.9205V64.9337V64.9468V64.9598V64.9727V64.9856V64.9984V65.0111V65.0237V65.0363V65.0488V65.0612V65.0735V65.0858V65.0979V65.11V65.122V65.134V65.1459V65.1576V65.1694V65.181V65.1925V65.204V65.2154V65.2267V65.238V65.2491V65.2602V65.2712V65.2821V65.2929V65.3037V65.3144V65.325V65.3355V65.3459V65.3562V65.3665V65.3767V65.3868V65.3968V65.4068V65.4166V65.4264V65.4361V65.4457V65.4552V65.4646V65.474V65.4833V65.4924V65.5015V65.5106V65.5195V65.5283V65.5371V65.5458V65.551H68.482V65.5489V65.5407V65.5323V65.524V65.5155V65.507V65.4983V65.4896V65.4809V65.472V65.4631V65.4541V65.445V65.4358V65.4266V65.4172V65.4078V65.3984V65.3888V65.3792V65.3695V65.3597V65.3498V65.3399V65.3299V65.3198V65.3096V65.2994V65.2891V65.2787V65.2682V65.2577V65.247V65.2363V65.2256V65.2147V65.2038V65.1928V65.1817V65.1706V65.1594V65.1481V65.1367V65.1253V65.1137V65.1021V65.0905V65.0787V65.0669V65.0551V65.0431V65.0311V65.019V65.0068V64.9945V64.9822V64.9698V64.9574V64.9448V64.9322V64.9195V64.9068V64.8939V64.881V64.8681V64.855V64.8419V64.8287V64.8155V64.8022V64.7888V64.7753V64.7618V64.7482V64.7345V64.7207V64.7069V64.693V64.6791V64.665V64.651V64.6368V64.6226V64.6083V64.5939V64.5794V64.5649V64.5504V64.5357V64.521V64.5062V64.4914V64.4764V64.4615V64.4464V64.4313V64.4161V64.4008V64.3855V64.3701V64.3547V64.3391V64.3235V64.3079V64.2922V64.2764V64.2605V64.2446V64.2286V64.2125V64.1964V64.1802V64.164V64.1477V64.1313V64.1148V64.0983V64.0817V64.0651V64.0484V64.0316V64.0148V63.9979V63.9809V63.9639V63.9468V63.9296V63.9124V63.8951V63.8778V63.8604V63.8429V63.8254V63.8078V63.7901V63.7724V63.7546V63.7368V63.7189V63.7009V63.6829V63.6648V63.6466V63.6284V63.6101V63.5918V63.5734V63.5549V63.5364V63.5178V63.4991V63.4804V63.4617V63.4428V63.4239V63.405V63.386V63.3669V63.3478V63.3286V63.3093V63.29V63.2707V63.2512V63.2318V63.2122V63.1926V63.173V63.1532V63.1335V63.1136V63.0937V63.0738V63.0538V63.0337V63.0136V62.9934V62.9731V62.9528V62.9325V62.9121V62.8916V62.8711V62.8505V62.8299V62.8092V62.7884V62.7676V62.7468V62.7258V62.7049V62.6838V62.6627V62.6416V62.6204V62.5992V62.5778V62.5565V62.5351V62.5136V62.4921V62.4705V62.4489V62.4272V62.4054V62.3836V62.3618V62.3399V62.3179V62.2959V62.2738V62.2517V62.2296V62.2073V62.1851V62.1627V62.1404V62.1179V62.0954V62.0729V62.0503V62.0277V62.005V61.9822V61.9594V61.9366V61.9137V61.8907V61.8677V61.8447V61.8216V61.7984V61.7752V61.752V61.7287V61.7053V61.6819V61.6585V61.6349V61.6114V61.5878V61.5641V61.5404V61.5167V61.4929V61.469V61.4451V61.4212V61.3972V61.3731V61.3491V61.3249V61.3007V61.2765V61.2522V61.2279V61.2035V61.1791V61.1546V61.1301V61.1055V61.0809V61.0562V61.0315V61.0068V60.982V60.9571V60.9322V60.9073V60.8823V60.8573V60.8322V60.8071V60.7819V60.7567V60.7314V60.7061V60.6808V60.6554V60.6299V60.6045V60.5789V60.5534V60.5277V60.5021V60.4764V60.4506V60.4248V60.399V60.3731V60.3472V60.3212V60.2952V60.2692V60.2431V60.217V60.1908V60.1646V60.1383V60.112V60.0856V60.0593V60.0328V60.0064V59.9798V59.9533V59.9267V59.9V59.8734V59.8466V59.8199V59.7931V59.7662V59.7394V59.7124V59.6855V59.6585V59.6314V59.6043V59.5772V59.5501V59.5229V59.4956V59.4683V59.441V59.4137V59.3863V59.3588V59.3313V59.3038V59.2763V59.2487V59.2211V59.1934V59.1657V59.138V59.1102V59.0824V59.0545V59.0266V58.9987V58.9707V58.9427V58.9147V58.8866V58.8585V58.8304V58.8022V58.7739V58.7457V58.7174V58.6891V58.6607V58.6323V58.6039V58.5754V58.5469V58.5184V58.4898V58.4612V58.4325V58.4039V58.3752V58.3464V58.3176V58.2888V58.26V58.2311V58.2022V58.1732V58.1442V58.1152V58.0862V58.0571V58.028V57.9988V57.9697V57.9404V57.9112V57.8819V57.8526V57.8233V57.7939V57.7645V57.7351V57.7056V57.6761V57.6466V57.617V57.5874V57.5578V57.5281V57.4984V57.4687V57.439V57.4092V57.3794V57.3496V57.3197V57.2898V57.2599V57.2299V57.2V57.1699V57.1399V57.1098V57.0797V57.0496V57.0194V56.9893V56.959V56.9288V56.8985V56.8682V56.8379V56.8076V56.7772C68.482 54.2531 69.5645 50.0788 70.6699 46.4877C71.2194 44.7026 71.7691 43.0784 72.1815 41.9004Z" fill="#D8D8D8" stroke="#818387" stroke-width="0.8" stroke-linejoin="round"/>
<path d="M71.291 56.3751C71.291 56.3751 71.4749 52.0339 71.6854 49.8608C71.8958 47.6877 72.5528 43.3464 72.5528 43.3464C72.5528 43.3464 73.1736 47.6789 73.3652 49.8608C73.5568 52.0427 73.6971 56.3751 73.6971 56.3751" stroke="#BBBBBB" stroke-width="0.8" stroke-linecap="round" stroke-linejoin="round"/>
<mask id="path-15-inside-3" fill="white">
<path fill-rule="evenodd" clip-rule="evenodd" d="M72.3808 41.1763C72.0622 40.783 67.9101 35.5533 67.4961 29.7281C67.0655 23.6701 67.4961 19.7018 67.4961 19.7018C67.4961 19.7018 68.873 19.1371 70.1668 19.1371C70.5733 19.1371 70.985 19.1929 71.3584 19.2694C71.7214 19.1478 72.1469 19.0492 72.5724 19.0492C73.0863 19.0492 73.6002 19.193 74.0039 19.3475C74.2285 19.2946 74.4673 19.2348 74.7169 19.1677C76.1918 18.7709 77.7848 19.7025 77.7848 19.7025C77.7848 19.7025 78.08 23.9304 77.6494 29.9877C77.2188 36.0449 72.7455 41.2008 72.7455 41.2008H72.381L72.3808 41.1763Z"/>
</mask>
<path fill-rule="evenodd" clip-rule="evenodd" d="M72.3808 41.1763C72.0622 40.783 67.9101 35.5533 67.4961 29.7281C67.0655 23.6701 67.4961 19.7018 67.4961 19.7018C67.4961 19.7018 68.873 19.1371 70.1668 19.1371C70.5733 19.1371 70.985 19.1929 71.3584 19.2694C71.7214 19.1478 72.1469 19.0492 72.5724 19.0492C73.0863 19.0492 73.6002 19.193 74.0039 19.3475C74.2285 19.2946 74.4673 19.2348 74.7169 19.1677C76.1918 18.7709 77.7848 19.7025 77.7848 19.7025C77.7848 19.7025 78.08 23.9304 77.6494 29.9877C77.2188 36.0449 72.7455 41.2008 72.7455 41.2008H72.381L72.3808 41.1763Z" fill="#D8D8D8"/>
<path d="M72.3808 41.1763L73.1807 41.1674C73.1787 40.9872 73.1159 40.8129 73.0025 40.6729L72.3808 41.1763ZM67.4961 29.7281L66.6981 29.7848L67.4961 29.7281ZM67.4961 19.7018L67.1925 18.9616C66.9211 19.0729 66.7324 19.3238 66.7007 19.6155L67.4961 19.7018ZM71.3584 19.2694L71.1979 20.0531C71.3359 20.0814 71.479 20.0727 71.6125 20.028L71.3584 19.2694ZM74.0039 19.3475L73.718 20.0947C73.8678 20.1519 74.0312 20.1629 74.1873 20.1262L74.0039 19.3475ZM74.7169 19.1677L74.9247 19.9403L74.7169 19.1677ZM77.7848 19.7025L78.5828 19.6468C78.5644 19.383 78.4169 19.1454 78.1886 19.0119L77.7848 19.7025ZM77.6494 29.9877L78.4474 30.0444L77.6494 29.9877ZM72.7455 41.2008V42.0008C72.9774 42.0008 73.1978 41.9002 73.3498 41.7251L72.7455 41.2008ZM72.381 41.2008L71.5811 41.2098C71.586 41.6481 71.9427 42.0008 72.381 42.0008V41.2008ZM73.0025 40.6729C72.8619 40.4992 71.7761 39.1353 70.6776 37.108C69.5749 35.0729 68.4897 32.4243 68.2941 29.6714L66.6981 29.7848C66.9165 32.8571 68.1144 35.7359 69.2709 37.8703C70.4316 40.0125 71.5811 41.4601 71.759 41.6798L73.0025 40.6729ZM68.2941 29.6714C68.0809 26.6731 68.0811 24.194 68.1342 22.4678C68.1608 21.6048 68.2005 20.9305 68.2334 20.474C68.2499 20.2458 68.2646 20.0721 68.2751 19.9565C68.2804 19.8987 68.2846 19.8555 68.2874 19.8273C68.2888 19.8132 68.2899 19.8028 68.2905 19.7963C68.2909 19.793 68.2911 19.7907 68.2913 19.7893C68.2913 19.7886 68.2914 19.7882 68.2914 19.788C68.2914 19.7879 68.2914 19.7878 68.2914 19.7879C68.2914 19.7879 68.2914 19.7879 68.2914 19.7879C68.2914 19.788 68.2914 19.7881 67.4961 19.7018C66.7007 19.6155 66.7007 19.6156 66.7007 19.6157C66.7007 19.6158 66.7007 19.616 66.7007 19.6161C66.7006 19.6164 66.7006 19.6167 66.7006 19.6171C66.7005 19.6178 66.7004 19.6188 66.7002 19.6201C66.7 19.6226 66.6996 19.626 66.6992 19.6305C66.6982 19.6393 66.6969 19.6519 66.6953 19.6684C66.692 19.7012 66.6874 19.7492 66.6817 19.8117C66.6703 19.9369 66.6548 20.1205 66.6376 20.359C66.6032 20.8359 66.5622 21.5322 66.535 22.4186C66.4804 24.191 66.4806 26.725 66.6981 29.7848L68.2941 29.6714ZM67.4961 19.7018C67.7996 20.442 67.7995 20.442 67.7994 20.4421C67.7994 20.4421 67.7993 20.4421 67.7992 20.4421C67.7991 20.4422 67.799 20.4422 67.7989 20.4423C67.7987 20.4423 67.7987 20.4424 67.7987 20.4424C67.7987 20.4423 67.799 20.4422 67.7997 20.4419C67.801 20.4414 67.8036 20.4404 67.8074 20.4388C67.8151 20.4358 67.8276 20.4309 67.8447 20.4243C67.879 20.4111 67.9312 20.3915 67.9988 20.3676C68.1342 20.3196 68.329 20.2548 68.5612 20.19C69.035 20.0579 69.6234 19.9371 70.1668 19.9371V18.3371C69.4163 18.3371 68.6695 18.4987 68.1313 18.6489C67.8575 18.7253 67.6273 18.8017 67.4641 18.8596C67.3823 18.8885 67.3169 18.913 67.2708 18.9308C67.2477 18.9396 67.2294 18.9468 67.2163 18.9521C67.2097 18.9547 67.2044 18.9568 67.2004 18.9584C67.1984 18.9592 67.1968 18.9599 67.1955 18.9604C67.1948 18.9607 67.1942 18.9609 67.1937 18.9611C67.1935 18.9612 67.1933 18.9613 67.1931 18.9614C67.193 18.9614 67.1928 18.9615 67.1928 18.9615C67.1927 18.9616 67.1925 18.9616 67.4961 19.7018ZM70.1668 19.9371C70.5039 19.9371 70.8595 19.9838 71.1979 20.0531L71.5189 18.4857C71.1105 18.402 70.6428 18.3371 70.1668 18.3371V19.9371ZM71.6125 20.028C71.9276 19.9224 72.2631 19.8492 72.5724 19.8492V18.2492C72.0307 18.2492 71.5151 18.3732 71.1043 18.5108L71.6125 20.028ZM72.5724 19.8492C72.9493 19.8492 73.3598 19.9576 73.718 20.0947L74.2897 18.6003C73.8407 18.4285 73.2234 18.2492 72.5724 18.2492V19.8492ZM74.509 18.3952C74.2682 18.46 74.0375 18.5177 73.8205 18.5688L74.1873 20.1262C74.4195 20.0715 74.6665 20.0097 74.9247 19.9403L74.509 18.3952ZM77.7848 19.7025C78.1886 19.0119 78.1884 19.0118 78.1882 19.0117C78.1881 19.0116 78.1879 19.0115 78.1878 19.0114C78.1875 19.0112 78.1871 19.011 78.1868 19.0108C78.186 19.0104 78.1852 19.0099 78.1843 19.0094C78.1824 19.0083 78.1802 19.007 78.1775 19.0055C78.1722 19.0025 78.1654 18.9986 78.157 18.9939C78.1403 18.9846 78.1175 18.972 78.0891 18.9569C78.0323 18.9267 77.9526 18.886 77.8535 18.8393C77.6561 18.7464 77.3769 18.6279 77.044 18.5232C76.3954 18.3191 75.4574 18.1401 74.509 18.3952L74.9247 19.9403C75.4513 19.7986 76.0473 19.8869 76.5638 20.0494C76.8136 20.128 77.0248 20.2176 77.1722 20.287C77.2454 20.3215 77.3017 20.3504 77.3378 20.3696C77.3558 20.3791 77.3687 20.3863 77.3761 20.3904C77.3797 20.3924 77.382 20.3937 77.3828 20.3942C77.3833 20.3944 77.3833 20.3945 77.383 20.3943C77.3828 20.3942 77.3826 20.394 77.3822 20.3938C77.3821 20.3937 77.3819 20.3936 77.3817 20.3935C77.3815 20.3934 77.3814 20.3933 77.3813 20.3933C77.3811 20.3932 77.3809 20.3931 77.7848 19.7025ZM78.4474 30.0444C78.6645 26.9902 78.6987 24.3967 78.6785 22.5648C78.6684 21.6486 78.6447 20.9224 78.6235 20.4236C78.6128 20.1743 78.6028 19.9817 78.5953 19.8507C78.5916 19.7852 78.5886 19.735 78.5864 19.7008C78.5853 19.6837 78.5845 19.6706 78.5839 19.6616C78.5835 19.6571 78.5833 19.6536 78.5831 19.6511C78.5831 19.6499 78.583 19.6489 78.5829 19.6482C78.5829 19.6478 78.5829 19.6475 78.5829 19.6473C78.5829 19.6472 78.5829 19.647 78.5829 19.647C78.5829 19.6469 78.5828 19.6468 77.7848 19.7025C76.9867 19.7582 76.9867 19.7582 76.9867 19.7581C76.9867 19.7581 76.9867 19.7581 76.9867 19.7581C76.9867 19.7581 76.9867 19.7582 76.9867 19.7584C76.9868 19.7587 76.9868 19.7592 76.9869 19.7601C76.987 19.7617 76.9871 19.7643 76.9874 19.768C76.9879 19.7753 76.9886 19.7867 76.9896 19.8021C76.9915 19.8328 76.9944 19.8794 76.9979 19.9413C77.0049 20.0652 77.0146 20.2502 77.0249 20.4919C77.0455 20.9751 77.0687 21.6844 77.0786 22.5824C77.0984 24.3787 77.0649 26.9278 76.8514 29.9309L78.4474 30.0444ZM72.7455 41.2008C73.3498 41.7251 73.3499 41.7249 73.3501 41.7247C73.3502 41.7246 73.3504 41.7244 73.3505 41.7242C73.3509 41.7239 73.3513 41.7234 73.3517 41.7229C73.3526 41.7218 73.3538 41.7205 73.3552 41.7188C73.3581 41.7154 73.3621 41.7108 73.3671 41.705C73.3771 41.6933 73.3912 41.6766 73.4092 41.6551C73.4451 41.6122 73.4966 41.55 73.5615 41.4695C73.6912 41.3085 73.8747 41.0743 74.0951 40.7753C74.5357 40.1777 75.126 39.3181 75.7302 38.2634C76.9323 36.1649 78.2201 33.2412 78.4474 30.0444L76.8514 29.9309C76.6481 32.7914 75.484 35.4743 74.3418 37.4681C73.7739 38.4595 73.2189 39.2675 72.8073 39.8259C72.6016 40.1048 72.4323 40.3208 72.3157 40.4655C72.2574 40.5378 72.2123 40.5922 72.1826 40.6278C72.1677 40.6455 72.1566 40.6586 72.1497 40.6668C72.1462 40.6708 72.1437 40.6737 72.1423 40.6754C72.1416 40.6762 72.1411 40.6767 72.141 40.6769C72.1409 40.677 72.1409 40.677 72.1409 40.677C72.1409 40.6769 72.141 40.6768 72.141 40.6768C72.1411 40.6767 72.1413 40.6766 72.7455 41.2008ZM72.381 42.0008H72.7455V40.4008H72.381V42.0008ZM71.5808 41.1853L71.5811 41.2098L73.181 41.1919L73.1807 41.1674L71.5808 41.1853Z" fill="#818387" mask="url(#path-15-inside-3)"/>
<path d="M70.7402 20.6331C70.7402 20.6331 71.0101 26.4099 71.319 29.5707C71.6279 32.7316 72.5921 39.4665 72.5921 39.4665C72.5921 39.4665 73.5032 32.7444 73.7844 29.5707C74.0657 26.3971 74.3021 20.6331 74.3021 20.6331" stroke="#BBBBBB" stroke-width="0.8" stroke-linecap="round" stroke-linejoin="round"/>
</g>
<defs>
<filter id="filter0_d" x="15" y="15.0492" width="76" height="63" filterUnits="userSpaceOnUse" color-interpolation-filters="sRGB">
<feFlood flood-opacity="0" result="BackgroundImageFix"/>
<feColorMatrix in="SourceAlpha" type="matrix" values="0 0 0 0 0 0 0 0 0 0 0 0 0 0 0 0 0 0 127 0"/>
<feOffset dy="4"/>
<feGaussianBlur stdDeviation="4"/>
<feColorMatrix type="matrix" values="0 0 0 0 0.776471 0 0 0 0 0.796078 0 0 0 0 0.8 0 0 0 0.3 0"/>
<feBlend mode="normal" in2="BackgroundImageFix" result="effect1_dropShadow"/>
<feBlend mode="normal" in="SourceGraphic" in2="effect1_dropShadow" result="shape"/>
</filter>
</defs>
</svg>
