<svg width="107" height="107" viewBox="0 0 107 107" fill="none" xmlns="http://www.w3.org/2000/svg">
<rect x="1" y="1" width="104.598" height="104.598" rx="5" fill="white" stroke="#b8cb81" stroke-width="2"/>
<path d="M43.9877 22.5058V66.9116H24.4V22.5058C24.4888 22.454 24.6125 22.3855 24.7722 22.3051C25.1543 22.1126 25.7426 21.852 26.5521 21.5899C28.1707 21.066 30.6775 20.5353 34.1938 20.5353C37.7102 20.5353 40.217 21.066 41.8355 21.5899C42.6451 21.852 43.2334 22.1126 43.6154 22.3051C43.7751 22.3855 43.8989 22.454 43.9877 22.5058Z" fill="#D8D8D8" stroke="#818387" stroke-width="0.8"/>
<path d="M63.4047 22.5058V66.9116H43.817V22.5058C43.9058 22.454 44.0295 22.3855 44.1892 22.3051C44.5713 22.1126 45.1596 21.852 45.9691 21.5899C47.5877 21.066 50.0945 20.5353 53.6108 20.5353C57.1272 20.5353 59.634 21.066 61.2525 21.5899C62.0621 21.852 62.6504 22.1126 63.0324 22.3051C63.1921 22.3855 63.3159 22.454 63.4047 22.5058Z" fill="#D8D8D8" stroke="#818387" stroke-width="0.8"/>
<path d="M82.8217 22.5058V66.9116H63.234V22.5058C63.3228 22.454 63.4465 22.3855 63.6062 22.3051C63.9883 22.1126 64.5766 21.852 65.3861 21.5899C67.0047 21.066 69.5115 20.5353 73.0278 20.5353C76.5441 20.5353 79.051 21.066 80.6695 21.5899C81.4791 21.852 82.0674 22.1126 82.4494 22.3051C82.6091 22.3855 82.7328 22.454 82.8217 22.5058Z" fill="#D8D8D8" stroke="#818387" stroke-width="0.8"/>
</svg>
