{"accessors" : [{"bufferView" : 0, "byteOffset" : 0, "componentType" : 5123, "count" : 9696, "type" : "SCALAR", "max" : [9695], "min" : [0]}, {"bufferView" : 1, "byteOffset" : 0, "componentType" : 5126, "count" : 9696, "type" : "VEC3", "max" : [-4.49542236328125, 6.871852874755859, -8.852143287658691], "min" : [-9.873758316040039, -6.510111331939697, -9.612377166748047], "name" : "POSITION"}, {"bufferView" : 1, "byteOffset" : 12, "componentType" : 5126, "count" : 9696, "type" : "VEC3", "max" : [0.9999086260795593, 0.436767578125, 1.0000033378601074], "min" : [-0.9999158382415771, -0.22066132724285126, -0.24268397688865662], "name" : "NORMAL"}, {"bufferView" : 1, "byteOffset" : 24, "componentType" : 5126, "count" : 9696, "type" : "VEC2", "max" : [0.8344894647598267, 0.9980018138885498], "min" : [0.16549746692180634, 0.011246219277381897], "name" : "TEXCOORD_0"}, {"bufferView" : 0, "byteOffset" : 19392, "componentType" : 5123, "count" : 9696, "type" : "SCALAR", "max" : [9695], "min" : [0]}, {"bufferView" : 2, "byteOffset" : 0, "componentType" : 5126, "count" : 9696, "type" : "VEC3", "max" : [6.571048736572266, 6.871852874755859, -8.852142333984375], "min" : [1.1927146911621094, -6.514649391174316, -9.612377166748047], "name" : "POSITION"}, {"bufferView" : 2, "byteOffset" : 12, "componentType" : 5126, "count" : 9696, "type" : "VEC3", "max" : [0.9999086260795593, 0.4367676079273224, 1.0000033378601074], "min" : [-0.9999158382415771, -0.22066134214401245, -0.24268397688865662], "name" : "NORMAL"}, {"bufferView" : 2, "byteOffset" : 24, "componentType" : 5126, "count" : 9696, "type" : "VEC2", "max" : [0.8344894647598267, 0.9980018138885498], "min" : [0.16549746692180634, 0.011246219277381897], "name" : "TEXCOORD_0"}, {"bufferView" : 0, "byteOffset" : 38784, "componentType" : 5123, "count" : 1710, "type" : "SCALAR", "max" : [1709], "min" : [0]}, {"bufferView" : 3, "byteOffset" : 0, "componentType" : 5126, "count" : 1710, "type" : "VEC3", "max" : [-10.372496604919434, 6.561030864715576, -9.479533195495605], "min" : [-10.8729248046875, 6.240332126617432, -9.799223899841309], "name" : "POSITION"}, {"bufferView" : 3, "byteOffset" : 12, "componentType" : 5126, "count" : 1710, "type" : "VEC3", "max" : [1.0000044107437134, 1.0000044107437134, 1.0000044107437134], "min" : [-1.0000044107437134, -1.0000044107437134, -1.0000044107437134], "name" : "NORMAL"}, {"bufferView" : 3, "byteOffset" : 24, "componentType" : 5126, "count" : 1710, "type" : "VEC2", "max" : [1, 1], "min" : [0, 0], "name" : "TEXCOORD_0"}, {"bufferView" : 0, "byteOffset" : 42204, "componentType" : 5123, "count" : 108, "type" : "SCALAR", "max" : [107], "min" : [0]}, {"bufferView" : 4, "byteOffset" : 0, "componentType" : 5126, "count" : 108, "type" : "VEC3", "max" : [7.065033435821533, 6.500333786010742, -9.541037559509277], "min" : [-10.37624740600586, 6.300333499908447, -9.737998962402344], "name" : "POSITION"}, {"bufferView" : 4, "byteOffset" : 12, "componentType" : 5126, "count" : 108, "type" : "VEC3", "max" : [0, 1.0000044107437134, 0.9848102331161499], "min" : [0, -1.0000044107437134, -0.9848102331161499], "name" : "NORMAL"}, {"bufferView" : 4, "byteOffset" : 24, "componentType" : 5126, "count" : 108, "type" : "VEC2", "max" : [0.625, 0.6738607883453369], "min" : [0.375, 0.3125], "name" : "TEXCOORD_0"}, {"bufferView" : 0, "byteOffset" : 42420, "componentType" : 5123, "count" : 1710, "type" : "SCALAR", "max" : [1709], "min" : [0]}, {"bufferView" : 5, "byteOffset" : 0, "componentType" : 5126, "count" : 1710, "type" : "VEC3", "max" : [7.549336910247803, 6.561030864715576, -9.479533195495605], "min" : [7.048908233642578, 6.240332126617432, -9.799223899841309], "name" : "POSITION"}, {"bufferView" : 5, "byteOffset" : 12, "componentType" : 5126, "count" : 1710, "type" : "VEC3", "max" : [1.0000044107437134, 1.0000044107437134, 1.0000044107437134], "min" : [-1.0000044107437134, -1.0000044107437134, -1.0000044107437134], "name" : "NORMAL"}, {"bufferView" : 5, "byteOffset" : 24, "componentType" : 5126, "count" : 1710, "type" : "VEC2", "max" : [1, 1], "min" : [0, 0], "name" : "TEXCOORD_0"}], "asset" : {"generator" : "Aspose.3D 22.10", "version" : "2.0"}, "buffers" : [{"uri" : "data:application/octet-stream;base64,", "byteLength" : 779304}], "bufferViews" : [{"buffer" : 0, "byteOffset" : 0, "byteLength" : 45840, "target" : 34963}, {"buffer" : 0, "byteOffset" : 45844, "byteLength" : 310272, "byteStride" : 32, "target" : 34962}, {"buffer" : 0, "byteOffset" : 356120, "byteLength" : 310272, "byteStride" : 32, "target" : 34962}, {"buffer" : 0, "byteOffset" : 666396, "byteLength" : 54720, "byteStride" : 32, "target" : 34962}, {"buffer" : 0, "byteOffset" : 721120, "byteLength" : 3456, "byteStride" : 32, "target" : 34962}, {"buffer" : 0, "byteOffset" : 724580, "byteLength" : 54720, "byteStride" : 32, "target" : 34962}], "images" : [{"uri" : "data:image/png;base64,"}], "materials" : [{"name" : "triplePleate_mat", "pbrMetallicRoughness" : {"baseColorFactor" : [0.8, 0.8, 0.8, 1], "baseColorTexture" : {"index" : 0, "texCoord" : 0}, "metallicFactor" : 0.5, "roughnessFactor" : 0.5}, "emissiveFactor" : [0, 0, 0], "alphaMode" : "OPAQUE", "doubleSided" : false}, {"name" : "triplePleate_mat", "pbrMetallicRoughness" : {"baseColorFactor" : [0.8, 0.8, 0.8, 1], "baseColorTexture" : {"index" : 0, "texCoord" : 0}, "metallicFactor" : 0.5, "roughnessFactor" : 0.5}, "emissiveFactor" : [0, 0, 0], "alphaMode" : "OPAQUE", "doubleSided" : false}, {"name" : "blinn11", "pbrMetallicRoughness" : {"baseColorFactor" : [0.4, 0.4, 0.4, 1], "metallicFactor" : 0.5, "roughnessFactor" : 0.5}, "emissiveFactor" : [0, 0, 0], "alphaMode" : "OPAQUE", "doubleSided" : false}, {"name" : "blinn11", "pbrMetallicRoughness" : {"baseColorFactor" : [0.4, 0.4, 0.4, 1], "metallicFactor" : 0.5, "roughnessFactor" : 0.5}, "emissiveFactor" : [0, 0, 0], "alphaMode" : "OPAQUE", "doubleSided" : false}, {"name" : "blinn11", "pbrMetallicRoughness" : {"baseColorFactor" : [0.4, 0.4, 0.4, 1], "metallicFactor" : 0.5, "roughnessFactor" : 0.5}, "emissiveFactor" : [0, 0, 0], "alphaMode" : "OPAQUE", "doubleSided" : false}], "meshes" : [{"primitives" : [{"attributes" : {"POSITION" : 1, "NORMAL" : 2, "TEXCOORD_0" : 3}, "indices" : 0, "material" : 0, "mode" : 4}]}, {"primitives" : [{"attributes" : {"POSITION" : 5, "NORMAL" : 6, "TEXCOORD_0" : 7}, "indices" : 4, "material" : 1, "mode" : 4}]}, {"primitives" : [{"attributes" : {"POSITION" : 9, "NORMAL" : 10, "TEXCOORD_0" : 11}, "indices" : 8, "material" : 2, "mode" : 4}]}, {"primitives" : [{"attributes" : {"POSITION" : 13, "NORMAL" : 14, "TEXCOORD_0" : 15}, "indices" : 12, "material" : 3, "mode" : 4}]}, {"primitives" : [{"attributes" : {"POSITION" : 17, "NORMAL" : 18, "TEXCOORD_0" : 19}, "indices" : 16, "material" : 4, "mode" : 4}]}], "nodes" : [{"mesh" : 0, "name" : "pPlane19"}, {"mesh" : 1, "name" : "pPlane20"}, {"mesh" : 2, "name" : "polySurface198"}, {"mesh" : 3, "name" : "polySurface196"}, {"mesh" : 4, "name" : "polySurface197"}, {"children" : [0, 1, 2, 3, 4], "name" : "entity_1"}], "samplers" : [{"magFilter" : 9729, "minFilter" : 9987, "wrapS" : 10497, "wrapT" : 10497}], "scene" : 0, "scenes" : [{"nodes" : [5]}], "textures" : [{"sampler" : 0, "source" : 0, "name" : ""}]}