<svg width="107" height="107" viewBox="0 0 107 107" fill="none" xmlns="http://www.w3.org/2000/svg">
<rect x="1" y="1" width="104.598" height="104.598" rx="5" fill="white" stroke="#b8cb81" stroke-width="2"/>
<rect x="23.4" y="21.4001" width="59.1998" height="44.2" fill="#CECECE" stroke="#818387" stroke-width="0.8"/>
<path d="M39.8881 21.3436V65.6H23.4V21.3436C23.4737 21.2933 23.5754 21.2273 23.706 21.15C24.0263 20.9605 24.5207 20.703 25.2019 20.444C26.5632 19.9262 28.6761 19.4 31.644 19.4C34.612 19.4 36.7248 19.9262 38.0862 20.444C38.7674 20.703 39.2618 20.9605 39.5821 21.15C39.7127 21.2273 39.8144 21.2933 39.8881 21.3436ZM23.2527 21.4503C23.2525 21.4504 23.2525 21.4504 23.2527 21.4502L23.2527 21.4503ZM40.0354 21.4502C40.0355 21.4504 40.0355 21.4504 40.0354 21.4503L40.0354 21.4502Z" fill="#D8D8D8" stroke="#818387" stroke-width="0.8"/>
<path d="M82.6 21.3436V65.6H66.1119V21.3436C66.1856 21.2933 66.2873 21.2273 66.4179 21.15C66.7382 20.9605 67.2326 20.703 67.9138 20.444C69.2752 19.9262 71.388 19.4 74.356 19.4C77.3239 19.4 79.4368 19.9262 80.7981 20.444C81.4793 20.703 81.9737 20.9605 82.294 21.15C82.4246 21.2273 82.5263 21.2933 82.6 21.3436ZM65.9646 21.4503C65.9644 21.4504 65.9645 21.4504 65.9646 21.4502L65.9646 21.4503ZM82.7473 21.4502C82.7475 21.4504 82.7475 21.4504 82.7473 21.4503L82.7473 21.4502Z" fill="#D8D8D8" stroke="#818387" stroke-width="0.8"/>
<path d="M61.2445 21.3436V65.6H44.7564V21.3436C44.8301 21.2933 44.9318 21.2273 45.0624 21.15C45.3828 20.9605 45.8771 20.703 46.5583 20.444C47.9197 19.9262 50.0325 19.4 53.0005 19.4C55.9685 19.4 58.0813 19.9262 59.4427 20.444C60.1238 20.703 60.6182 20.9605 60.9386 21.15C61.0691 21.2273 61.1708 21.2933 61.2445 21.3436ZM44.6091 21.4503C44.609 21.4504 44.609 21.4504 44.6092 21.4502L44.6091 21.4503ZM61.3918 21.4502C61.392 21.4504 61.392 21.4504 61.3918 21.4503L61.3918 21.4502Z" fill="#D8D8D8" stroke="#818387" stroke-width="0.8"/>
<ellipse cx="36.7285" cy="30.5431" rx="1.52542" ry="5.52063" fill="#F2F4F5" stroke="#818387"/>
<ellipse cx="58.085" cy="30.5431" rx="1.52542" ry="5.52063" fill="#F2F4F5" stroke="#818387"/>
<ellipse cx="47.916" cy="30.5431" rx="1.52541" ry="5.52063" fill="#F2F4F5" stroke="#818387"/>
<ellipse cx="69.2705" cy="30.5431" rx="1.52541" ry="5.52063" fill="#F2F4F5" stroke="#818387"/>
</svg>
