<svg width="107" height="107" viewBox="0 0 107 107" fill="none" xmlns="http://www.w3.org/2000/svg">
<rect x="0.5" y="0.5" width="105.598" height="105.598" rx="5.5" fill="#F2F4F5" stroke="#C6CBCC"/>
<rect x="24.4" y="22.5428" width="58.4214" height="44.3688" fill="#CECECE" stroke="#818387" stroke-width="0.8"/>
<path d="M40.6638 22.4849V66.9116H24.4V22.4849C24.4727 22.4344 24.573 22.3681 24.702 22.2905C25.0179 22.1004 25.5054 21.8423 26.1772 21.5824C27.5199 21.0632 29.6039 20.5353 32.5319 20.5353C35.4599 20.5353 37.5439 21.0632 38.8866 21.5824C39.5584 21.8423 40.0459 22.1004 40.3618 22.2905C40.4907 22.3681 40.5911 22.4344 40.6638 22.4849ZM24.2552 22.5915C24.2551 22.5916 24.2551 22.5916 24.2553 22.5914L24.2552 22.5915Z" fill="#D8D8D8" stroke="#818387" stroke-width="0.8"/>
<path d="M82.822 22.4849V66.9116H66.5582V22.4849C66.6309 22.4344 66.7313 22.3681 66.8602 22.2905C67.1761 22.1004 67.6636 21.8423 68.3354 21.5824C69.6781 21.0632 71.7621 20.5353 74.6901 20.5353C77.6181 20.5353 79.7021 21.0632 81.0448 21.5824C81.7166 21.8423 82.2041 22.1004 82.52 22.2905C82.649 22.3681 82.7493 22.4344 82.822 22.4849ZM66.4135 22.5914L66.414 22.591L66.4137 22.5912L66.4135 22.5914Z" fill="#D8D8D8" stroke="#818387" stroke-width="0.8"/>
<path d="M61.7429 22.4849V66.9116H45.4791V22.4849C45.5518 22.4344 45.6521 22.3681 45.7811 22.2905C46.097 22.1004 46.5845 21.8423 47.2563 21.5824C48.599 21.0632 50.683 20.5353 53.611 20.5353C56.539 20.5353 58.623 21.0632 59.9657 21.5824C60.6375 21.8423 61.125 22.1004 61.4409 22.2905C61.5698 22.3681 61.6702 22.4344 61.7429 22.4849Z" fill="#D8D8D8" stroke="#818387" stroke-width="0.8"/>
<ellipse cx="37.5506" cy="31.6783" rx="1.50563" ry="5.52063" fill="#F2F4F5" stroke="#818387"/>
<ellipse cx="58.6297" cy="31.6783" rx="1.50563" ry="5.52063" fill="#F2F4F5" stroke="#818387"/>
<ellipse cx="48.5925" cy="31.6783" rx="1.50562" ry="5.52063" fill="#F2F4F5" stroke="#818387"/>
<ellipse cx="69.6707" cy="31.6783" rx="1.50562" ry="5.52063" fill="#F2F4F5" stroke="#818387"/>
</svg>
