<svg width="107" height="107" viewBox="0 0 107 107" fill="none" xmlns="http://www.w3.org/2000/svg">
<rect x="0.5" y="0.5" width="105.598" height="105.598" rx="5.5" fill="#F2F4F5" stroke="#C6CBCC"/>
<path d="M24.4 46.2327V19.8239C24.4661 19.7764 24.5618 19.7154 24.689 19.6532C24.9869 19.5074 25.4653 19.3508 26.1535 19.3508C26.8417 19.3508 27.3201 19.5074 27.618 19.6532C27.7452 19.7154 27.8409 19.7764 27.907 19.8239V46.2327H24.4Z" fill="#D8D8D8" stroke="#818387" stroke-width="0.8"/>
<path d="M50.2418 46.2327V19.8239C50.3079 19.7764 50.4036 19.7154 50.5308 19.6532C50.8287 19.5074 51.3071 19.3508 51.9953 19.3508C52.6835 19.3508 53.1619 19.5074 53.4598 19.6532C53.587 19.7154 53.6827 19.7764 53.7488 19.8239V46.2327H50.2418Z" fill="#D8D8D8" stroke="#818387" stroke-width="0.8"/>
<path d="M37.3209 46.2327V19.8239C37.387 19.7764 37.4827 19.7154 37.6099 19.6532C37.9078 19.5074 38.3862 19.3508 39.0744 19.3508C39.7626 19.3508 40.241 19.5074 40.5389 19.6532C40.6661 19.7154 40.7618 19.7764 40.8279 19.8239V46.2327H37.3209Z" fill="#D8D8D8" stroke="#818387" stroke-width="0.8"/>
<path d="M63.1627 46.2327V19.8239C63.2288 19.7764 63.3245 19.7154 63.4517 19.6532C63.7496 19.5074 64.228 19.3508 64.9162 19.3508C65.6044 19.3508 66.0828 19.5074 66.3807 19.6532C66.5079 19.7154 66.6036 19.7764 66.6697 19.8239V46.2327H63.1627Z" fill="#D8D8D8" stroke="#818387" stroke-width="0.8"/>
<path d="M30.8609 46.2327V19.8239C30.927 19.7764 31.0227 19.7154 31.1499 19.6532C31.4478 19.5074 31.9263 19.3508 32.6144 19.3508C33.3026 19.3508 33.7811 19.5074 34.079 19.6532C34.2062 19.7154 34.3019 19.7764 34.3679 19.8239V46.2327H30.8609Z" fill="#D8D8D8" stroke="#818387" stroke-width="0.8"/>
<path d="M56.7027 46.2327V19.8239C56.7688 19.7764 56.8645 19.7154 56.9917 19.6532C57.2896 19.5074 57.7681 19.3508 58.4562 19.3508C59.1444 19.3508 59.6229 19.5074 59.9208 19.6532C60.048 19.7154 60.1437 19.7764 60.2097 19.8239V46.2327H56.7027Z" fill="#D8D8D8" stroke="#818387" stroke-width="0.8"/>
<path d="M43.7818 46.2327V19.8239C43.8479 19.7764 43.9436 19.7154 44.0708 19.6532C44.3687 19.5074 44.8472 19.3508 45.5353 19.3508C46.2235 19.3508 46.702 19.5074 46.9999 19.6532C47.1271 19.7154 47.2228 19.7764 47.2889 19.8239V46.2327H43.7818Z" fill="#D8D8D8" stroke="#818387" stroke-width="0.8"/>
<path d="M69.6236 46.2327V19.8239C69.6897 19.7764 69.7854 19.7154 69.9126 19.6532C70.2105 19.5074 70.689 19.3508 71.3771 19.3508C72.0653 19.3508 72.5437 19.5074 72.8417 19.6532C72.9688 19.7154 73.0645 19.7764 73.1306 19.8239V46.2327H69.6236Z" fill="#D8D8D8" stroke="#818387" stroke-width="0.8"/>
<path d="M76.0846 46.2327V19.8239C76.1507 19.7764 76.2464 19.7154 76.3735 19.6532C76.6715 19.5074 77.1499 19.3508 77.8381 19.3508C78.5263 19.3508 79.0047 19.5074 79.3026 19.6532C79.4298 19.7154 79.5255 19.7764 79.5916 19.8239V46.2327H76.0846Z" fill="#D8D8D8" stroke="#818387" stroke-width="0.8"/>
<path d="M27.6305 46.2327V19.8239C27.6966 19.7764 27.7923 19.7154 27.9194 19.6532C28.2174 19.5074 28.6958 19.3508 29.384 19.3508C30.0722 19.3508 30.5506 19.5074 30.8485 19.6532C30.9757 19.7154 31.0714 19.7764 31.1375 19.8239V46.2327H27.6305Z" fill="#D8D8D8" stroke="#818387" stroke-width="0.8"/>
<path d="M53.4723 46.2327V19.8239C53.5384 19.7764 53.6341 19.7154 53.7612 19.6532C54.0592 19.5074 54.5376 19.3508 55.2258 19.3508C55.9139 19.3508 56.3924 19.5074 56.6903 19.6532C56.8175 19.7154 56.9132 19.7764 56.9793 19.8239V46.2327H53.4723Z" fill="#D8D8D8" stroke="#818387" stroke-width="0.8"/>
<path d="M40.5514 46.2327V19.8239C40.6175 19.7764 40.7132 19.7154 40.8403 19.6532C41.1383 19.5074 41.6167 19.3508 42.3049 19.3508C42.9931 19.3508 43.4715 19.5074 43.7694 19.6532C43.8966 19.7154 43.9923 19.7764 44.0584 19.8239V46.2327H40.5514Z" fill="#D8D8D8" stroke="#818387" stroke-width="0.8"/>
<path d="M66.3932 46.2327V19.8239C66.4593 19.7764 66.555 19.7154 66.6821 19.6532C66.9801 19.5074 67.4585 19.3508 68.1467 19.3508C68.8348 19.3508 69.3133 19.5074 69.6112 19.6532C69.7384 19.7154 69.8341 19.7764 69.9002 19.8239V46.2327H66.3932Z" fill="#D8D8D8" stroke="#818387" stroke-width="0.8"/>
<path d="M34.0904 46.2327V19.8239C34.1565 19.7764 34.2522 19.7154 34.3794 19.6532C34.6773 19.5074 35.1558 19.3508 35.8439 19.3508C36.5321 19.3508 37.0105 19.5074 37.3085 19.6532C37.4356 19.7154 37.5313 19.7764 37.5974 19.8239V46.2327H34.0904Z" fill="#D8D8D8" stroke="#818387" stroke-width="0.8"/>
<path d="M59.9332 46.2327V19.8239C59.9993 19.7764 60.095 19.7154 60.2222 19.6532C60.5201 19.5074 60.9985 19.3508 61.6867 19.3508C62.3749 19.3508 62.8533 19.5074 63.1513 19.6532C63.2784 19.7154 63.3741 19.7764 63.4402 19.8239V46.2327H59.9332Z" fill="#D8D8D8" stroke="#818387" stroke-width="0.8"/>
<path d="M47.0123 46.2327V19.8239C47.0784 19.7764 47.1741 19.7154 47.3013 19.6532C47.5992 19.5074 48.0776 19.3508 48.7658 19.3508C49.454 19.3508 49.9324 19.5074 50.2304 19.6532C50.3575 19.7154 50.4532 19.7764 50.5193 19.8239V46.2327H47.0123Z" fill="#D8D8D8" stroke="#818387" stroke-width="0.8"/>
<path d="M72.8541 46.2327V19.8239C72.9202 19.7764 73.0159 19.7154 73.1431 19.6532C73.441 19.5074 73.9194 19.3508 74.6076 19.3508C75.2958 19.3508 75.7742 19.5074 76.0722 19.6532C76.1993 19.7154 76.295 19.7764 76.3611 19.8239V46.2327H72.8541Z" fill="#D8D8D8" stroke="#818387" stroke-width="0.8"/>
<path d="M79.3141 46.2327V19.8239C79.3802 19.7764 79.4759 19.7154 79.603 19.6532C79.901 19.5074 80.3794 19.3508 81.0676 19.3508C81.7558 19.3508 82.2342 19.5074 82.5321 19.6532C82.6593 19.7154 82.755 19.7764 82.8211 19.8239V46.2327H79.3141Z" fill="#D8D8D8" stroke="#818387" stroke-width="0.8"/>
<rect x="24.4" y="46.0074" width="58.4214" height="19.7051" fill="#D8D8D8" stroke="#818387" stroke-width="0.8"/>
<path d="M35.8443 46.12V54.8347" stroke="#979797" stroke-opacity="0.472957" stroke-linecap="round"/>
<path d="M51.9957 46.12V54.8347" stroke="#979797" stroke-opacity="0.472957" stroke-linecap="round"/>
<path d="M63.8394 46.12V60.7299" stroke="#979797" stroke-opacity="0.472957" stroke-linecap="round"/>
<path d="M74.607 46.12V54.8347" stroke="#979797" stroke-opacity="0.472957" stroke-linecap="round"/>
<path d="M37.9976 46.12V57.3979" stroke="#979797" stroke-opacity="0.472957" stroke-width="0.7" stroke-linecap="round"/>
<path d="M54.149 46.12V51.759" stroke="#979797" stroke-opacity="0.472957" stroke-width="0.7" stroke-linecap="round"/>
<path d="M49.8424 46.12V51.759" stroke="#979797" stroke-opacity="0.472957" stroke-width="0.7" stroke-linecap="round"/>
</svg>
