<svg width="107" height="107" viewBox="0 0 107 107" fill="none" xmlns="http://www.w3.org/2000/svg">
<rect x="1" y="1" width="104.598" height="104.598" rx="5" fill="white" stroke="#b8cb81" stroke-width="2"/>
<g filter="url(#filter0_d)">
<rect x="23.4" y="21.4" width="59.2" height="44.2" fill="#D8D8D8" stroke="#818387" stroke-width="0.8" stroke-linejoin="round"/>
<path d="M33.9237 41.8512C34.0362 41.5298 34.1384 41.2417 34.2276 40.9927C34.3201 41.2609 34.4272 41.574 34.5457 41.9247C34.9583 43.1465 35.5082 44.8231 36.058 46.6436C36.6081 48.4648 37.1567 50.426 37.5674 52.2176C37.98 54.0174 38.2465 55.6173 38.2465 56.728V56.7551V56.7823V56.8094V56.8366V56.8637V56.8909V56.918V56.9452V56.9723V56.9994V57.0265V57.0537V57.0808V57.1079V57.135V57.1621V57.1892V57.2163V57.2434V57.2704V57.2975V57.3246V57.3516V57.3787V57.4057V57.4328V57.4598V57.4868V57.5138V57.5408V57.5678V57.5948V57.6218V57.6488V57.6758V57.7027V57.7297V57.7566V57.7835V57.8104V57.8373V57.8642V57.8911V57.918V57.9449V57.9717V57.9986V58.0254V58.0522V58.079V58.1058V58.1326V58.1594V58.1861V58.2129V58.2396V58.2663V58.293V58.3197V58.3464V58.373V58.3997V58.4263V58.4529V58.4795V58.5061V58.5327V58.5592V58.5858V58.6123V58.6388V58.6653V58.6918V58.7183V58.7447V58.7711V58.7975V58.8239V58.8503V58.8767V58.903V58.9293V58.9556V58.9819V59.0082V59.0344V59.0606V59.0868V59.113V59.1392V59.1653V59.1915V59.2176V59.2436V59.2697V59.2957V59.3218V59.3478V59.3737V59.3997V59.4256V59.4515V59.4774V59.5033V59.5291V59.555V59.5808V59.6065V59.6323V59.658V59.6837V59.7094V59.7351V59.7607V59.7863V59.8119V59.8374V59.8629V59.8884V59.9139V59.9394V59.9648V59.9902V60.0156V60.0409V60.0662V60.0915V60.1168V60.142V60.1672V60.1924V60.2176V60.2427V60.2678V60.2928V60.3179V60.3429V60.3679V60.3928V60.4177V60.4426V60.4675V60.4923V60.5171V60.5419V60.5666V60.5913V60.616V60.6406V60.6652V60.6898V60.7144V60.7389V60.7634V60.7878V60.8122V60.8366V60.8609V60.8853V60.9095V60.9338V60.958V60.9822V61.0063V61.0304V61.0545V61.0785V61.1025V61.1265V61.1504V61.1743V61.1982V61.222V61.2458V61.2696V61.2933V61.317V61.3406V61.3642V61.3878V61.4113V61.4348V61.4582V61.4816V61.505V61.5283V61.5516V61.5749V61.5981V61.6213V61.6444V61.6675V61.6906V61.7136V61.7365V61.7595V61.7824V61.8052V61.828V61.8508V61.8735V61.8962V61.9188V61.9414V61.964V61.9865V62.009V62.0314V62.0538V62.0761V62.0984V62.1207V62.1429V62.165V62.1872V62.2092V62.2313V62.2532V62.2752V62.2971V62.3189V62.3407V62.3625V62.3842V62.4058V62.4274V62.449V62.4705V62.492V62.5134V62.5348V62.5561V62.5774V62.5986V62.6198V62.6409V62.662V62.683V62.704V62.725V62.7459V62.7667V62.7875V62.8082V62.8289V62.8495V62.8701V62.8906V62.9111V62.9315V62.9519V62.9722V62.9925V63.0127V63.0329V63.053V63.0731V63.0931V63.113V63.1329V63.1528V63.1726V63.1923V63.212V63.2316V63.2512V63.2707V63.2902V63.3096V63.3289V63.3482V63.3675V63.3867V63.4058V63.4249V63.4439V63.4628V63.4817V63.5006V63.5194V63.5381V63.5568V63.5754V63.5939V63.6124V63.6308V63.6492V63.6675V63.6858V63.704V63.7221V63.7402V63.7582V63.7762V63.7941V63.8119V63.8297V63.8474V63.8651V63.8827V63.9002V63.9177V63.9351V63.9524V63.9697V63.9869V64.0041V64.0211V64.0382V64.0551V64.072V64.0889V64.1057V64.1224V64.139V64.1556V64.1721V64.1885V64.2049V64.2212V64.2375V64.2537V64.2698V64.2859V64.3018V64.3178V64.3336V64.3494V64.3651V64.3808V64.3964V64.4119V64.4273V64.4427V64.458V64.4733V64.4884V64.5035V64.5186V64.5335V64.5484V64.5633V64.578V64.5927V64.6073V64.6219V64.6363V64.6507V64.6651V64.6793V64.6935V64.7076V64.7217V64.7356V64.7495V64.7634V64.7771V64.7908V64.8044V64.8179V64.8314V64.8448V64.8581V64.8713V64.8845V64.8976V64.9106V64.9235V64.9364V64.9492V64.9619V64.9745V64.9871V64.9996V65.012V65.0243V65.0366V65.0487V65.0608V65.0729V65.0848V65.0967V65.1084V65.1202V65.1318V65.1433V65.1548V65.1662V65.1775V65.1888V65.1999V65.211V65.222V65.2329V65.2437V65.2545V65.2652V65.2758V65.2863V65.2967V65.3071V65.3173V65.3275V65.3376V65.3476V65.3576V65.3674V65.3772V65.3869V65.3965V65.406V65.4154V65.4248V65.4341V65.4432V65.4524V65.4614V65.4703V65.4791V65.4879V65.4966V65.5018H30.2242V65.4997V65.4915V65.4832V65.4748V65.4663V65.4578V65.4491V65.4405V65.4317V65.4228V65.4139V65.4049V65.3958V65.3866V65.3774V65.3681V65.3587V65.3492V65.3396V65.33V65.3203V65.3105V65.3006V65.2907V65.2807V65.2706V65.2604V65.2502V65.2399V65.2295V65.219V65.2085V65.1978V65.1871V65.1764V65.1655V65.1546V65.1436V65.1325V65.1214V65.1102V65.0989V65.0875V65.0761V65.0645V65.053V65.0413V65.0296V65.0177V65.0059V64.9939V64.9819V64.9698V64.9576V64.9453V64.933V64.9206V64.9082V64.8956V64.883V64.8703V64.8576V64.8447V64.8318V64.8189V64.8058V64.7927V64.7795V64.7663V64.753V64.7396V64.7261V64.7126V64.699V64.6853V64.6715V64.6577V64.6438V64.6299V64.6159V64.6018V64.5876V64.5734V64.5591V64.5447V64.5302V64.5157V64.5012V64.4865V64.4718V64.457V64.4422V64.4272V64.4123V64.3972V64.3821V64.3669V64.3516V64.3363V64.3209V64.3055V64.2899V64.2743V64.2587V64.243V64.2272V64.2113V64.1954V64.1794V64.1633V64.1472V64.131V64.1148V64.0985V64.0821V64.0656V64.0491V64.0325V64.0159V63.9992V63.9824V63.9656V63.9487V63.9317V63.9147V63.8976V63.8805V63.8632V63.846V63.8286V63.8112V63.7937V63.7762V63.7586V63.7409V63.7232V63.7054V63.6876V63.6697V63.6517V63.6337V63.6156V63.5974V63.5792V63.5609V63.5426V63.5242V63.5057V63.4872V63.4686V63.4499V63.4312V63.4125V63.3936V63.3747V63.3558V63.3368V63.3177V63.2986V63.2794V63.2601V63.2408V63.2215V63.202V63.1826V63.163V63.1434V63.1238V63.104V63.0843V63.0644V63.0445V63.0246V63.0046V62.9845V62.9644V62.9442V62.924V62.9037V62.8833V62.8629V62.8424V62.8219V62.8013V62.7807V62.76V62.7392V62.7184V62.6976V62.6766V62.6557V62.6346V62.6135V62.5924V62.5712V62.55V62.5287V62.5073V62.4859V62.4644V62.4429V62.4213V62.3997V62.378V62.3562V62.3344V62.3126V62.2907V62.2687V62.2467V62.2247V62.2025V62.1804V62.1581V62.1359V62.1135V62.0912V62.0687V62.0462V62.0237V62.0011V61.9785V61.9558V61.933V61.9102V61.8874V61.8645V61.8415V61.8185V61.7955V61.7724V61.7492V61.726V61.7028V61.6795V61.6561V61.6327V61.6093V61.5858V61.5622V61.5386V61.5149V61.4912V61.4675V61.4437V61.4198V61.3959V61.372V61.348V61.324V61.2999V61.2757V61.2515V61.2273V61.203V61.1787V61.1543V61.1299V61.1054V61.0809V61.0563V61.0317V61.007V60.9823V60.9576V60.9328V60.9079V60.883V60.8581V60.8331V60.8081V60.783V60.7579V60.7327V60.7075V60.6822V60.6569V60.6316V60.6062V60.5808V60.5553V60.5297V60.5042V60.4786V60.4529V60.4272V60.4014V60.3757V60.3498V60.3239V60.298V60.2721V60.246V60.22V60.1939V60.1678V60.1416V60.1154V60.0891V60.0628V60.0365V60.0101V59.9836V59.9572V59.9306V59.9041V59.8775V59.8509V59.8242V59.7975V59.7707V59.7439V59.717V59.6902V59.6632V59.6363V59.6093V59.5822V59.5551V59.528V59.5009V59.4737V59.4464V59.4191V59.3918V59.3645V59.3371V59.3096V59.2822V59.2546V59.2271V59.1995V59.1719V59.1442V59.1165V59.0888V59.061V59.0332V59.0053V58.9774V58.9495V58.9215V58.8935V58.8655V58.8374V58.8093V58.7812V58.753V58.7248V58.6965V58.6682V58.6399V58.6115V58.5831V58.5547V58.5262V58.4977V58.4692V58.4406V58.412V58.3833V58.3547V58.326V58.2972V58.2684V58.2396V58.2108V58.1819V58.153V58.124V58.095V58.066V58.037V58.0079V57.9788V57.9496V57.9205V57.8912V57.862V57.8327V57.8034V57.7741V57.7447V57.7153V57.6859V57.6564V57.6269V57.5974V57.5678V57.5382V57.5086V57.4789V57.4493V57.4195V57.3898V57.36V57.3302V57.3004V57.2705V57.2406V57.2107V57.1807V57.1508V57.1207V57.0907V57.0606V57.0305V57.0004V56.9702V56.9401V56.9098V56.8796V56.8493V56.819V56.7887V56.7584V56.728C30.2242 54.2039 31.3067 50.0296 32.4121 46.4385C32.9616 44.6534 33.5113 43.0292 33.9237 41.8512Z" fill="#D8D8D8" stroke="#818387" stroke-width="0.8" stroke-linejoin="round"/>
<path d="M33.0332 56.3259C33.0332 56.3259 33.2171 51.9847 33.4276 49.8116C33.638 47.6385 34.295 43.2972 34.295 43.2972C34.295 43.2972 34.9158 47.6297 35.1074 49.8116C35.299 51.9935 35.4393 56.3259 35.4393 56.3259" stroke="#BBBBBB" stroke-width="0.8" stroke-linecap="round" stroke-linejoin="round"/>
<mask id="path-5-inside-1" fill="white">
<path fill-rule="evenodd" clip-rule="evenodd" d="M34.123 41.1272C33.8049 40.7344 29.6524 35.5045 29.2383 29.6789C28.8076 23.6209 29.2383 19.6526 29.2383 19.6526C29.2383 19.6526 30.6152 19.0879 31.9089 19.0879C32.3155 19.0879 32.7272 19.1437 33.1007 19.2202C33.4636 19.0986 33.8891 19 34.3146 19C34.8286 19 35.3425 19.1438 35.7461 19.2983C35.9707 19.2454 36.2096 19.1857 36.4591 19.1185C37.9341 18.7217 39.527 19.6533 39.527 19.6533C39.527 19.6533 39.8223 23.8812 39.3917 29.9385C38.9611 35.9957 34.4878 41.1516 34.4878 41.1516H34.1233L34.123 41.1272Z"/>
</mask>
<path fill-rule="evenodd" clip-rule="evenodd" d="M34.123 41.1272C33.8049 40.7344 29.6524 35.5045 29.2383 29.6789C28.8076 23.6209 29.2383 19.6526 29.2383 19.6526C29.2383 19.6526 30.6152 19.0879 31.9089 19.0879C32.3155 19.0879 32.7272 19.1437 33.1007 19.2202C33.4636 19.0986 33.8891 19 34.3146 19C34.8286 19 35.3425 19.1438 35.7461 19.2983C35.9707 19.2454 36.2096 19.1857 36.4591 19.1185C37.9341 18.7217 39.527 19.6533 39.527 19.6533C39.527 19.6533 39.8223 23.8812 39.3917 29.9385C38.9611 35.9957 34.4878 41.1516 34.4878 41.1516H34.1233L34.123 41.1272Z" fill="#D8D8D8"/>
<path d="M34.123 41.1272L34.923 41.1183C34.9209 40.9381 34.8581 40.7638 34.7447 40.6238L34.123 41.1272ZM29.2383 29.6789L28.4403 29.7356L29.2383 29.6789ZM29.2383 19.6526L28.9347 18.9124C28.6633 19.0237 28.4746 19.2747 28.4429 19.5663L29.2383 19.6526ZM33.1007 19.2202L32.9401 20.0039C33.0782 20.0322 33.2212 20.0235 33.3548 19.9788L33.1007 19.2202ZM35.7461 19.2983L35.4603 20.0455C35.61 20.1027 35.7735 20.1137 35.9295 20.077L35.7461 19.2983ZM36.4591 19.1185L36.2513 18.346L36.2513 18.346L36.4591 19.1185ZM39.527 19.6533L40.3251 19.5976C40.3067 19.3338 40.1591 19.0962 39.9309 18.9627L39.527 19.6533ZM39.3917 29.9385L40.1897 29.9952L39.3917 29.9385ZM34.4878 41.1516V41.9516C34.7196 41.9516 34.9401 41.851 35.092 41.6759L34.4878 41.1516ZM34.1233 41.1516L33.3233 41.1606C33.3282 41.5989 33.6849 41.9516 34.1233 41.9516V41.1516ZM34.7447 40.6238C34.6043 40.4504 33.5185 39.0865 32.42 37.0592C31.3172 35.024 30.2319 32.3753 30.0362 29.6222L28.4403 29.7356C28.6587 32.808 29.8567 35.6871 31.0133 37.8215C32.1741 39.9638 33.3236 41.4113 33.5013 41.6307L34.7447 40.6238ZM30.0362 29.6222C29.8231 26.6239 29.8233 24.1448 29.8764 22.4186C29.903 21.5556 29.9427 20.8813 29.9756 20.4248C29.9921 20.1966 30.0068 20.0229 30.0173 19.9073C30.0226 19.8496 30.0268 19.8063 30.0296 19.7781C30.031 19.764 30.032 19.7536 30.0327 19.7471C30.0331 19.7438 30.0333 19.7415 30.0335 19.7401C30.0335 19.7394 30.0336 19.739 30.0336 19.7388C30.0336 19.7387 30.0336 19.7386 30.0336 19.7387C30.0336 19.7387 30.0336 19.7387 30.0336 19.7387C30.0336 19.7388 30.0336 19.7389 29.2383 19.6526C28.4429 19.5663 28.4429 19.5664 28.4429 19.5665C28.4429 19.5666 28.4429 19.5668 28.4429 19.5669C28.4428 19.5672 28.4428 19.5675 28.4428 19.5679C28.4427 19.5686 28.4426 19.5696 28.4424 19.5709C28.4422 19.5734 28.4418 19.5768 28.4413 19.5813C28.4404 19.5901 28.4391 19.6028 28.4375 19.6192C28.4342 19.652 28.4296 19.7 28.4239 19.7626C28.4125 19.8877 28.397 20.0713 28.3798 20.3098C28.3454 20.7867 28.3044 21.483 28.2772 22.3694C28.2226 24.1418 28.2228 26.6758 28.4403 29.7356L30.0362 29.6222ZM29.2383 19.6526C29.5418 20.3928 29.5417 20.3928 29.5416 20.3929C29.5415 20.3929 29.5414 20.3929 29.5414 20.3929C29.5413 20.393 29.5412 20.393 29.5411 20.3931C29.5409 20.3931 29.5409 20.3932 29.5409 20.3932C29.5409 20.3931 29.5412 20.393 29.5419 20.3927C29.5432 20.3922 29.5458 20.3912 29.5496 20.3896C29.5573 20.3866 29.5698 20.3817 29.5869 20.3751C29.6211 20.3619 29.6734 20.3423 29.741 20.3184C29.8764 20.2704 30.0712 20.2056 30.3034 20.1408C30.7771 20.0087 31.3656 19.8879 31.9089 19.8879V18.2879C31.1585 18.2879 30.4116 18.4495 29.8734 18.5997C29.5997 18.6761 29.3695 18.7525 29.2063 18.8104C29.1245 18.8394 29.0591 18.8638 29.013 18.8816C28.9899 18.8904 28.9716 18.8976 28.9584 18.9029C28.9519 18.9055 28.9466 18.9076 28.9426 18.9092C28.9406 18.91 28.939 18.9107 28.9377 18.9112C28.937 18.9115 28.9364 18.9117 28.9359 18.9119C28.9357 18.912 28.9355 18.9121 28.9353 18.9122C28.9352 18.9122 28.935 18.9123 28.935 18.9123C28.9348 18.9124 28.9347 18.9124 29.2383 19.6526ZM31.9089 19.8879C32.2461 19.8879 32.6017 19.9346 32.9401 20.0039L33.2612 18.4365C32.8527 18.3528 32.385 18.2879 31.9089 18.2879V19.8879ZM33.3548 19.9788C33.6699 19.8732 34.0053 19.8 34.3146 19.8V18.2C33.7729 18.2 33.2573 18.324 32.8465 18.4616L33.3548 19.9788ZM34.3146 19.8C34.6915 19.8 35.1021 19.9084 35.4603 20.0455L36.032 18.5511C35.5829 18.3793 34.9656 18.2 34.3146 18.2V19.8ZM36.2513 18.346C36.0104 18.4108 35.7798 18.4685 35.5627 18.5196L35.9295 20.077C36.1617 20.0223 36.4087 19.9605 36.6669 19.8911L36.2513 18.346ZM39.527 19.6533C39.9309 18.9627 39.9307 18.9626 39.9305 18.9625C39.9304 18.9624 39.9302 18.9623 39.93 18.9622C39.9297 18.962 39.9294 18.9618 39.929 18.9616C39.9283 18.9612 39.9274 18.9607 39.9265 18.9602C39.9247 18.9591 39.9224 18.9578 39.9198 18.9563C39.9145 18.9533 39.9076 18.9494 39.8993 18.9447C39.8826 18.9354 39.8598 18.9228 39.8314 18.9077C39.7746 18.8775 39.6949 18.8368 39.5958 18.7901C39.3984 18.6972 39.1191 18.5787 38.7863 18.474C38.1376 18.2699 37.1996 18.0909 36.2513 18.346L36.6669 19.8911C37.1935 19.7494 37.7895 19.8377 38.3061 20.0002C38.5558 20.0788 38.767 20.1684 38.9144 20.2378C38.9877 20.2723 39.044 20.3012 39.0801 20.3204C39.0981 20.33 39.111 20.3371 39.1183 20.3412C39.122 20.3432 39.1243 20.3445 39.1251 20.345C39.1255 20.3452 39.1256 20.3453 39.1252 20.3451C39.1251 20.345 39.1248 20.3448 39.1245 20.3447C39.1243 20.3446 39.1241 20.3444 39.1239 20.3443C39.1238 20.3442 39.1236 20.3441 39.1236 20.3441C39.1234 20.344 39.1232 20.3439 39.527 19.6533ZM40.1897 29.9952C40.4068 26.941 40.441 24.3475 40.4208 22.5156C40.4107 21.5994 40.387 20.8732 40.3657 20.3744C40.3551 20.1251 40.345 19.9325 40.3376 19.8015C40.3339 19.736 40.3308 19.6858 40.3286 19.6516C40.3276 19.6345 40.3267 19.6215 40.3261 19.6124C40.3258 19.6079 40.3256 19.6044 40.3254 19.6019C40.3253 19.6007 40.3252 19.5997 40.3252 19.599C40.3252 19.5986 40.3251 19.5983 40.3251 19.5981C40.3251 19.598 40.3251 19.5978 40.3251 19.5978C40.3251 19.5977 40.3251 19.5976 39.527 19.6533C38.729 19.709 38.729 19.709 38.729 19.7089C38.729 19.7089 38.729 19.7089 38.729 19.7089C38.729 19.7089 38.729 19.709 38.729 19.7092C38.729 19.7095 38.7291 19.71 38.7291 19.7109C38.7292 19.7125 38.7294 19.7152 38.7296 19.7188C38.7301 19.7262 38.7309 19.7375 38.7319 19.7529C38.7338 19.7836 38.7367 19.8302 38.7402 19.8921C38.7472 20.016 38.7569 20.201 38.7672 20.4427C38.7878 20.9259 38.811 21.6352 38.8209 22.5332C38.8407 24.3295 38.8072 26.8786 38.5937 29.8817L40.1897 29.9952ZM34.4878 41.1516C35.092 41.6759 35.0922 41.6757 35.0924 41.6755C35.0924 41.6754 35.0926 41.6752 35.0928 41.675C35.0931 41.6747 35.0935 41.6742 35.0939 41.6737C35.0949 41.6726 35.096 41.6713 35.0975 41.6696C35.1004 41.6662 35.1043 41.6616 35.1093 41.6558C35.1193 41.6441 35.1334 41.6274 35.1514 41.6059C35.1874 41.563 35.2388 41.5008 35.3037 41.4203C35.4334 41.2593 35.6169 41.0252 35.8374 40.7261C36.2779 40.1285 36.8682 39.2689 37.4724 38.2142C38.6746 36.1157 39.9624 33.192 40.1897 29.9952L38.5937 29.8817C38.3903 32.7422 37.2262 35.4251 36.0841 37.4189C35.5161 38.4103 34.9612 39.2183 34.5495 39.7767C34.3439 40.0556 34.1745 40.2716 34.0579 40.4163C33.9996 40.4886 33.9546 40.543 33.9248 40.5786C33.9099 40.5963 33.8989 40.6094 33.8919 40.6176C33.8884 40.6216 33.8859 40.6245 33.8845 40.6262C33.8838 40.627 33.8834 40.6275 33.8832 40.6277C33.8831 40.6278 33.8831 40.6278 33.8832 40.6278C33.8832 40.6277 33.8833 40.6276 33.8833 40.6276C33.8834 40.6275 33.8835 40.6274 34.4878 41.1516ZM34.1233 41.9516H34.4878V40.3516H34.1233V41.9516ZM33.3231 41.1361L33.3233 41.1606L34.9232 41.1427L34.923 41.1183L33.3231 41.1361Z" fill="#818387" mask="url(#path-5-inside-1)"/>
<path d="M32.4824 20.5839C32.4824 20.5839 32.7523 26.3607 33.0612 29.5215C33.3701 32.6824 34.3343 39.4173 34.3343 39.4173C34.3343 39.4173 35.2453 32.6952 35.5266 29.5215C35.8078 26.3479 36.0443 20.5839 36.0443 20.5839" stroke="#BBBBBB" stroke-width="0.8" stroke-linecap="round" stroke-linejoin="round"/>
<path d="M52.91 41.8512C53.0225 41.5298 53.1248 41.2417 53.214 40.9927C53.3065 41.2609 53.4135 41.574 53.532 41.9247C53.9446 43.1465 54.4946 44.8231 55.0444 46.6436C55.5944 48.4648 56.143 50.426 56.5537 52.2176C56.9663 54.0174 57.2329 55.6173 57.2329 56.728V56.7551V56.7823V56.8094V56.8366V56.8637V56.8909V56.918V56.9452V56.9723V56.9994V57.0265V57.0537V57.0808V57.1079V57.135V57.1621V57.1892V57.2163V57.2434V57.2704V57.2975V57.3246V57.3516V57.3787V57.4057V57.4328V57.4598V57.4868V57.5138V57.5408V57.5678V57.5948V57.6218V57.6488V57.6758V57.7027V57.7297V57.7566V57.7835V57.8104V57.8373V57.8642V57.8911V57.918V57.9449V57.9717V57.9986V58.0254V58.0522V58.079V58.1058V58.1326V58.1594V58.1861V58.2129V58.2396V58.2663V58.293V58.3197V58.3464V58.373V58.3997V58.4263V58.4529V58.4795V58.5061V58.5327V58.5592V58.5858V58.6123V58.6388V58.6653V58.6918V58.7183V58.7447V58.7711V58.7975V58.8239V58.8503V58.8767V58.903V58.9293V58.9556V58.9819V59.0082V59.0344V59.0606V59.0868V59.113V59.1392V59.1653V59.1915V59.2176V59.2436V59.2697V59.2957V59.3218V59.3478V59.3737V59.3997V59.4256V59.4515V59.4774V59.5033V59.5291V59.555V59.5808V59.6065V59.6323V59.658V59.6837V59.7094V59.7351V59.7607V59.7863V59.8119V59.8374V59.8629V59.8884V59.9139V59.9394V59.9648V59.9902V60.0156V60.0409V60.0662V60.0915V60.1168V60.142V60.1672V60.1924V60.2176V60.2427V60.2678V60.2928V60.3179V60.3429V60.3679V60.3928V60.4177V60.4426V60.4675V60.4923V60.5171V60.5419V60.5666V60.5913V60.616V60.6406V60.6652V60.6898V60.7144V60.7389V60.7634V60.7878V60.8122V60.8366V60.8609V60.8853V60.9095V60.9338V60.958V60.9822V61.0063V61.0304V61.0545V61.0785V61.1025V61.1265V61.1504V61.1743V61.1982V61.222V61.2458V61.2696V61.2933V61.317V61.3406V61.3642V61.3878V61.4113V61.4348V61.4582V61.4816V61.505V61.5283V61.5516V61.5749V61.5981V61.6213V61.6444V61.6675V61.6906V61.7136V61.7365V61.7595V61.7824V61.8052V61.828V61.8508V61.8735V61.8962V61.9188V61.9414V61.964V61.9865V62.009V62.0314V62.0538V62.0761V62.0984V62.1207V62.1429V62.165V62.1872V62.2092V62.2313V62.2532V62.2752V62.2971V62.3189V62.3407V62.3625V62.3842V62.4058V62.4274V62.449V62.4705V62.492V62.5134V62.5348V62.5561V62.5774V62.5986V62.6198V62.6409V62.662V62.683V62.704V62.725V62.7459V62.7667V62.7875V62.8082V62.8289V62.8495V62.8701V62.8906V62.9111V62.9315V62.9519V62.9722V62.9925V63.0127V63.0329V63.053V63.0731V63.0931V63.113V63.1329V63.1528V63.1726V63.1923V63.212V63.2316V63.2512V63.2707V63.2902V63.3096V63.3289V63.3482V63.3675V63.3867V63.4058V63.4249V63.4439V63.4628V63.4817V63.5006V63.5194V63.5381V63.5568V63.5754V63.5939V63.6124V63.6308V63.6492V63.6675V63.6858V63.704V63.7221V63.7402V63.7582V63.7762V63.7941V63.8119V63.8297V63.8474V63.8651V63.8827V63.9002V63.9177V63.9351V63.9524V63.9697V63.9869V64.0041V64.0211V64.0382V64.0551V64.072V64.0889V64.1057V64.1224V64.139V64.1556V64.1721V64.1885V64.2049V64.2212V64.2375V64.2537V64.2698V64.2859V64.3018V64.3178V64.3336V64.3494V64.3651V64.3808V64.3964V64.4119V64.4273V64.4427V64.458V64.4733V64.4884V64.5035V64.5186V64.5335V64.5484V64.5633V64.578V64.5927V64.6073V64.6219V64.6363V64.6507V64.6651V64.6793V64.6935V64.7076V64.7217V64.7356V64.7495V64.7634V64.7771V64.7908V64.8044V64.8179V64.8314V64.8448V64.8581V64.8713V64.8845V64.8976V64.9106V64.9235V64.9364V64.9492V64.9619V64.9745V64.9871V64.9996V65.012V65.0243V65.0366V65.0487V65.0608V65.0729V65.0848V65.0967V65.1084V65.1202V65.1318V65.1433V65.1548V65.1662V65.1775V65.1888V65.1999V65.211V65.222V65.2329V65.2437V65.2545V65.2652V65.2758V65.2863V65.2967V65.3071V65.3173V65.3275V65.3376V65.3476V65.3576V65.3674V65.3772V65.3869V65.3965V65.406V65.4154V65.4248V65.4341V65.4432V65.4524V65.4614V65.4703V65.4791V65.4879V65.4966V65.5018H49.2105V65.4997V65.4915V65.4832V65.4748V65.4663V65.4578V65.4491V65.4405V65.4317V65.4228V65.4139V65.4049V65.3958V65.3866V65.3774V65.3681V65.3587V65.3492V65.3396V65.33V65.3203V65.3105V65.3006V65.2907V65.2807V65.2706V65.2604V65.2502V65.2399V65.2295V65.219V65.2085V65.1978V65.1871V65.1764V65.1655V65.1546V65.1436V65.1325V65.1214V65.1102V65.0989V65.0875V65.0761V65.0645V65.053V65.0413V65.0296V65.0177V65.0059V64.9939V64.9819V64.9698V64.9576V64.9453V64.933V64.9206V64.9082V64.8956V64.883V64.8703V64.8576V64.8447V64.8318V64.8189V64.8058V64.7927V64.7795V64.7663V64.753V64.7396V64.7261V64.7126V64.699V64.6853V64.6715V64.6577V64.6438V64.6299V64.6159V64.6018V64.5876V64.5734V64.5591V64.5447V64.5302V64.5157V64.5012V64.4865V64.4718V64.457V64.4422V64.4272V64.4123V64.3972V64.3821V64.3669V64.3516V64.3363V64.3209V64.3055V64.2899V64.2743V64.2587V64.243V64.2272V64.2113V64.1954V64.1794V64.1633V64.1472V64.131V64.1148V64.0985V64.0821V64.0656V64.0491V64.0325V64.0159V63.9992V63.9824V63.9656V63.9487V63.9317V63.9147V63.8976V63.8805V63.8632V63.846V63.8286V63.8112V63.7937V63.7762V63.7586V63.7409V63.7232V63.7054V63.6876V63.6697V63.6517V63.6337V63.6156V63.5974V63.5792V63.5609V63.5426V63.5242V63.5057V63.4872V63.4686V63.4499V63.4312V63.4125V63.3936V63.3747V63.3558V63.3368V63.3177V63.2986V63.2794V63.2601V63.2408V63.2215V63.202V63.1826V63.163V63.1434V63.1238V63.104V63.0843V63.0644V63.0445V63.0246V63.0046V62.9845V62.9644V62.9442V62.924V62.9037V62.8833V62.8629V62.8424V62.8219V62.8013V62.7807V62.76V62.7392V62.7184V62.6976V62.6766V62.6557V62.6346V62.6135V62.5924V62.5712V62.55V62.5287V62.5073V62.4859V62.4644V62.4429V62.4213V62.3997V62.378V62.3562V62.3344V62.3126V62.2907V62.2687V62.2467V62.2247V62.2025V62.1804V62.1581V62.1359V62.1135V62.0912V62.0687V62.0462V62.0237V62.0011V61.9785V61.9558V61.933V61.9102V61.8874V61.8645V61.8415V61.8185V61.7955V61.7724V61.7492V61.726V61.7028V61.6795V61.6561V61.6327V61.6093V61.5858V61.5622V61.5386V61.5149V61.4912V61.4675V61.4437V61.4198V61.3959V61.372V61.348V61.324V61.2999V61.2757V61.2515V61.2273V61.203V61.1787V61.1543V61.1299V61.1054V61.0809V61.0563V61.0317V61.007V60.9823V60.9576V60.9328V60.9079V60.883V60.8581V60.8331V60.8081V60.783V60.7579V60.7327V60.7075V60.6822V60.6569V60.6316V60.6062V60.5808V60.5553V60.5297V60.5042V60.4786V60.4529V60.4272V60.4014V60.3757V60.3498V60.3239V60.298V60.2721V60.246V60.22V60.1939V60.1678V60.1416V60.1154V60.0891V60.0628V60.0365V60.0101V59.9836V59.9572V59.9306V59.9041V59.8775V59.8509V59.8242V59.7975V59.7707V59.7439V59.717V59.6902V59.6632V59.6363V59.6093V59.5822V59.5551V59.528V59.5009V59.4737V59.4464V59.4191V59.3918V59.3645V59.3371V59.3096V59.2822V59.2546V59.2271V59.1995V59.1719V59.1442V59.1165V59.0888V59.061V59.0332V59.0053V58.9774V58.9495V58.9215V58.8935V58.8655V58.8374V58.8093V58.7812V58.753V58.7248V58.6965V58.6682V58.6399V58.6115V58.5831V58.5547V58.5262V58.4977V58.4692V58.4406V58.412V58.3833V58.3547V58.326V58.2972V58.2684V58.2396V58.2108V58.1819V58.153V58.124V58.095V58.066V58.037V58.0079V57.9788V57.9496V57.9205V57.8912V57.862V57.8327V57.8034V57.7741V57.7447V57.7153V57.6859V57.6564V57.6269V57.5974V57.5678V57.5382V57.5086V57.4789V57.4493V57.4195V57.3898V57.36V57.3302V57.3004V57.2705V57.2406V57.2107V57.1807V57.1508V57.1207V57.0907V57.0606V57.0305V57.0004V56.9702V56.9401V56.9098V56.8796V56.8493V56.819V56.7887V56.7584V56.728C49.2105 54.2039 50.293 50.0296 51.3984 46.4385C51.9479 44.6534 52.4976 43.0292 52.91 41.8512Z" fill="#D8D8D8" stroke="#818387" stroke-width="0.8" stroke-linejoin="round"/>
<path d="M52.0195 56.3259C52.0195 56.3259 52.2034 51.9847 52.4139 49.8116C52.6243 47.6385 53.2813 43.2972 53.2813 43.2972C53.2813 43.2972 53.9021 47.6297 54.0937 49.8116C54.2854 51.9935 54.4256 56.3259 54.4256 56.3259" stroke="#BBBBBB" stroke-width="0.8" stroke-linecap="round" stroke-linejoin="round"/>
<mask id="path-10-inside-2" fill="white">
<path fill-rule="evenodd" clip-rule="evenodd" d="M53.1094 41.1273C52.7918 40.7351 48.6387 35.5048 48.2246 29.6789C47.794 23.6209 48.2246 19.6526 48.2246 19.6526C48.2246 19.6526 49.6015 19.0879 50.8953 19.0879C51.3019 19.0879 51.7136 19.1437 52.087 19.2202C52.4499 19.0986 52.8755 19 53.301 19C53.8149 19 54.3289 19.1438 54.7325 19.2983C54.9571 19.2454 55.1959 19.1857 55.4455 19.1185C56.9204 18.7217 58.5134 19.6533 58.5134 19.6533C58.5134 19.6533 58.8087 23.8812 58.378 29.9385C57.9474 35.9957 53.4741 41.1516 53.4741 41.1516H53.1097L53.1094 41.1273Z"/>
</mask>
<path fill-rule="evenodd" clip-rule="evenodd" d="M53.1094 41.1273C52.7918 40.7351 48.6387 35.5048 48.2246 29.6789C47.794 23.6209 48.2246 19.6526 48.2246 19.6526C48.2246 19.6526 49.6015 19.0879 50.8953 19.0879C51.3019 19.0879 51.7136 19.1437 52.087 19.2202C52.4499 19.0986 52.8755 19 53.301 19C53.8149 19 54.3289 19.1438 54.7325 19.2983C54.9571 19.2454 55.1959 19.1857 55.4455 19.1185C56.9204 18.7217 58.5134 19.6533 58.5134 19.6533C58.5134 19.6533 58.8087 23.8812 58.378 29.9385C57.9474 35.9957 53.4741 41.1516 53.4741 41.1516H53.1097L53.1094 41.1273Z" fill="#D8D8D8"/>
<path d="M53.1094 41.1273L53.9093 41.1184C53.9073 40.9381 53.8445 40.7639 53.7311 40.6238L53.1094 41.1273ZM48.2246 29.6789L49.0226 29.6222L48.2246 29.6789ZM48.2246 19.6526L47.9211 18.9124C47.6496 19.0237 47.4609 19.2747 47.4293 19.5663L48.2246 19.6526ZM52.087 19.2202L51.9265 20.0039C52.0645 20.0322 52.2075 20.0235 52.3411 19.9788L52.087 19.2202ZM54.7325 19.2983L54.4467 20.0455C54.5964 20.1027 54.7599 20.1137 54.9159 20.077L54.7325 19.2983ZM55.4455 19.1185L55.2376 18.346L55.4455 19.1185ZM58.5134 19.6533L59.3115 19.5976C59.293 19.3338 59.1455 19.0962 58.9173 18.9627L58.5134 19.6533ZM58.378 29.9385L57.5801 29.8817L58.378 29.9385ZM53.4741 41.1516V41.9516C53.706 41.9516 53.9265 41.851 54.0784 41.6759L53.4741 41.1516ZM53.1097 41.1516L52.3097 41.1606C52.3146 41.5989 52.6713 41.9516 53.1097 41.9516V41.1516ZM53.7311 40.6238C53.5909 40.4507 52.5051 39.0869 51.4065 37.0596C50.3037 35.0244 49.2183 32.3755 49.0226 29.6222L47.4266 29.7356C47.645 32.8082 48.8432 35.6874 49.9998 37.8219C51.1607 39.9642 52.3102 41.4116 52.4877 41.6308L53.7311 40.6238ZM49.0226 29.6222C48.8095 26.6239 48.8096 24.1448 48.8627 22.4186C48.8893 21.5556 48.9291 20.8813 48.962 20.4248C48.9784 20.1966 48.9931 20.0229 49.0036 19.9073C49.0089 19.8496 49.0131 19.8063 49.0159 19.7781C49.0173 19.764 49.0184 19.7536 49.0191 19.7471C49.0194 19.7438 49.0196 19.7415 49.0198 19.7401C49.0199 19.7394 49.0199 19.739 49.0199 19.7388C49.0199 19.7387 49.0199 19.7386 49.0199 19.7387C49.0199 19.7387 49.0199 19.7387 49.0199 19.7387C49.0199 19.7388 49.0199 19.7389 48.2246 19.6526C47.4293 19.5663 47.4292 19.5664 47.4292 19.5665C47.4292 19.5666 47.4292 19.5668 47.4292 19.5669C47.4292 19.5672 47.4291 19.5675 47.4291 19.5679C47.429 19.5686 47.4289 19.5696 47.4288 19.5709C47.4285 19.5734 47.4281 19.5768 47.4277 19.5813C47.4268 19.5901 47.4255 19.6028 47.4238 19.6192C47.4205 19.652 47.4159 19.7 47.4102 19.7626C47.3988 19.8877 47.3833 20.0713 47.3661 20.3098C47.3317 20.7867 47.2908 21.483 47.2635 22.3694C47.2089 24.1418 47.2091 26.6758 47.4266 29.7356L49.0226 29.6222ZM48.2246 19.6526C48.5281 20.3928 48.528 20.3928 48.5279 20.3929C48.5279 20.3929 48.5278 20.3929 48.5277 20.3929C48.5276 20.393 48.5275 20.393 48.5274 20.3931C48.5273 20.3931 48.5272 20.3932 48.5272 20.3932C48.5272 20.3931 48.5276 20.393 48.5282 20.3927C48.5295 20.3922 48.5321 20.3912 48.536 20.3896C48.5436 20.3866 48.5562 20.3817 48.5733 20.3751C48.6075 20.3619 48.6597 20.3423 48.7273 20.3184C48.8627 20.2704 49.0576 20.2056 49.2898 20.1408C49.7635 20.0087 50.3519 19.8879 50.8953 19.8879V18.2879C50.1448 18.2879 49.398 18.4495 48.8598 18.5997C48.586 18.6761 48.3558 18.7525 48.1926 18.8104C48.1108 18.8394 48.0454 18.8638 47.9993 18.8816C47.9762 18.8904 47.9579 18.8976 47.9448 18.9029C47.9382 18.9055 47.9329 18.9076 47.9289 18.9092C47.9269 18.91 47.9253 18.9107 47.924 18.9112C47.9233 18.9115 47.9227 18.9117 47.9223 18.9119C47.922 18.912 47.9218 18.9121 47.9216 18.9122C47.9215 18.9122 47.9214 18.9123 47.9213 18.9123C47.9212 18.9124 47.9211 18.9124 48.2246 19.6526ZM50.8953 19.8879C51.2324 19.8879 51.5881 19.9346 51.9265 20.0039L52.2475 18.4365C51.8391 18.3528 51.3713 18.2879 50.8953 18.2879V19.8879ZM52.3411 19.9788C52.6562 19.8732 52.9917 19.8 53.301 19.8V18.2C52.7593 18.2 52.2436 18.324 51.8329 18.4616L52.3411 19.9788ZM53.301 19.8C53.6779 19.8 54.0884 19.9084 54.4467 20.0455L55.0184 18.5511C54.5693 18.3793 53.952 18.2 53.301 18.2V19.8ZM55.2376 18.346C54.9968 18.4108 54.7661 18.4685 54.5491 18.5196L54.9159 20.077C55.1481 20.0223 55.3951 19.9605 55.6533 19.8911L55.2376 18.346ZM58.5134 19.6533C58.9173 18.9627 58.9171 18.9626 58.9168 18.9625C58.9168 18.9624 58.9165 18.9623 58.9164 18.9622C58.9161 18.962 58.9157 18.9618 58.9154 18.9616C58.9146 18.9612 58.9138 18.9607 58.9129 18.9602C58.911 18.9591 58.9088 18.9578 58.9061 18.9563C58.9008 18.9533 58.894 18.9494 58.8856 18.9447C58.8689 18.9354 58.8461 18.9228 58.8177 18.9077C58.7609 18.8775 58.6813 18.8368 58.5821 18.7901C58.3847 18.6972 58.1055 18.5787 57.7726 18.474C57.124 18.2699 56.186 18.0909 55.2376 18.346L55.6533 19.8911C56.1799 19.7494 56.7759 19.8377 57.2925 20.0002C57.5422 20.0788 57.7534 20.1684 57.9008 20.2378C57.974 20.2723 58.0303 20.3012 58.0664 20.3204C58.0844 20.33 58.0973 20.3371 58.1047 20.3412C58.1083 20.3432 58.1106 20.3445 58.1115 20.345C58.1119 20.3452 58.1119 20.3453 58.1116 20.3451C58.1115 20.345 58.1112 20.3448 58.1109 20.3446C58.1107 20.3446 58.1105 20.3444 58.1103 20.3443C58.1102 20.3442 58.11 20.3441 58.1099 20.3441C58.1097 20.344 58.1095 20.3439 58.5134 19.6533ZM59.176 29.9952C59.3931 26.941 59.4273 24.3475 59.4072 22.5156C59.3971 21.5994 59.3734 20.8732 59.3521 20.3744C59.3414 20.1251 59.3314 19.9325 59.324 19.8015C59.3202 19.736 59.3172 19.6858 59.315 19.6516C59.3139 19.6345 59.3131 19.6215 59.3125 19.6124C59.3122 19.6079 59.3119 19.6044 59.3118 19.6019C59.3117 19.6007 59.3116 19.5997 59.3116 19.599C59.3115 19.5986 59.3115 19.5983 59.3115 19.5981C59.3115 19.598 59.3115 19.5978 59.3115 19.5978C59.3115 19.5977 59.3115 19.5976 58.5134 19.6533C57.7153 19.709 57.7153 19.709 57.7153 19.7089C57.7153 19.7089 57.7153 19.7089 57.7153 19.7089C57.7153 19.7089 57.7153 19.709 57.7154 19.7092C57.7154 19.7095 57.7154 19.71 57.7155 19.7109C57.7156 19.7125 57.7158 19.7152 57.716 19.7188C57.7165 19.7262 57.7172 19.7375 57.7182 19.7529C57.7202 19.7836 57.723 19.8302 57.7265 19.8921C57.7336 20.016 57.7432 20.201 57.7535 20.4427C57.7742 20.9259 57.7974 21.6352 57.8073 22.5332C57.827 24.3295 57.7935 26.8786 57.5801 29.8817L59.176 29.9952ZM53.4741 41.1516C54.0784 41.6759 54.0786 41.6757 54.0787 41.6755C54.0788 41.6754 54.079 41.6752 54.0792 41.675C54.0795 41.6747 54.0799 41.6742 54.0803 41.6737C54.0812 41.6726 54.0824 41.6713 54.0839 41.6696C54.0868 41.6662 54.0907 41.6616 54.0957 41.6558C54.1057 41.6441 54.1198 41.6274 54.1378 41.6059C54.1737 41.563 54.2252 41.5008 54.2901 41.4203C54.4198 41.2593 54.6033 41.0252 54.8238 40.7261C55.2643 40.1285 55.8546 39.2689 56.4588 38.2142C57.6609 36.1157 58.9488 33.192 59.176 29.9952L57.5801 29.8817C57.3767 32.7422 56.2126 35.4251 55.0704 37.4189C54.5025 38.4103 53.9475 39.2183 53.5359 39.7767C53.3302 40.0556 53.1609 40.2716 53.0443 40.4163C52.986 40.4886 52.941 40.543 52.9112 40.5786C52.8963 40.5963 52.8853 40.6094 52.8783 40.6176C52.8748 40.6216 52.8723 40.6245 52.8709 40.6262C52.8702 40.627 52.8698 40.6275 52.8696 40.6277C52.8695 40.6278 52.8695 40.6278 52.8695 40.6278C52.8696 40.6277 52.8696 40.6276 52.8697 40.6276C52.8698 40.6275 52.8699 40.6274 53.4741 41.1516ZM53.1097 41.9516H53.4741V40.3516H53.1097V41.9516ZM52.3094 41.1362L52.3097 41.1606L53.9096 41.1427L53.9093 41.1184L52.3094 41.1362Z" fill="#818387" mask="url(#path-10-inside-2)"/>
<path d="M51.4688 20.5839C51.4688 20.5839 51.7386 26.3607 52.0475 29.5215C52.3564 32.6824 53.3206 39.4173 53.3206 39.4173C53.3206 39.4173 54.2317 32.6952 54.5129 29.5215C54.7942 26.3479 55.0306 20.5839 55.0306 20.5839" stroke="#BBBBBB" stroke-width="0.8" stroke-linecap="round" stroke-linejoin="round"/>
<path d="M72.1815 41.8512C72.294 41.5298 72.3963 41.2417 72.4855 40.9927C72.5779 41.2609 72.685 41.574 72.8035 41.9247C73.2161 43.1465 73.7661 44.8231 74.3159 46.6436C74.8659 48.4648 75.4145 50.426 75.8252 52.2176C76.2378 54.0174 76.5044 55.6173 76.5044 56.728V56.7551V56.7823V56.8094V56.8366V56.8637V56.8909V56.918V56.9452V56.9723V56.9994V57.0265V57.0537V57.0808V57.1079V57.135V57.1621V57.1892V57.2163V57.2434V57.2704V57.2975V57.3246V57.3516V57.3787V57.4057V57.4328V57.4598V57.4868V57.5138V57.5408V57.5678V57.5948V57.6218V57.6488V57.6758V57.7027V57.7297V57.7566V57.7835V57.8104V57.8373V57.8642V57.8911V57.918V57.9449V57.9717V57.9986V58.0254V58.0522V58.079V58.1058V58.1326V58.1594V58.1861V58.2129V58.2396V58.2663V58.293V58.3197V58.3464V58.373V58.3997V58.4263V58.4529V58.4795V58.5061V58.5327V58.5592V58.5858V58.6123V58.6388V58.6653V58.6918V58.7183V58.7447V58.7711V58.7975V58.8239V58.8503V58.8767V58.903V58.9293V58.9556V58.9819V59.0082V59.0344V59.0606V59.0868V59.113V59.1392V59.1653V59.1915V59.2176V59.2436V59.2697V59.2957V59.3218V59.3478V59.3737V59.3997V59.4256V59.4515V59.4774V59.5033V59.5291V59.555V59.5808V59.6065V59.6323V59.658V59.6837V59.7094V59.7351V59.7607V59.7863V59.8119V59.8374V59.8629V59.8884V59.9139V59.9394V59.9648V59.9902V60.0156V60.0409V60.0662V60.0915V60.1168V60.142V60.1672V60.1924V60.2176V60.2427V60.2678V60.2928V60.3179V60.3429V60.3679V60.3928V60.4177V60.4426V60.4675V60.4923V60.5171V60.5419V60.5666V60.5913V60.616V60.6406V60.6652V60.6898V60.7144V60.7389V60.7634V60.7878V60.8122V60.8366V60.8609V60.8853V60.9095V60.9338V60.958V60.9822V61.0063V61.0304V61.0545V61.0785V61.1025V61.1265V61.1504V61.1743V61.1982V61.222V61.2458V61.2696V61.2933V61.317V61.3406V61.3642V61.3878V61.4113V61.4348V61.4582V61.4816V61.505V61.5283V61.5516V61.5749V61.5981V61.6213V61.6444V61.6675V61.6906V61.7136V61.7365V61.7595V61.7824V61.8052V61.828V61.8508V61.8735V61.8962V61.9188V61.9414V61.964V61.9865V62.009V62.0314V62.0538V62.0761V62.0984V62.1207V62.1429V62.165V62.1872V62.2092V62.2313V62.2532V62.2752V62.2971V62.3189V62.3407V62.3625V62.3842V62.4058V62.4274V62.449V62.4705V62.492V62.5134V62.5348V62.5561V62.5774V62.5986V62.6198V62.6409V62.662V62.683V62.704V62.725V62.7459V62.7667V62.7875V62.8082V62.8289V62.8495V62.8701V62.8906V62.9111V62.9315V62.9519V62.9722V62.9925V63.0127V63.0329V63.053V63.0731V63.0931V63.113V63.1329V63.1528V63.1726V63.1923V63.212V63.2316V63.2512V63.2707V63.2902V63.3096V63.3289V63.3482V63.3675V63.3867V63.4058V63.4249V63.4439V63.4628V63.4817V63.5006V63.5194V63.5381V63.5568V63.5754V63.5939V63.6124V63.6308V63.6492V63.6675V63.6858V63.704V63.7221V63.7402V63.7582V63.7762V63.7941V63.8119V63.8297V63.8474V63.8651V63.8827V63.9002V63.9177V63.9351V63.9524V63.9697V63.9869V64.0041V64.0211V64.0382V64.0551V64.072V64.0889V64.1057V64.1224V64.139V64.1556V64.1721V64.1885V64.2049V64.2212V64.2375V64.2537V64.2698V64.2859V64.3018V64.3178V64.3336V64.3494V64.3651V64.3808V64.3964V64.4119V64.4273V64.4427V64.458V64.4733V64.4884V64.5035V64.5186V64.5335V64.5484V64.5633V64.578V64.5927V64.6073V64.6219V64.6363V64.6507V64.6651V64.6793V64.6935V64.7076V64.7217V64.7356V64.7495V64.7634V64.7771V64.7908V64.8044V64.8179V64.8314V64.8448V64.8581V64.8713V64.8845V64.8976V64.9106V64.9235V64.9364V64.9492V64.9619V64.9745V64.9871V64.9996V65.012V65.0243V65.0366V65.0487V65.0608V65.0729V65.0848V65.0967V65.1084V65.1202V65.1318V65.1433V65.1548V65.1662V65.1775V65.1888V65.1999V65.211V65.222V65.2329V65.2437V65.2545V65.2652V65.2758V65.2863V65.2967V65.3071V65.3173V65.3275V65.3376V65.3476V65.3576V65.3674V65.3772V65.3869V65.3965V65.406V65.4154V65.4248V65.4341V65.4432V65.4524V65.4614V65.4703V65.4791V65.4879V65.4966V65.5018H68.482V65.4997V65.4915V65.4832V65.4748V65.4663V65.4578V65.4491V65.4405V65.4317V65.4228V65.4139V65.4049V65.3958V65.3866V65.3774V65.3681V65.3587V65.3492V65.3396V65.33V65.3203V65.3105V65.3006V65.2907V65.2807V65.2706V65.2604V65.2502V65.2399V65.2295V65.219V65.2085V65.1978V65.1871V65.1764V65.1655V65.1546V65.1436V65.1325V65.1214V65.1102V65.0989V65.0875V65.0761V65.0645V65.053V65.0413V65.0296V65.0177V65.0059V64.9939V64.9819V64.9698V64.9576V64.9453V64.933V64.9206V64.9082V64.8956V64.883V64.8703V64.8576V64.8447V64.8318V64.8189V64.8058V64.7927V64.7795V64.7663V64.753V64.7396V64.7261V64.7126V64.699V64.6853V64.6715V64.6577V64.6438V64.6299V64.6159V64.6018V64.5876V64.5734V64.5591V64.5447V64.5302V64.5157V64.5012V64.4865V64.4718V64.457V64.4422V64.4272V64.4123V64.3972V64.3821V64.3669V64.3516V64.3363V64.3209V64.3055V64.2899V64.2743V64.2587V64.243V64.2272V64.2113V64.1954V64.1794V64.1633V64.1472V64.131V64.1148V64.0985V64.0821V64.0656V64.0491V64.0325V64.0159V63.9992V63.9824V63.9656V63.9487V63.9317V63.9147V63.8976V63.8805V63.8632V63.846V63.8286V63.8112V63.7937V63.7762V63.7586V63.7409V63.7232V63.7054V63.6876V63.6697V63.6517V63.6337V63.6156V63.5974V63.5792V63.5609V63.5426V63.5242V63.5057V63.4872V63.4686V63.4499V63.4312V63.4125V63.3936V63.3747V63.3558V63.3368V63.3177V63.2986V63.2794V63.2601V63.2408V63.2215V63.202V63.1826V63.163V63.1434V63.1238V63.104V63.0843V63.0644V63.0445V63.0246V63.0046V62.9845V62.9644V62.9442V62.924V62.9037V62.8833V62.8629V62.8424V62.8219V62.8013V62.7807V62.76V62.7392V62.7184V62.6976V62.6766V62.6557V62.6346V62.6135V62.5924V62.5712V62.55V62.5287V62.5073V62.4859V62.4644V62.4429V62.4213V62.3997V62.378V62.3562V62.3344V62.3126V62.2907V62.2687V62.2467V62.2247V62.2025V62.1804V62.1581V62.1359V62.1135V62.0912V62.0687V62.0462V62.0237V62.0011V61.9785V61.9558V61.933V61.9102V61.8874V61.8645V61.8415V61.8185V61.7955V61.7724V61.7492V61.726V61.7028V61.6795V61.6561V61.6327V61.6093V61.5858V61.5622V61.5386V61.5149V61.4912V61.4675V61.4437V61.4198V61.3959V61.372V61.348V61.324V61.2999V61.2757V61.2515V61.2273V61.203V61.1787V61.1543V61.1299V61.1054V61.0809V61.0563V61.0317V61.007V60.9823V60.9576V60.9328V60.9079V60.883V60.8581V60.8331V60.8081V60.783V60.7579V60.7327V60.7075V60.6822V60.6569V60.6316V60.6062V60.5808V60.5553V60.5297V60.5042V60.4786V60.4529V60.4272V60.4014V60.3757V60.3498V60.3239V60.298V60.2721V60.246V60.22V60.1939V60.1678V60.1416V60.1154V60.0891V60.0628V60.0365V60.0101V59.9836V59.9572V59.9306V59.9041V59.8775V59.8509V59.8242V59.7975V59.7707V59.7439V59.717V59.6902V59.6632V59.6363V59.6093V59.5822V59.5551V59.528V59.5009V59.4737V59.4464V59.4191V59.3918V59.3645V59.3371V59.3096V59.2822V59.2546V59.2271V59.1995V59.1719V59.1442V59.1165V59.0888V59.061V59.0332V59.0053V58.9774V58.9495V58.9215V58.8935V58.8655V58.8374V58.8093V58.7812V58.753V58.7248V58.6965V58.6682V58.6399V58.6115V58.5831V58.5547V58.5262V58.4977V58.4692V58.4406V58.412V58.3833V58.3547V58.326V58.2972V58.2684V58.2396V58.2108V58.1819V58.153V58.124V58.095V58.066V58.037V58.0079V57.9788V57.9496V57.9205V57.8912V57.862V57.8327V57.8034V57.7741V57.7447V57.7153V57.6859V57.6564V57.6269V57.5974V57.5678V57.5382V57.5086V57.4789V57.4493V57.4195V57.3898V57.36V57.3302V57.3004V57.2705V57.2406V57.2107V57.1807V57.1508V57.1207V57.0907V57.0606V57.0305V57.0004V56.9702V56.9401V56.9098V56.8796V56.8493V56.819V56.7887V56.7584V56.728C68.482 54.2039 69.5645 50.0296 70.6699 46.4385C71.2194 44.6534 71.7691 43.0292 72.1815 41.8512Z" fill="#D8D8D8" stroke="#818387" stroke-width="0.8" stroke-linejoin="round"/>
<path d="M71.291 56.3259C71.291 56.3259 71.4749 51.9847 71.6854 49.8116C71.8958 47.6385 72.5528 43.2972 72.5528 43.2972C72.5528 43.2972 73.1736 47.6297 73.3652 49.8116C73.5568 51.9935 73.6971 56.3259 73.6971 56.3259" stroke="#BBBBBB" stroke-width="0.8" stroke-linecap="round" stroke-linejoin="round"/>
<mask id="path-15-inside-3" fill="white">
<path fill-rule="evenodd" clip-rule="evenodd" d="M72.3808 41.1271C72.0622 40.7338 67.9101 35.5041 67.4961 29.6789C67.0655 23.6209 67.4961 19.6526 67.4961 19.6526C67.4961 19.6526 68.873 19.0879 70.1668 19.0879C70.5733 19.0879 70.985 19.1437 71.3584 19.2202C71.7214 19.0986 72.1469 19 72.5724 19C73.0863 19 73.6002 19.1438 74.0039 19.2983C74.2285 19.2454 74.4673 19.1857 74.7169 19.1185C76.1918 18.7217 77.7848 19.6533 77.7848 19.6533C77.7848 19.6533 78.08 23.8812 77.6494 29.9385C77.2188 35.9957 72.7455 41.1516 72.7455 41.1516H72.381L72.3808 41.1271Z"/>
</mask>
<path fill-rule="evenodd" clip-rule="evenodd" d="M72.3808 41.1271C72.0622 40.7338 67.9101 35.5041 67.4961 29.6789C67.0655 23.6209 67.4961 19.6526 67.4961 19.6526C67.4961 19.6526 68.873 19.0879 70.1668 19.0879C70.5733 19.0879 70.985 19.1437 71.3584 19.2202C71.7214 19.0986 72.1469 19 72.5724 19C73.0863 19 73.6002 19.1438 74.0039 19.2983C74.2285 19.2454 74.4673 19.1857 74.7169 19.1185C76.1918 18.7217 77.7848 19.6533 77.7848 19.6533C77.7848 19.6533 78.08 23.8812 77.6494 29.9385C77.2188 35.9957 72.7455 41.1516 72.7455 41.1516H72.381L72.3808 41.1271Z" fill="#D8D8D8"/>
<path d="M72.3808 41.1271L73.1807 41.1182C73.1787 40.938 73.1159 40.7638 73.0025 40.6237L72.3808 41.1271ZM67.4961 29.6789L68.2941 29.6222L67.4961 29.6789ZM67.4961 19.6526L67.1925 18.9124C66.9211 19.0237 66.7324 19.2747 66.7007 19.5663L67.4961 19.6526ZM71.3584 19.2202L71.1979 20.0039C71.3359 20.0322 71.479 20.0235 71.6126 19.9788L71.3584 19.2202ZM74.0039 19.2983L73.718 20.0455C73.8678 20.1027 74.0312 20.1137 74.1873 20.077L74.0039 19.2983ZM74.7169 19.1185L74.9247 19.8911L74.7169 19.1185ZM77.7848 19.6533L78.5828 19.5976C78.5644 19.3338 78.4169 19.0962 78.1886 18.9627L77.7848 19.6533ZM77.6494 29.9385L78.4474 29.9952L77.6494 29.9385ZM72.7455 41.1516V41.9516C72.9774 41.9516 73.1978 41.851 73.3498 41.6759L72.7455 41.1516ZM72.381 41.1516L71.5811 41.1606C71.586 41.5989 71.9427 41.9516 72.381 41.9516V41.1516ZM73.0025 40.6237C72.8619 40.45 71.7761 39.0861 70.6776 37.0589C69.5749 35.0237 68.4897 32.3752 68.2941 29.6222L66.6981 29.7356C66.9165 32.8079 68.1144 35.6867 69.2709 37.8211C70.4316 39.9633 71.5811 41.4109 71.759 41.6306L73.0025 40.6237ZM68.2941 29.6222C68.0809 26.6239 68.0811 24.1448 68.1342 22.4186C68.1608 21.5556 68.2005 20.8813 68.2334 20.4248C68.2499 20.1966 68.2646 20.0229 68.2751 19.9073C68.2804 19.8496 68.2846 19.8063 68.2874 19.7781C68.2888 19.764 68.2899 19.7536 68.2905 19.7471C68.2909 19.7438 68.2911 19.7415 68.2913 19.7401C68.2913 19.7394 68.2914 19.739 68.2914 19.7388C68.2914 19.7387 68.2914 19.7386 68.2914 19.7387C68.2914 19.7387 68.2914 19.7387 68.2914 19.7387C68.2914 19.7388 68.2914 19.7389 67.4961 19.6526C66.7007 19.5663 66.7007 19.5664 66.7007 19.5665C66.7007 19.5666 66.7007 19.5668 66.7007 19.5669C66.7006 19.5672 66.7006 19.5675 66.7006 19.5679C66.7005 19.5686 66.7004 19.5696 66.7002 19.5709C66.7 19.5734 66.6996 19.5768 66.6992 19.5813C66.6982 19.5901 66.6969 19.6028 66.6953 19.6192C66.692 19.652 66.6874 19.7 66.6817 19.7626C66.6703 19.8877 66.6548 20.0713 66.6376 20.3098C66.6032 20.7867 66.5622 21.483 66.535 22.3694C66.4804 24.1418 66.4806 26.6758 66.6981 29.7356L68.2941 29.6222ZM67.4961 19.6526C67.7996 20.3928 67.7995 20.3928 67.7994 20.3929C67.7994 20.3929 67.7993 20.3929 67.7992 20.3929C67.7991 20.393 67.799 20.393 67.7989 20.3931C67.7987 20.3931 67.7987 20.3932 67.7987 20.3932C67.7987 20.3931 67.799 20.393 67.7997 20.3927C67.801 20.3922 67.8036 20.3912 67.8074 20.3896C67.8151 20.3866 67.8276 20.3817 67.8447 20.3751C67.879 20.3619 67.9312 20.3423 67.9988 20.3184C68.1342 20.2704 68.329 20.2056 68.5612 20.1408C69.035 20.0087 69.6234 19.8879 70.1668 19.8879V18.2879C69.4163 18.2879 68.6695 18.4495 68.1313 18.5997C67.8575 18.6761 67.6273 18.7525 67.4641 18.8104C67.3823 18.8394 67.3169 18.8638 67.2708 18.8816C67.2477 18.8904 67.2294 18.8976 67.2163 18.9029C67.2097 18.9055 67.2044 18.9076 67.2004 18.9092C67.1984 18.91 67.1968 18.9107 67.1955 18.9112C67.1948 18.9115 67.1942 18.9117 67.1937 18.9119C67.1935 18.912 67.1933 18.9121 67.1931 18.9122C67.193 18.9122 67.1928 18.9123 67.1928 18.9123C67.1927 18.9124 67.1925 18.9124 67.4961 19.6526ZM70.1668 19.8879C70.5039 19.8879 70.8595 19.9346 71.1979 20.0039L71.5189 18.4365C71.1105 18.3528 70.6428 18.2879 70.1668 18.2879V19.8879ZM71.6126 19.9788C71.9276 19.8732 72.2631 19.8 72.5724 19.8V18.2C72.0307 18.2 71.5151 18.324 71.1043 18.4616L71.6126 19.9788ZM72.5724 19.8C72.9493 19.8 73.3598 19.9084 73.718 20.0455L74.2897 18.5511C73.8407 18.3793 73.2234 18.2 72.5724 18.2V19.8ZM74.509 18.346C74.2682 18.4108 74.0375 18.4685 73.8205 18.5196L74.1873 20.077C74.4195 20.0223 74.6665 19.9605 74.9247 19.8911L74.509 18.346ZM77.7848 19.6533C78.1886 18.9627 78.1884 18.9626 78.1882 18.9625C78.1881 18.9624 78.1879 18.9623 78.1878 18.9622C78.1875 18.962 78.1871 18.9618 78.1868 18.9616C78.186 18.9612 78.1852 18.9607 78.1843 18.9602C78.1824 18.9591 78.1802 18.9578 78.1775 18.9563C78.1722 18.9533 78.1654 18.9494 78.157 18.9447C78.1403 18.9354 78.1175 18.9228 78.0891 18.9077C78.0323 18.8775 77.9526 18.8368 77.8535 18.7901C77.6561 18.6972 77.3769 18.5787 77.044 18.474C76.3954 18.2699 75.4574 18.0909 74.509 18.346L74.9247 19.8911C75.4513 19.7494 76.0473 19.8377 76.5638 20.0002C76.8136 20.0788 77.0248 20.1684 77.1722 20.2378C77.2454 20.2723 77.3017 20.3012 77.3378 20.3204C77.3558 20.33 77.3687 20.3371 77.3761 20.3412C77.3797 20.3432 77.382 20.3445 77.3828 20.345C77.3833 20.3452 77.3833 20.3453 77.383 20.3451C77.3828 20.345 77.3826 20.3448 77.3822 20.3447C77.3821 20.3446 77.3819 20.3444 77.3817 20.3443C77.3816 20.3442 77.3814 20.3441 77.3813 20.3441C77.3811 20.344 77.3809 20.3439 77.7848 19.6533ZM78.4474 29.9952C78.6645 26.941 78.6987 24.3475 78.6785 22.5156C78.6684 21.5994 78.6447 20.8732 78.6235 20.3744C78.6128 20.1251 78.6028 19.9325 78.5953 19.8015C78.5916 19.736 78.5886 19.6858 78.5864 19.6516C78.5853 19.6345 78.5845 19.6215 78.5839 19.6124C78.5836 19.6079 78.5833 19.6044 78.5831 19.6019C78.5831 19.6007 78.583 19.5997 78.5829 19.599C78.5829 19.5986 78.5829 19.5983 78.5829 19.5981C78.5829 19.598 78.5829 19.5978 78.5829 19.5978C78.5829 19.5977 78.5828 19.5976 77.7848 19.6533C76.9867 19.709 76.9867 19.709 76.9867 19.7089C76.9867 19.7089 76.9867 19.7089 76.9867 19.7089C76.9867 19.7089 76.9867 19.709 76.9867 19.7092C76.9868 19.7095 76.9868 19.71 76.9869 19.7109C76.987 19.7125 76.9871 19.7152 76.9874 19.7188C76.9879 19.7262 76.9886 19.7375 76.9896 19.7529C76.9916 19.7836 76.9944 19.8302 76.9979 19.8921C77.0049 20.016 77.0146 20.201 77.0249 20.4427C77.0455 20.9259 77.0687 21.6352 77.0786 22.5332C77.0984 24.3295 77.0649 26.8786 76.8514 29.8817L78.4474 29.9952ZM72.7455 41.1516C73.3498 41.6759 73.3499 41.6757 73.3501 41.6755C73.3502 41.6754 73.3504 41.6752 73.3505 41.675C73.3509 41.6747 73.3513 41.6742 73.3517 41.6737C73.3526 41.6726 73.3538 41.6713 73.3552 41.6696C73.3581 41.6662 73.3621 41.6616 73.3671 41.6558C73.3771 41.6441 73.3912 41.6274 73.4092 41.6059C73.4451 41.563 73.4966 41.5008 73.5615 41.4203C73.6912 41.2593 73.8747 41.0252 74.0951 40.7261C74.5357 40.1285 75.126 39.2689 75.7302 38.2142C76.9323 36.1157 78.2201 33.192 78.4474 29.9952L76.8514 29.8817C76.6481 32.7422 75.484 35.4251 74.3418 37.4189C73.7739 38.4103 73.2189 39.2183 72.8073 39.7767C72.6016 40.0556 72.4323 40.2716 72.3157 40.4163C72.2574 40.4886 72.2123 40.543 72.1826 40.5786C72.1677 40.5963 72.1566 40.6094 72.1497 40.6176C72.1462 40.6216 72.1437 40.6245 72.1423 40.6262C72.1416 40.627 72.1411 40.6275 72.141 40.6277C72.1409 40.6278 72.1409 40.6278 72.1409 40.6278C72.1409 40.6277 72.141 40.6276 72.141 40.6276C72.1411 40.6275 72.1413 40.6274 72.7455 41.1516ZM72.381 41.9516H72.7455V40.3516H72.381V41.9516ZM71.5808 41.1361L71.5811 41.1606L73.181 41.1427L73.1807 41.1182L71.5808 41.1361Z" fill="#818387" mask="url(#path-15-inside-3)"/>
<path d="M70.7402 20.5839C70.7402 20.5839 71.0101 26.3607 71.319 29.5215C71.6279 32.6824 72.5921 39.4173 72.5921 39.4173C72.5921 39.4173 73.5032 32.6952 73.7844 29.5215C74.0657 26.3479 74.3021 20.5839 74.3021 20.5839" stroke="#BBBBBB" stroke-width="0.8" stroke-linecap="round" stroke-linejoin="round"/>
</g>
<defs>
<filter id="filter0_d" x="15" y="15" width="76" height="63" filterUnits="userSpaceOnUse" color-interpolation-filters="sRGB">
<feFlood flood-opacity="0" result="BackgroundImageFix"/>
<feColorMatrix in="SourceAlpha" type="matrix" values="0 0 0 0 0 0 0 0 0 0 0 0 0 0 0 0 0 0 127 0"/>
<feOffset dy="4"/>
<feGaussianBlur stdDeviation="4"/>
<feColorMatrix type="matrix" values="0 0 0 0 0.776471 0 0 0 0 0.796078 0 0 0 0 0.8 0 0 0 0.3 0"/>
<feBlend mode="normal" in2="BackgroundImageFix" result="effect1_dropShadow"/>
<feBlend mode="normal" in="SourceGraphic" in2="effect1_dropShadow" result="shape"/>
</filter>
</defs>
</svg>
