<svg width="94" height="94" viewBox="0 0 94 94" fill="none" xmlns="http://www.w3.org/2000/svg">
<path d="M8.5 2.5H85.5C88.8 2.5 91.5 5.2 91.5 8.5V85.5C91.5 88.8 88.8 91.5 85.5 91.5H8.5C5.2 91.5 2.5 88.8 2.5 85.5V8.5C2.5 5.2 5.2 2.5 8.5 2.5Z" stroke="#A8823C" stroke-width="5"/>
<path fill-rule="evenodd" clip-rule="evenodd" d="M16.4 10.7041H77.6V12.4041H16.4V10.7041Z" fill="#A8823C"/>
<path d="M16.1 12.9041C16.9837 12.9041 17.7 12.1878 17.7 11.3041C17.7 10.4204 16.9837 9.7041 16.1 9.7041C15.2163 9.7041 14.5 10.4204 14.5 11.3041C14.5 12.1878 15.2163 12.9041 16.1 12.9041Z" fill="#A8823C"/>
<path d="M77.5 12.9041C78.3836 12.9041 79.1 12.1878 79.1 11.3041C79.1 10.4204 78.3836 9.7041 77.5 9.7041C76.6163 9.7041 75.9 10.4204 75.9 11.3041C75.9 12.1878 76.6163 12.9041 77.5 12.9041Z" fill="#A8823C"/>
<path fill-rule="evenodd" clip-rule="evenodd" d="M24.1 17.0996H68.1V64.3996H24.1V17.0996Z" stroke="#91723A" stroke-width="1.1751"/>
<path fill-rule="evenodd" clip-rule="evenodd" d="M47 20H65.2V61.3H47V20Z" stroke="#91723A" stroke-width="1.1751"/>
<path d="M47.2 18.5996H66.6V62.7996H47.2V18.5996Z" stroke="#91723A" stroke-width="1.1751"/>
<path d="M47 20H65.2V61.3M47 61.4H65.2" stroke="#91723A" stroke-width="1.1751"/>
<path fill-rule="evenodd" clip-rule="evenodd" d="M27.1 20H45.3V61.3H27.1V20Z" stroke="#91723A" stroke-width="1.1751"/>
<path d="M25.9 18.9004L27.1 20.0004" stroke="#91723A" stroke-width="1.1751"/>
<path d="M45.3 20H27.1V61.3" stroke="#91723A" stroke-width="1.1751"/>
<path d="M27.1 61.4004L25.9 62.6004" stroke="#91723A" stroke-width="1.1751"/>
<path d="M27.1 61.3996H45.3M25.7 18.5996H45.1V62.7996H25.7V18.5996Z" stroke="#91723A" stroke-width="1.1751"/>
<path d="M66.4 18.7998L65.1 19.9998M65.1 61.3998L66.4 62.5998" stroke="#91723A" stroke-width="1.1751"/>
<path fill-rule="evenodd" clip-rule="evenodd" d="M21.1 10H49.4V84.4H21.1V10Z" fill="#A8823C" stroke="#91723A" stroke-width="1.1751"/>
<path fill-rule="evenodd" clip-rule="evenodd" d="M21.1 9.6V84.5C22 84.8 22.6 84.9 23.1 84.9C23.5 84.9 24.2 84.8 25.1 84.5V9.6C24.7 9.2 24.1 9 23.1 9C22.1 9 21.5 9.2 21.1 9.6ZM34 9.6V84.5C34.9 84.8 35.5 84.9 36 84.9C36.5 84.9 37.1 84.8 38 84.5V9.6C37.6 9.2 37 9 36 9C35 9 34.4 9.2 34 9.6ZM47.8 9.6V84.5C48.7 84.8 49.3 84.9 49.8 84.9C50.2 84.9 50.9 84.8 51.8 84.5V9.6C51.4 9.2 50.8 9 49.8 9C48.8 9 48.2 9.2 47.8 9.6ZM27.5 9.6V84.5C28.4 84.8 29 84.9 29.5 84.9C29.9 84.9 30.6 84.8 31.5 84.5V9.6C31.1 9.2 30.5 9 29.5 9C28.5 9 27.9 9.2 27.5 9.6ZM41.3 9.6V84.5C42.2 84.8 42.8 84.9 43.3 84.9C43.7 84.9 44.4 84.8 45.3 84.5V9.6C44.9 9.2 44.3 9 43.3 9C42.3 9 41.7 9.2 41.3 9.6Z" fill="#A8823C" stroke="#91723A" stroke-width="1.1751"/>
</svg>
