<svg xmlns="http://www.w3.org/2000/svg" width="620" height="720" viewBox="0 0 620 720"><path fill="#000000" fill-rule="evenodd" d="M27.448 8.852A4517.126 4517.126 0 01310 0c92.09 0 184.18 2.821 276.27 8.463l6.28.389c10.137.635 18.188 8.768 18.72 18.911A6330.218 6330.218 0 01620 360c0 108.347-2.785 216.694-8.355 325.042l-.384 7.387c-.53 10.07-8.474 18.172-18.533 18.898l-5.019.358-5.042.35-5.065.342-5.09.335-5.111.328-5.136.32-5.159.312-5.182.305-5.205.297-5.229.29-5.252.283-5.276.274-5.299.268-5.322.26-5.345.252-5.37.244-5.391.237-5.416.23-5.439.222-5.462.215-2.74.104-5.497.203-5.52.196-5.545.188-5.567.181-5.59.173c-.934.029-1.869.056-2.804.084l-8.448.24-5.66.15c-.946.025-1.892.05-2.84.073l-5.695.14-5.719.131-5.742.124-5.766.117-5.789.11-5.812.1-5.836.095-2.926.044-5.871.083-5.894.075-5.917.068-5.941.06-8.955.076-2.996.022-6.011.038-9.06.042-9.112.026-6.104.008H325.5c-97.122 0-194.243-2.837-291.365-8.512l-6.622-.391c-10.164-.607-18.25-8.754-18.78-18.923C2.912 580.515 0 469.457 0 359 0 251.04 2.781 143.081 8.343 35.122l.384-7.361C9.26 17.619 17.312 9.487 27.448 8.852z"/></svg>